<?xml version="1.0" standalone="no"?>
<!DOCTYPE svg PUBLIC "-//W3C//DTD SVG 1.1//EN" "http://www.w3.org/Graphics/SVG/1.1/DTD/svg11.dtd" >
<svg>
<metadata>
Created by FontForge 20120731 at Wed Aug  3 09:48:33 2016
 By www
Part of the digitally encoded machine readable outline data for producing the Typefaces provided is copyrighted (c) 2006 Linotype GmbH, www.linotype.com. All rights reserved. This software is the property of Linotype GmbH, and may not be reproduced, used, displayed, modified, disclosed or transferred without the express written approval of Linotype GmbH.  Copyright (c) 1988, 1990, 1993 Adobe Systems Incorporated. All Rights Reserved. Helvetica is a trademark of Heidelberger Druckmaschinen AG, exclusively licensed through Linotype GmbH, and may be registered in certain jurisdictions. This typeface is original artwork of Linotype Design Studio. The design may be protected in certain jurisdictions.
</metadata>
<defs>
<font id="HelveticaNeueLTCom-ThCn" horiz-adv-x="426" >
  <font-face 
    font-family="HelveticaNeueLT Com 37 ThCn"
    font-weight="250"
    font-stretch="condensed"
    units-per-em="1000"
    panose-1="2 11 4 6 2 2 2 3 2 4"
    ascent="714"
    descent="-286"
    x-height="523"
    cap-height="714"
    bbox="-163 -217 1000 920"
    underline-thickness="50"
    underline-position="-50"
    unicode-range="U+000D-FB02"
  />
<missing-glyph horiz-adv-x="512" 
d="M222 117v67h56v-67h-56zM225 234l-2 17q0 55 13 81t46 59q32 31 41 47.5t9 35.5q0 36 -22.5 60.5t-53.5 24.5t-53.5 -22t-28.5 -73l-50 8q7 71 44 104t91 33q53 0 88.5 -36t35.5 -95q0 -32 -12.5 -58.5t-50.5 -61.5q-37 -33 -43 -52t-6 -72h-46zM462 50v617h-412v-617
h412zM512 718v-718h-512v718h512z" />
    <glyph glyph-name="IJ" unicode="IJ" horiz-adv-x="575" 
d="M61 714h42v-714h-42v714zM235 187q0 -85 29.5 -125t86.5 -40q23 0 45 6.5t39 22.5t27.5 43.5t10.5 68.5v551h42v-551q0 -89 -45 -132t-116 -43q-48 0 -79 15.5t-49 42.5t-25.5 64.5t-7.5 82.5v16h42v-22z" />
    <glyph glyph-name="ij" unicode="ij" horiz-adv-x="305" 
d="M55 714h38v-102h-38v102zM55 523h38v-523h-38v523zM212 714h38v-102h-38v102zM119 -142q7 -1 14 -1.5t14 -0.5q12 0 23.5 2.5t20.5 10t15 22t6 39.5v593h38v-589q0 -32 -7.5 -53.5t-20 -34.5t-30 -18.5t-37.5 -5.5q-9 0 -18 0.5t-18 1.5v34z" />
    <glyph glyph-name="napostrophe" unicode="&#x22;n" horiz-adv-x="417" 
d="M61 523h38v-79h2q7 17 18.5 33.5t28 29t38 20.5t48.5 8q28 0 52 -8t42 -25.5t28 -44t10 -63.5v-394h-38v376q0 70 -27.5 97.5t-76.5 27.5q-30 0 -53.5 -13t-39 -35.5t-24 -53t-8.5 -64.5v-335h-38v523zM34 801h47v-85q0 -31 -14 -47t-38 -22v20q12 5 19 15t7 32h-21v87z
" />
    <glyph glyph-name="fi" unicode="fi" horiz-adv-x="370" 
d="M79 489h-71v34h71v87q0 22 4.5 41.5t15 33t28.5 21.5t44 8q9 0 19 -0.5t20 -2.5v-34q-14 3 -33 3q-25 0 -42.5 -14t-17.5 -54v-89h87v-34h-87v-489h-38v489zM278 714h38v-102h-38v102zM278 523h38v-523h-38v523z" />
    <glyph glyph-name="fl" unicode="fl" horiz-adv-x="370" 
d="M79 489h-71v34h71v87q0 22 4.5 41.5t15 33t28.5 21.5t44 8q9 0 19 -0.5t20 -2.5v-34q-14 3 -33 3q-25 0 -42.5 -14t-17.5 -54v-89h87v-34h-87v-489h-38v489zM277 714h38v-714h-38v714z" />
    <glyph glyph-name=".notdef" horiz-adv-x="512" 
d="M222 117v67h56v-67h-56zM225 234l-2 17q0 55 13 81t46 59q32 31 41 47.5t9 35.5q0 36 -22.5 60.5t-53.5 24.5t-53.5 -22t-28.5 -73l-50 8q7 71 44 104t91 33q53 0 88.5 -36t35.5 -95q0 -32 -12.5 -58.5t-50.5 -61.5q-37 -33 -43 -52t-6 -72h-46zM462 50v617h-412v-617
h412zM512 718v-718h-512v718h512z" />
    <glyph glyph-name=".null" horiz-adv-x="500" 
 />
    <glyph glyph-name=".null" horiz-adv-x="500" 
 />
    <glyph glyph-name="nonmarkingreturn" unicode="&#xd;" horiz-adv-x="0" 
 />
    <glyph glyph-name="space" unicode=" " horiz-adv-x="240" 
 />
    <glyph glyph-name="exclam" unicode="!" horiz-adv-x="222" 
d="M90 96h42v-96h-42v96zM132 714v-230l-6 -298h-30l-6 298v230h42z" />
    <glyph glyph-name="quotedbl" unicode="&#x22;" horiz-adv-x="296" 
d="M187 714h34v-228h-34v228zM75 714h34v-228h-34v228z" />
    <glyph glyph-name="numbersign" unicode="#" horiz-adv-x="480" 
d="M321 437h-137l-25 -178h137zM155 225l-31 -225h-34l31 225h-108v34h112l25 178h-109v34h113l31 225h34l-31 -225h137l31 225h34l-31 -225h108v-34h-112l-25 -178h109v-34h-113l-31 -225h-34l31 225h-137z" />
    <glyph glyph-name="dollar" unicode="$" horiz-adv-x="480" 
d="M225 -12q-57 1 -94 19.5t-58.5 47t-30 63.5t-8.5 68v22h42v-24q0 -71 34.5 -114t114.5 -48v326l-35 12q-32 11 -58 25.5t-45 34t-29 46t-10 61.5q0 41 13 74t36 56.5t56 36.5t72 14v70h30v-70q93 -5 134 -55t41 -132h-42q0 66 -30.5 107t-102.5 46v-294l42 -14
q36 -12 64 -27t46.5 -36.5t28.5 -50.5t10 -69q0 -45 -14.5 -80.5t-40 -60.5t-60.5 -38.5t-76 -15.5v-84h-30v84zM225 674q-27 -2 -51.5 -10.5t-43 -26t-29.5 -43.5t-11 -63q0 -60 30.5 -90t90.5 -47l14 -4v284zM255 22q32 3 59.5 15t47.5 32.5t31 48t11 62.5t-9 59.5
t-25.5 42t-40 29t-51.5 20.5l-23 7v-316z" />
    <glyph glyph-name="percent" unicode="%" horiz-adv-x="685" 
d="M55 531q0 87 29 132t93 45q36 0 59.5 -11.5t37.5 -34t19.5 -55.5t5.5 -76q0 -177 -122 -177q-36 0 -60 11.5t-37.5 34t-19 55.5t-5.5 76zM386 165q0 87 29 132t93 45q36 0 59.5 -11.5t37.5 -34t19.5 -55.5t5.5 -76q0 -177 -122 -177q-36 0 -60 11.5t-37.5 34t-19 55.5
t-5.5 76zM89 531q0 -44 6 -72.5t17.5 -45t28 -23t36.5 -6.5q19 0 35 6.5t27.5 23t18 45t7.5 72.5q0 44 -6 72.5t-17.5 45t-28 23t-36.5 6.5q-17 0 -33 -6.5t-28 -23t-19.5 -45t-7.5 -72.5zM475 708h34l-303 -720h-34zM420 165q0 -44 6 -72.5t17.5 -45t28 -23t36.5 -6.5
q19 0 35 6.5t27.5 23t18 45t7.5 72.5q0 44 -6 72.5t-17.5 45t-28 23t-36.5 6.5q-17 0 -33 -6.5t-28 -23t-19.5 -45t-7.5 -72.5z" />
    <glyph glyph-name="ampersand" unicode="&#x26;" horiz-adv-x="537" 
d="M210 377l-44 -35q-48 -37 -76 -76t-28 -90q0 -34 11.5 -62t31.5 -48.5t48 -32t61 -11.5q30 0 56.5 9.5t48 24.5t39 34.5t29.5 39.5zM252 452q36 32 56.5 62t20.5 75q0 42 -26.5 66.5t-66.5 24.5q-48 0 -72.5 -28t-24.5 -70q0 -12 4.5 -27t11 -30.5t15.5 -30.5t18 -27
l30 -40zM409 100q-33 -48 -80.5 -80t-119.5 -32q-51 0 -86.5 17t-58.5 43.5t-33.5 58.5t-10.5 63q0 36 9.5 64.5t26 52t40 44t52.5 42.5l42 32l-33 45q-27 37 -41.5 69t-14.5 69q0 28 10.5 51t28.5 39.5t42.5 26t52.5 9.5q34 0 59 -11t41.5 -29t24 -40t7.5 -44q0 -27 -8 -51
t-22 -45t-32.5 -39.5t-38.5 -34.5l-28 -23l165 -230q14 29 20.5 64.5t6.5 67.5h38q0 -42 -10.5 -85t-30.5 -80l96 -134h-42z" />
    <glyph glyph-name="quotesingle" unicode="'" horiz-adv-x="184" 
d="M75 714h34v-228h-34v228z" />
    <glyph glyph-name="parenleft" unicode="(" horiz-adv-x="222" 
d="M190 -184q-24 39 -46 87t-39.5 104.5t-28 121t-10.5 136.5t10.5 136.5t28 121t39.5 104.5t46 87h30q-25 -41 -46.5 -91.5t-38 -108t-26 -120.5t-9.5 -129t9.5 -129t26 -120.5t38 -108.5t46.5 -91h-30z" />
    <glyph glyph-name="parenright" unicode=")" horiz-adv-x="222" 
d="M32 714q24 -39 46 -87t39.5 -104.5t28 -121t10.5 -136.5t-10.5 -136.5t-28 -121t-39.5 -104.5t-46 -87h-30q25 40 46.5 91t38 108.5t26 120.5t9.5 129t-9.5 129t-26 120.5t-38 108t-46.5 91.5h30z" />
    <glyph glyph-name="asterisk" unicode="*" horiz-adv-x="296" 
d="M42 647l92 -44v111h30v-111l90 44l12 -28l-87 -42l59 -80l-26 -19l-63 88l-66 -88l-26 19l62 80l-89 40z" />
    <glyph glyph-name="plus" unicode="+" horiz-adv-x="600" 
d="M283 236h-236v34h236v236h34v-236h236v-34h-236v-236h-34v236z" />
    <glyph glyph-name="comma" unicode="," horiz-adv-x="240" 
d="M99 102h42v-100q0 -30 -3.5 -50.5t-10.5 -35t-18 -25t-26 -19.5v34q19 14 23.5 37.5t4.5 56.5h-12v102z" />
    <glyph glyph-name="hyphen" unicode="-" horiz-adv-x="315" 
d="M63 289h189v-34h-189v34z" />
    <glyph glyph-name="period" unicode="." horiz-adv-x="240" 
d="M99 102h42v-102h-42v102z" />
    <glyph glyph-name="slash" unicode="/" horiz-adv-x="278" 
d="M247 726h40l-256 -738h-40z" />
    <glyph glyph-name="zero" unicode="0" horiz-adv-x="480" 
d="M42 348q0 186 47.5 273t150.5 87q55 0 93 -21t61 -65t33.5 -112t10.5 -162q0 -98 -12 -166.5t-36.5 -111.5t-62 -62.5t-87.5 -19.5q-54 0 -91.5 21t-61.5 65.5t-34.5 112.5t-10.5 161zM84 348q0 -101 10.5 -164.5t30.5 -99.5t49 -49t66 -13t66 13.5t49 50t30.5 100
t10.5 162.5q0 50 -2.5 107t-17 106t-46.5 81t-90 32q-39 0 -65.5 -16.5t-44 -43.5t-27 -62t-14 -71t-5 -71t-0.5 -62z" />
    <glyph glyph-name="one" unicode="1" horiz-adv-x="480" 
d="M244 636q-13 -15 -32.5 -29t-42 -25.5t-47 -19.5t-47.5 -10v34q27 3 54 13.5t51 27t42 37.5t26 44h34v-708h-38v636z" />
    <glyph glyph-name="two" unicode="2" horiz-adv-x="480" 
d="M46 0q0 76 31.5 137.5t91.5 109.5l101 80q24 19 45 39t37 43.5t25 50t9 59.5q0 69 -37 112t-107 43q-41 0 -69 -15.5t-46 -41t-26 -58t-8 -66.5h-42q0 45 12.5 84.5t37 68.5t61 45.5t84.5 16.5q27 0 59 -8.5t59.5 -30t45.5 -58t18 -93.5q0 -39 -9.5 -69t-26.5 -55.5
t-41 -48t-53 -45.5l-94 -75q-23 -19 -44 -41.5t-37 -47.5t-25.5 -50t-9.5 -48h346v-38h-388z" />
    <glyph glyph-name="three" unicode="3" horiz-adv-x="480" 
d="M199 387h31q69 0 106 34.5t37 109.5q0 67 -35 105t-101 38q-39 0 -65 -13.5t-42.5 -35.5t-24 -50.5t-8.5 -57.5h-42q0 42 12.5 77t36.5 60.5t58 39.5t77 14q39 0 71 -11.5t55.5 -34t36.5 -55.5t13 -75q0 -29 -7.5 -56t-22.5 -48.5t-37.5 -36.5t-52.5 -21v-2
q33 -3 59.5 -17.5t45 -37t28.5 -52t10 -62.5q0 -46 -13.5 -84.5t-40 -66.5t-65 -44t-88.5 -16q-46 0 -80.5 14.5t-58 40.5t-36 62t-14.5 79h42q0 -32 9 -61.5t27.5 -52t46.5 -35.5t66 -13q32 0 61.5 10t52 31t36 54.5t13.5 80.5q0 69 -40.5 112t-125.5 43h-31v34z" />
    <glyph glyph-name="four" unicode="4" horiz-adv-x="480" 
d="M322 191h-289v38l285 479h42v-483h87v-34h-87v-191h-38v191zM322 643h-2l-249 -418h251v418z" />
    <glyph glyph-name="five" unicode="5" horiz-adv-x="480" 
d="M97 696h305v-38h-273l-34 -281h2q21 38 60 60t87 22q49 0 85 -17.5t60 -48.5t35.5 -72t11.5 -87q0 -48 -11.5 -92.5t-36.5 -78.5t-63 -54.5t-92 -20.5q-51 0 -87 16t-58.5 42t-33 58.5t-10.5 65.5v7h42v-12q5 -63 42 -103t101 -40q44 0 75.5 17t51.5 45.5t29 66.5t9 80
q0 41 -10 76.5t-29.5 61.5t-48.5 41t-66 15q-33 0 -57.5 -10t-41.5 -24.5t-27.5 -31t-16.5 -28.5h-42z" />
    <glyph glyph-name="six" unicode="6" horiz-adv-x="480" 
d="M92 217q0 -33 8 -68t25.5 -63t46 -46t69.5 -18q72 0 113.5 51.5t41.5 154.5q0 40 -9 74.5t-27.5 60t-47 40.5t-67.5 15q-40 0 -69 -15.5t-47.5 -42.5t-27.5 -64t-9 -79zM377 547q0 21 -7 43.5t-22.5 41t-40 30.5t-58.5 12q-48 0 -80 -26t-52 -71.5t-28.5 -108.5
t-8.5 -138v-13h2q6 22 18 46t32 44t49 32.5t69 12.5q87 0 137.5 -57.5t50.5 -166.5q0 -52 -12 -96t-36.5 -76t-62 -50t-88.5 -18q-65 0 -103.5 29t-59.5 76t-27.5 106t-6.5 120q0 78 8 148.5t30.5 124t64 85t108.5 31.5q51 0 83 -18.5t50.5 -44.5t25.5 -53t7 -45h-42z" />
    <glyph glyph-name="seven" unicode="7" horiz-adv-x="480" 
d="M437 658q-46 -52 -83.5 -112.5t-67.5 -124t-52 -126t-36.5 -118.5t-21.5 -101.5t-7 -75.5h-46q0 35 9 84.5t26 106.5t41 119.5t54.5 124t67 118.5t78.5 105h-356v38h394v-38z" />
    <glyph glyph-name="eight" unicode="8" horiz-adv-x="480" 
d="M42 191q0 81 39.5 129.5t99.5 57.5v2q-58 11 -87.5 55t-29.5 100q0 78 46 125.5t130 47.5q85 0 130.5 -47.5t45.5 -125.5q0 -55 -27.5 -98t-86.5 -57v-2q63 -9 99.5 -57.5t36.5 -129.5q0 -94 -52.5 -148.5t-146.5 -54.5q-93 0 -145 54.5t-52 148.5zM84 191
q0 -79 41.5 -124t114.5 -45q70 0 113 45t43 124q0 90 -42 131t-114 41q-33 0 -61.5 -10.5t-49.5 -31.5t-33 -53.5t-12 -76.5zM374 535q0 61 -34 100t-100 39t-100 -39t-34 -100q0 -66 37 -102t97 -36q63 0 98.5 36t35.5 102z" />
    <glyph glyph-name="nine" unicode="9" horiz-adv-x="480" 
d="M388 479q0 33 -8 68t-25.5 63t-46 46t-69.5 18q-72 0 -113.5 -51.5t-41.5 -154.5q0 -40 9 -74.5t27.5 -60t47 -40.5t67.5 -15q40 0 68.5 15.5t47.5 42.5t28 64t9 79zM103 149q0 -21 7 -43.5t22.5 -41t39.5 -30.5t59 -12q48 0 80 25.5t52 71.5t28.5 109t8.5 138v14h-2
q-6 -23 -18 -47t-32 -44t-49 -32.5t-69 -12.5q-87 0 -137.5 57.5t-50.5 166.5q0 52 12 96t36.5 76t62 50t88.5 18q64 0 103 -29t60 -76t27.5 -106t6.5 -120q0 -78 -8 -149t-30.5 -124t-64 -84.5t-108.5 -31.5q-51 0 -83 18.5t-50.5 44.5t-25.5 53t-7 45h42z" />
    <glyph glyph-name="colon" unicode=":" horiz-adv-x="240" 
d="M99 497h42v-102h-42v102zM99 102h42v-102h-42v102z" />
    <glyph glyph-name="semicolon" unicode=";" horiz-adv-x="240" 
d="M99 497h42v-102h-42v102zM99 102h42v-100q0 -30 -3.5 -50.5t-10.5 -35t-18 -25t-26 -19.5v34q19 14 23.5 37.5t4.5 56.5h-12v102z" />
    <glyph glyph-name="less" unicode="&#x3c;" horiz-adv-x="600" 
d="M47 270l506 242v-30l-476 -229l476 -229v-30l-506 242v34z" />
    <glyph glyph-name="equal" unicode="=" horiz-adv-x="600" 
d="M47 172h506v-34h-506v34zM47 368h506v-34h-506v34z" />
    <glyph glyph-name="greater" unicode="&#x3e;" horiz-adv-x="600" 
d="M553 236l-506 -242v30l476 229l-476 229v30l506 -242v-34z" />
    <glyph glyph-name="question" unicode="?" 
d="M183 96h42v-96h-42v96zM183 233q0 42 12.5 72t30.5 53.5t40 43t40 42t30.5 50t12.5 66.5q0 63 -35.5 97.5t-95.5 34.5q-41 0 -68 -15t-43 -39t-23 -54.5t-7 -61.5v-13h-42v16q0 33 9 68.5t30.5 65t56.5 48.5t86 19q49 0 82.5 -15.5t54 -39.5t29 -53t8.5 -56
q0 -45 -12.5 -76t-30.5 -54.5t-40 -42.5t-40 -40.5t-30.5 -48.5t-12.5 -65v-52h-42v50z" />
    <glyph glyph-name="at" unicode="@" horiz-adv-x="800" 
d="M614 557l-95 -292q-5 -16 -10.5 -32t-5.5 -27q0 -15 12 -25t28 -10q35 0 68.5 21.5t59 57t41 80.5t15.5 92q0 64 -26.5 114t-70 84.5t-99.5 53t-114 18.5q-71 0 -134 -27t-109.5 -73.5t-73.5 -108t-27 -130.5q0 -73 29.5 -133.5t78 -104.5t111 -68.5t127.5 -24.5
q87 0 162 39.5t124 108.5h42q-24 -42 -59.5 -75.5t-78.5 -57.5t-91.5 -36.5t-98.5 -12.5q-84 0 -155 28t-122.5 77.5t-81 118t-29.5 148.5q0 78 30.5 145t83 116t122 77t148.5 28q75 0 139.5 -22t112 -62t75 -96t27.5 -125q0 -56 -22 -107.5t-56.5 -90.5t-77 -62.5
t-84.5 -23.5q-28 0 -48 17.5t-20 52.5h-2q-26 -34 -61.5 -52t-77.5 -18q-30 0 -55 12t-42.5 32t-27 47t-9.5 57q0 51 18 103t50.5 94t77.5 68.5t99 26.5q25 0 45 -7.5t34.5 -20t23.5 -29t12 -33.5h2l24 70h42zM228 288q0 -57 28.5 -87t76.5 -30q40 0 74.5 27.5t59.5 67.5
t39 84.5t14 77.5q0 17 -2.5 37t-12.5 37.5t-28.5 29t-51.5 11.5q-45 0 -81.5 -25t-62 -62.5t-39.5 -82.5t-14 -85z" />
    <glyph glyph-name="A" unicode="A" horiz-adv-x="481" 
d="M375 222h-269l-68 -222h-42l222 714h53l214 -714h-42zM244 672h-2l-126 -416h251z" />
    <glyph glyph-name="B" unicode="B" horiz-adv-x="500" 
d="M244 34q87 0 132 36t45 125q0 48 -13.5 79t-37.5 49.5t-57 26t-71 7.5h-139v-323h141zM240 391q69 0 113.5 34.5t44.5 110.5q0 144 -140 144h-155v-289h137zM61 714h192q52 0 88 -13t58 -36.5t31.5 -56t9.5 -72.5q0 -72 -36 -112t-96 -48v-2q78 -6 116.5 -55.5
t38.5 -124.5q0 -91 -54 -142.5t-150 -51.5h-198v714z" />
    <glyph glyph-name="C" unicode="C" horiz-adv-x="500" 
d="M425 509q0 36 -9.5 69t-29 58.5t-49 40.5t-68.5 15q-53 0 -89.5 -24t-58.5 -67.5t-31.5 -105.5t-9.5 -137q0 -72 8.5 -133.5t29 -106.5t56 -70.5t89.5 -25.5q52 0 85 26t52 62t26.5 72.5t7.5 57.5h42q0 -32 -9.5 -75t-34 -82.5t-67 -67t-109.5 -27.5q-58 0 -99.5 25
t-67.5 72.5t-38.5 115.5t-12.5 155q0 84 12.5 152.5t40 116.5t71 74.5t105.5 26.5q63 0 102 -24t60.5 -58t29.5 -71.5t8 -63.5h-42z" />
    <glyph glyph-name="D" unicode="D" horiz-adv-x="519" 
d="M61 714h163q57 0 104 -14.5t81 -54t53 -109t19 -179.5t-21 -179.5t-56.5 -109t-82 -54t-97.5 -14.5h-163v714zM224 34q114 0 164.5 79.5t50.5 243.5q0 82 -10.5 143t-35.5 101t-66.5 59.5t-102.5 19.5h-121v-646h121z" />
    <glyph glyph-name="E" unicode="E" 
d="M61 714h341v-38h-299v-285h279v-38h-279v-315h308v-38h-350v714z" />
    <glyph glyph-name="F" unicode="F" horiz-adv-x="407" 
d="M61 714h342v-38h-300v-285h279v-38h-279v-353h-42v714z" />
    <glyph glyph-name="G" unicode="G" horiz-adv-x="519" 
d="M447 144h-2q-17 -73 -64.5 -114.5t-123.5 -41.5q-59 0 -100.5 25t-67.5 72.5t-38.5 115.5t-12.5 155q0 84 12.5 152.5t40 116.5t71 74.5t105.5 26.5q63 0 102 -24t60.5 -58t29.5 -71.5t8 -63.5h-42q0 36 -9.5 69t-29 58.5t-49 40.5t-68.5 15q-53 0 -89.5 -24t-58.5 -67.5
t-31.5 -105.5t-9.5 -137q0 -72 8.5 -133.5t29 -106.5t56 -70.5t89.5 -25.5q51 0 84.5 22.5t54 59t29 82.5t8.5 93v44h-196v34h238v-357h-34v144z" />
    <glyph glyph-name="H" unicode="H" horiz-adv-x="519" 
d="M61 714h42v-313h313v313h42v-714h-42v363h-313v-363h-42v714z" />
    <glyph glyph-name="I" unicode="I" horiz-adv-x="164" 
d="M61 714h42v-714h-42v714z" />
    <glyph glyph-name="J" unicode="J" horiz-adv-x="407" 
d="M66 187q0 -85 29.5 -125t86.5 -40q23 0 45 6.5t39 22.5t27.5 43.5t10.5 68.5v551h42v-551q0 -89 -45 -132t-116 -43q-48 0 -79 15.5t-49 42.5t-25.5 64.5t-7.5 82.5v16h42v-22z" />
    <glyph glyph-name="K" unicode="K" horiz-adv-x="463" 
d="M61 714h42v-397h2l295 397h46l-224 -301l246 -413h-48l-225 378l-92 -122v-256h-42v714z" />
    <glyph glyph-name="L" unicode="L" 
d="M61 714h42v-676h299v-38h-341v714z" />
    <glyph glyph-name="M" unicode="M" horiz-adv-x="648" 
d="M552 660h-2l-205 -660h-42l-205 660h-2v-660h-42v714h68l203 -642h2l198 642h69v-714h-42v660z" />
    <glyph glyph-name="N" unicode="N" horiz-adv-x="519" 
d="M110 714l311 -648h2v648h42v-714h-55l-312 648h-2v-648h-42v714h56z" />
    <glyph glyph-name="O" unicode="O" horiz-adv-x="537" 
d="M269 692q-53 0 -89 -25t-58 -69t-32 -106t-10 -135q0 -74 8.5 -135.5t30 -105.5t58 -69t92.5 -25q100 0 144 81.5t44 253.5q0 72 -9 133.5t-30.5 106.5t-58 70t-90.5 25zM269 726q53 0 95.5 -18.5t72.5 -62t46 -114t16 -174.5q0 -117 -21.5 -189.5t-55.5 -112.5
t-74.5 -53.5t-78.5 -13.5q-51 0 -93.5 18.5t-73 62t-47.5 114t-17 174.5t17.5 174.5t48.5 114t73 62t92 18.5z" />
    <glyph glyph-name="P" unicode="P" horiz-adv-x="463" 
d="M241 352q32 0 60.5 9t50 28.5t34 51t12.5 75.5q0 78 -39 121t-112 43h-144v-328h138zM61 714h185q63 -1 101 -21.5t58.5 -50t27.5 -64t7 -62.5q0 -91 -53 -144.5t-150 -53.5h-134v-318h-42v714z" />
    <glyph glyph-name="Q" unicode="Q" horiz-adv-x="537" 
d="M406 39q-29 -27 -64 -39t-73 -12q-51 0 -93.5 18.5t-73 62t-47.5 114t-17 174.5t17.5 174.5t48.5 114t73 62t92 18.5q53 0 95.5 -18.5t72.5 -62t46 -114t16 -174.5q0 -109 -18.5 -179t-50.5 -112l76 -78l-25 -25zM404 92q30 48 41.5 114.5t11.5 150.5q0 72 -9 133.5
t-30.5 106.5t-58 70t-90.5 25q-53 0 -89 -25t-58 -69t-32 -106t-10 -135q0 -74 8.5 -135.5t30 -105.5t58 -69t92.5 -25q35 0 62.5 10.5t50.5 30.5l-88 89l25 25z" />
    <glyph glyph-name="R" unicode="R" horiz-adv-x="500" 
d="M237 365q30 0 60 6t54 24t39 49.5t15 82.5q0 72 -37.5 112.5t-103.5 40.5h-161v-315h134zM61 714h209q37 0 69.5 -11t56.5 -34t37.5 -58t13.5 -84q0 -71 -36.5 -120t-106.5 -57v-2q44 -3 71 -17t42 -37.5t20 -54.5t5 -68v-75q0 -31 5 -52.5t19 -43.5h-48q-8 16 -13 40.5
t-5 56.5v73q0 38 -6 68t-22 50.5t-44 31.5t-71 11h-154v-331h-42v714z" />
    <glyph glyph-name="S" unicode="S" horiz-adv-x="481" 
d="M77 183q0 -34 11 -63.5t31.5 -51t50.5 -34t69 -12.5q37 0 67.5 12.5t52 34.5t33.5 51.5t12 63.5q0 35 -9 59.5t-26 41.5t-41 29t-54 23l-81 28q-72 24 -108.5 63t-36.5 112q0 43 14 77.5t39.5 58.5t60.5 37t77 13q99 0 145 -52.5t46 -141.5h-42q0 72 -34.5 116t-110.5 44
q-30 0 -57.5 -7.5t-49 -25t-34 -45.5t-12.5 -70q0 -59 29 -90.5t76 -47.5l106 -37q34 -12 61 -27t45.5 -36.5t28.5 -50.5t10 -68q0 -48 -16.5 -85t-44.5 -62.5t-66 -38.5t-80 -13q-62 0 -101.5 19t-62.5 47.5t-31.5 60.5t-8.5 58v47h42v-37z" />
    <glyph glyph-name="T" unicode="T" 
d="M192 676h-190v38h422v-38h-190v-676h-42v676z" />
    <glyph glyph-name="U" unicode="U" horiz-adv-x="500" 
d="M94 189q0 -75 36.5 -121t119.5 -46q78 0 117 46t39 121v525h42v-517q0 -60 -17 -100.5t-45 -64.5t-63.5 -34t-72.5 -10t-72.5 8.5t-63.5 32t-45 64t-17 104.5v517h42v-525z" />
    <glyph glyph-name="V" unicode="V" horiz-adv-x="444" 
d="M1 714h42l178 -666h2l178 666h42l-195 -714h-52z" />
    <glyph glyph-name="W" unicode="W" horiz-adv-x="704" 
d="M353 654h-2l-135 -654h-50l-155 714h42l137 -654h2l134 654h51l135 -654h2l137 654h42l-156 -714h-52z" />
    <glyph glyph-name="X" unicode="X" horiz-adv-x="463" 
d="M231 324l-178 -324h-45l202 363l-185 351h42l166 -309l168 309h42l-188 -351l200 -363h-46z" />
    <glyph glyph-name="Y" unicode="Y" horiz-adv-x="444" 
d="M201 294l-195 420h46l170 -376l174 376h42l-195 -420v-294h-42v294z" />
    <glyph glyph-name="Z" unicode="Z" horiz-adv-x="443" 
d="M17 42l363 634h-342v38h384v-42l-363 -634h367v-38h-409v42z" />
    <glyph glyph-name="bracketleft" unicode="[" horiz-adv-x="222" 
d="M82 714h134v-30h-100v-838h100v-30h-134v898z" />
    <glyph glyph-name="backslash" unicode="\" horiz-adv-x="278" 
d="M287 -12h-40l-256 738h40z" />
    <glyph glyph-name="bracketright" unicode="]" horiz-adv-x="222" 
d="M140 -184h-134v30h100v838h-100v30h134v-898z" />
    <glyph glyph-name="asciicircum" unicode="^" horiz-adv-x="600" 
d="M283 696h34l236 -453h-30l-223 427l-223 -427h-30z" />
    <glyph glyph-name="underscore" unicode="_" horiz-adv-x="500" 
d="M0 -125v50h500v-50h-500z" />
    <glyph glyph-name="grave" unicode="`" horiz-adv-x="148" 
d="M116 596h-33l-93 140h48z" />
    <glyph glyph-name="a" unicode="a" horiz-adv-x="389" 
d="M294 305h-2q-10 -16 -23.5 -21.5t-42.5 -13.5l-77 -21q-46 -13 -64.5 -40t-18.5 -75q0 -51 22.5 -81.5t73.5 -30.5q67 0 99.5 48t32.5 127v108zM332 63q0 -19 6.5 -27t16.5 -8q14 0 24 5v-30q-12 -9 -40 -9q-12 0 -28.5 13t-16.5 44v33h-2q-11 -42 -47 -69t-90 -27
q-35 0 -59.5 11.5t-40.5 31t-23.5 46.5t-7.5 57q0 60 24.5 94.5t81.5 49.5l113 31q34 9 42.5 26.5t8.5 50.5q0 36 -8 58t-21.5 35t-32 17.5t-39.5 4.5q-33 0 -55 -9.5t-35 -27t-18.5 -40.5t-5.5 -50h-38q0 27 6 55.5t22.5 52t45 38.5t74.5 15q43 0 71 -11t44 -30t22 -44
t6 -53v-334z" />
    <glyph glyph-name="b" unicode="b" 
d="M226 501q-72 0 -103.5 -58.5t-31.5 -179.5q0 -115 29 -178t99 -63q39 0 63.5 19t38.5 51.5t19.5 76.5t5.5 94q0 123 -27 180.5t-93 57.5zM53 714h38v-283h2q7 21 17.5 40t26 33t38 22.5t52.5 8.5q49 0 80.5 -21t49.5 -57.5t24.5 -86.5t6.5 -107q0 -61 -8.5 -111.5
t-27.5 -87t-50 -56.5t-77 -20q-55 0 -88.5 29.5t-43.5 83.5h-2v-101h-38v714z" />
    <glyph glyph-name="c" unicode="c" horiz-adv-x="389" 
d="M369 171q0 -18 -6.5 -49t-24 -61t-49 -51.5t-82.5 -21.5t-83.5 21t-51.5 58t-26.5 87.5t-7.5 109.5q0 130 42 200.5t134 70.5q48 0 77.5 -20t46 -47t22.5 -54t6 -41h-42q0 12 -4.5 33.5t-17 42.5t-34 36.5t-55.5 15.5q-73 0 -103 -62.5t-30 -176.5q0 -124 30 -182
t103 -58q36 0 58.5 18t34.5 42t16.5 49t4.5 40h42z" />
    <glyph glyph-name="d" unicode="d" 
d="M80 263q0 -50 5.5 -94t19.5 -76.5t38.5 -51.5t63.5 -19q70 0 99 63t29 178q0 129 -35 183.5t-95 54.5q-69 0 -97 -58.5t-28 -179.5zM335 101h-2q-10 -54 -43.5 -83.5t-88.5 -29.5q-46 0 -77 20t-50 56.5t-27.5 87t-8.5 111.5q0 60 7.5 110t26.5 86t51 56t80 20
q54 0 85 -31t45 -73h2v283h38v-714h-38v101z" />
    <glyph glyph-name="e" unicode="e" horiz-adv-x="407" 
d="M80 264q0 -32 2 -73.5t13.5 -79t36.5 -63.5t71 -26q41 0 66.5 18t39 42t18 49t4.5 40h38q0 -30 -8.5 -62.5t-28 -59t-50.5 -44t-75 -17.5q-51 0 -83.5 20t-51.5 57.5t-26.5 90.5t-7.5 120q0 120 43 189.5t132 69.5q46 0 77.5 -18.5t50.5 -53.5t27 -85.5t8 -113.5h-296z
M334 298q0 36 -4 72t-17 65t-37.5 47.5t-64.5 18.5q-44 0 -69.5 -22t-39.5 -54t-18 -67t-4 -60h254z" />
    <glyph glyph-name="f" unicode="f" horiz-adv-x="204" 
d="M79 489h-71v34h71v87q0 22 4.5 41.5t15 33t28.5 21.5t44 8q9 0 19 -0.5t20 -2.5v-34q-14 3 -33 3q-25 0 -42.5 -14t-17.5 -54v-89h87v-34h-87v-489h-38v489z" />
    <glyph glyph-name="g" unicode="g" 
d="M373 29q0 -48 -8 -87.5t-27.5 -67.5t-51.5 -43t-81 -15q-50 0 -78.5 16.5t-42.5 38.5t-17.5 43.5t-3.5 31.5h38q0 -42 25.5 -69t82.5 -27q67 0 96.5 39t29.5 121v96h-3q-6 -17 -15 -36t-24.5 -34.5t-39 -25.5t-58.5 -10q-47 0 -77 21t-48 57t-25 84t-7 102t6.5 103
t24.5 86.5t50 59.5t84 22q51 0 83 -26.5t47 -72.5h2v87h38v-494zM80 264q0 -50 6 -92.5t20.5 -73t39 -47.5t61.5 -17q36 0 60.5 17t39.5 48.5t21.5 75.5t6.5 97q0 229 -123 229q-32 0 -56.5 -12t-41 -40t-25.5 -73t-9 -112z" />
    <glyph glyph-name="h" unicode="h" horiz-adv-x="407" 
d="M51 714h38v-270h2q7 17 18.5 33.5t28 29t38 20.5t48.5 8q28 0 52 -8t42 -25.5t28 -44t10 -63.5v-394h-38v376q0 70 -27.5 97.5t-76.5 27.5q-30 0 -53.5 -13t-39 -35.5t-24 -53t-8.5 -64.5v-335h-38v714z" />
    <glyph glyph-name="i" unicode="i" horiz-adv-x="148" 
d="M55 714h38v-102h-38v102zM55 523h38v-523h-38v523z" />
    <glyph glyph-name="j" unicode="j" horiz-adv-x="148" 
d="M55 714h38v-102h-38v102zM-38 -142q7 -1 14 -1.5t14 -0.5q12 0 23.5 2.5t20.5 10t15 22t6 39.5v593h38v-589q0 -32 -7.5 -53.5t-20 -34.5t-30 -18.5t-37.5 -5.5q-9 0 -18 0.5t-18 1.5v34z" />
    <glyph glyph-name="k" unicode="k" horiz-adv-x="389" 
d="M51 714h38v-469h2l226 278h48l-162 -194l191 -329h-48l-170 295l-87 -103v-192h-38v714z" />
    <glyph glyph-name="l" unicode="l" horiz-adv-x="148" 
d="M55 714h38v-714h-38v714z" />
    <glyph glyph-name="m" unicode="m" horiz-adv-x="648" 
d="M57 523h38v-78h2q11 42 44 66t82 24q30 0 50.5 -8.5t33.5 -22.5t19.5 -31.5t9.5 -35.5h2q3 14 12 31t24.5 32t38 25t53.5 10q63 0 94 -35t31 -98v-402h-38v393q0 54 -24 81t-66 27q-60 0 -90 -42.5t-30 -111.5v-347h-38v375q0 60 -20.5 93t-71.5 33q-31 0 -53 -12.5
t-36.5 -33.5t-21.5 -49t-7 -59v-347h-38v523z" />
    <glyph glyph-name="n" unicode="n" horiz-adv-x="407" 
d="M51 523h38v-79h2q7 17 18.5 33.5t28 29t38 20.5t48.5 8q28 0 52 -8t42 -25.5t28 -44t10 -63.5v-394h-38v376q0 70 -27.5 97.5t-76.5 27.5q-30 0 -53.5 -13t-39 -35.5t-24 -53t-8.5 -64.5v-335h-38v523z" />
    <glyph glyph-name="o" unicode="o" 
d="M346 261q0 57 -6.5 101.5t-22.5 75t-41.5 47t-62.5 16.5q-38 0 -63 -16.5t-41 -47t-22.5 -75t-6.5 -101.5q0 -56 6.5 -100.5t22.5 -75.5t41 -47t63 -16q37 0 62.5 16t41.5 47t22.5 75.5t6.5 100.5zM388 262q0 -57 -7.5 -106.5t-27.5 -87t-54.5 -59t-88.5 -21.5
q-52 0 -85 21.5t-52.5 59t-27 87t-7.5 106.5q0 56 7.5 106t27.5 87t54.5 58.5t88.5 21.5q52 0 85 -21.5t52.5 -58.5t27 -87t7.5 -106z" />
    <glyph glyph-name="p" unicode="p" 
d="M91 263q0 -115 29 -178t99 -63q39 0 63.5 19t38.5 51.5t19.5 76.5t5.5 94q0 126 -33.5 182t-86.5 56q-72 0 -103.5 -58.5t-31.5 -179.5zM53 523h38v-92h2q7 21 17.5 40t26 33t38 22.5t52.5 8.5q46 0 77 -21t50 -57.5t26.5 -86.5t7.5 -107q0 -61 -8.5 -111.5t-27.5 -87
t-50 -56.5t-77 -20q-55 0 -88.5 29.5t-43.5 83.5h-2v-277h-38v699z" />
    <glyph glyph-name="q" unicode="q" 
d="M80 263q0 -50 5.5 -94t19.5 -76.5t38.5 -51.5t63.5 -19q70 0 99 63t29 178q0 121 -32 179.5t-98 58.5q-61 0 -93 -57t-32 -181zM335 101h-2q-10 -54 -43.5 -83.5t-88.5 -29.5q-46 0 -77 20t-50 56.5t-27.5 87t-8.5 111.5q0 57 7.5 107t26 86.5t50.5 57.5t81 21
q28 0 49.5 -8.5t37 -22.5t26 -33t17.5 -40h2v92h38v-699h-38v277z" />
    <glyph glyph-name="r" unicode="r" horiz-adv-x="241" 
d="M51 523h38v-91h2q14 45 46.5 74t84.5 29h22v-34h-22q-33 0 -58 -14.5t-41.5 -38t-25 -54t-8.5 -62.5v-332h-38v523z" />
    <glyph glyph-name="s" unicode="s" horiz-adv-x="352" 
d="M275 376v15q0 18 -3 37t-13.5 35.5t-30 27t-51.5 10.5q-41 0 -71 -22.5t-30 -74.5q0 -42 19.5 -65t58.5 -38l80 -30q48 -18 71.5 -51.5t23.5 -87.5q0 -33 -12 -59.5t-32.5 -45.5t-48 -29t-58.5 -10q-54 0 -85 17t-46.5 42.5t-19.5 54t-4 51.5v14h38v-17q0 -28 6 -51.5
t20 -40.5t36 -26.5t55 -9.5q29 0 49.5 9t34 24t19.5 34.5t6 41.5q0 38 -16.5 64t-61.5 43l-77 31q-49 20 -73.5 50t-24.5 81q0 66 40 100.5t103 34.5q43 0 70 -13.5t41.5 -34t19.5 -46t5 -49.5v-16h-38z" />
    <glyph glyph-name="t" unicode="t" horiz-adv-x="204" 
d="M8 523h71v155h38v-155h87v-34h-87v-403q0 -38 14.5 -48t31.5 -10q12 0 23 1t24 5v-34q-29 -6 -54 -6q-42 0 -59.5 22.5t-17.5 65.5v407h-71v34z" />
    <glyph glyph-name="u" unicode="u" horiz-adv-x="407" 
d="M356 0h-38v79h-2q-7 -17 -18.5 -33.5t-28 -29.5t-38 -20.5t-48.5 -7.5q-28 0 -52 8t-42 25.5t-28 44t-10 63.5v394h38v-376q0 -70 27.5 -97.5t76.5 -27.5q30 0 53.5 13t39 35.5t24 52.5t8.5 65v335h38v-523z" />
    <glyph glyph-name="v" unicode="v" horiz-adv-x="352" 
d="M156 0l-147 523h42l127 -475h2l121 475h42l-142 -523h-45z" />
    <glyph glyph-name="w" unicode="w" horiz-adv-x="537" 
d="M271 469h-2l-103 -469h-48l-112 523h42l93 -469h2l103 469h48l99 -469h2l94 469h42l-113 -523h-48z" />
    <glyph glyph-name="x" unicode="x" horiz-adv-x="352" 
d="M154 269l-134 254h47l110 -222l113 222h42l-133 -254l140 -269h-47l-117 236l-120 -236h-42z" />
    <glyph glyph-name="y" unicode="y" horiz-adv-x="352" 
d="M301 523h42l-143 -529l-19 -72q-15 -54 -42.5 -76t-73.5 -22q-10 0 -19.5 0.5t-19.5 1.5v34q11 -1 17.5 -1.5t15.5 -0.5q18 0 31.5 3t23.5 12t18 25t15 42l16 55l-154 528h42l132 -469h2z" />
    <glyph glyph-name="z" unicode="z" horiz-adv-x="334" 
d="M15 34l259 455h-245v34h287v-34l-259 -455h262v-34h-304v34z" />
    <glyph glyph-name="braceleft" unicode="{" horiz-adv-x="222" 
d="M29 280q21 0 34.5 13t22 34t11.5 47.5t3 53.5v168q0 68 22.5 93t64.5 25h49v-30h-51q-29 0 -40 -21.5t-11 -66.5v-166q0 -52 -8.5 -83.5t-20 -49t-23.5 -24t-19 -7.5v-2q7 -2 19 -8t23.5 -23t20 -48.5t8.5 -83.5v-167q0 -45 11 -66.5t40 -21.5h51v-30h-49q-42 0 -64.5 25
t-22.5 93v168q0 27 -3 53.5t-11.5 47.5t-22 34t-34.5 13v30z" />
    <glyph glyph-name="bar" unicode="|" horiz-adv-x="222" 
d="M92 726h38v-738h-38v738z" />
    <glyph glyph-name="braceright" unicode="}" horiz-adv-x="222" 
d="M193 250q-21 0 -34.5 -13t-22 -34t-11.5 -47.5t-3 -53.5v-168q0 -68 -22.5 -93t-64.5 -25h-49v30h51q29 0 40 21.5t11 66.5v166q0 52 8.5 83.5t20 49t23.5 23.5t19 8v2q-7 1 -19 7.5t-23.5 23.5t-20 48.5t-8.5 83.5v167q0 45 -11 66.5t-40 21.5h-51v30h49q42 0 64.5 -25
t22.5 -93v-168q0 -27 3 -53.5t11.5 -47.5t22 -34t34.5 -13v-30z" />
    <glyph glyph-name="asciitilde" unicode="~" horiz-adv-x="600" 
d="M72 221q11 17 22 32t25 26.5t32 18t43 6.5q29 0 56.5 -10.5t53.5 -23.5t52 -23.5t56 -10.5q18 0 32 7.5t25.5 18t20 23t15.5 22.5l23 -22q-11 -17 -22 -32t-25 -26.5t-32 -18t-43 -6.5q-29 0 -56.5 10.5t-53.5 23.5t-52 23.5t-56 10.5q-18 0 -32.5 -7.5t-25.5 -18
t-19.5 -23t-15.5 -22.5z" />
    <glyph glyph-name="Euro" unicode="&#x20ac;" horiz-adv-x="480" 
d="M460 574q-11 26 -26.5 44t-31.5 29q-26 17 -52 22t-46 5q-32 0 -61.5 -8.5t-55.5 -34.5q-18 -19 -30 -44.5t-19 -53.5t-10.5 -56.5t-4.5 -52.5h279l-14 -34h-267q-2 -41 0 -82h235l-14 -34h-220q4 -92 25.5 -140.5t47.5 -71.5q23 -22 50.5 -31t61.5 -9q25 0 48 5.5
t46 19.5q27 16 43.5 34.5t25.5 34.5v-60q-28 -31 -63 -46q-30 -14 -59.5 -18t-45.5 -4q-39 0 -72.5 8.5t-65.5 38.5q-11 9 -25 26.5t-26.5 46t-22 69t-10.5 97.5h-76l14 34h61q-1 39 0 82h-75l14 34h63q4 70 21 129.5t56 101.5q33 34 69.5 43.5t74.5 9.5q28 0 61 -5t62 -25
q35 -23 55 -60z" />
    <glyph glyph-name="quotesinglbase" unicode="&#x201a;" horiz-adv-x="184" 
d="M117 2q0 -30 -3.5 -50.5t-10.5 -35t-18 -25t-26 -19.5v34q19 14 23.5 37.5t4.5 56.5h-12v102h42v-100z" />
    <glyph glyph-name="florin" unicode="&#x192;" horiz-adv-x="480" 
d="M132 440h103l24 111q7 32 16.5 61.5t26 52t42 36t64.5 13.5q16 0 29.5 -2t20.5 -4l-8 -34q-7 2 -19 4t-24 2q-36 0 -63 -24.5t-40 -87.5l-27 -128h113l-7 -34h-112l-89 -451q-13 -66 -51 -98.5t-95 -32.5q-14 0 -23.5 2t-20.5 5l7 35q19 -8 36 -8q50 0 73.5 29t35.5 90
l85 429h-103z" />
    <glyph glyph-name="quotedblbase" unicode="&#x201e;" horiz-adv-x="296" 
d="M229 2q0 -30 -3.5 -50.5t-10.5 -35t-18 -25t-26 -19.5v34q19 14 23.5 37.5t4.5 56.5h-12v102h42v-100zM117 2q0 -30 -3.5 -50.5t-10.5 -35t-18 -25t-26 -19.5v34q19 14 23.5 37.5t4.5 56.5h-12v102h42v-100z" />
    <glyph glyph-name="ellipsis" unicode="&#x2026;" horiz-adv-x="1000" 
d="M812 102h42v-102h-42v102zM479 102h42v-102h-42v102zM146 102h42v-102h-42v102z" />
    <glyph glyph-name="dagger" unicode="&#x2020;" horiz-adv-x="480" 
d="M221 -151v600h-180v34h180v231h38v-231h180v-34h-180v-600h-38z" />
    <glyph glyph-name="daggerdbl" unicode="&#x2021;" horiz-adv-x="480" 
d="M221 -151v217h-180v34h180v369h-180v34h180v211h38v-211h180v-34h-180v-369h180v-34h-180v-217h-38z" />
    <glyph glyph-name="circumflex" unicode="&#x2c6;" horiz-adv-x="148" 
d="M53 736h42l94 -140h-42l-73 110l-73 -110h-42z" />
    <glyph glyph-name="perthousand" unicode="&#x2030;" horiz-adv-x="963" 
d="M577 165q0 44 -6 72.5t-17.5 45t-28 23t-36.5 6.5q-17 0 -33 -6.5t-28 -23t-19.5 -45t-7.5 -72.5t6 -72.5t17.5 -45t28 -23t36.5 -6.5q19 0 35 6.5t27.5 23t18 45t7.5 72.5zM367 165q0 87 29 132t93 45q36 0 59.5 -11.5t37.5 -34t19.5 -55.5t5.5 -76q0 -177 -122 -177
q-36 0 -60 11.5t-37.5 34t-19 55.5t-5.5 76zM48 531q0 87 29 132t93 45q36 0 59.5 -11.5t37.5 -34t19.5 -55.5t5.5 -76q0 -177 -122 -177q-36 0 -60 11.5t-37.5 34t-19 55.5t-5.5 76zM671 165q0 87 29 132t93 45q36 0 59.5 -11.5t37.5 -34t19.5 -55.5t5.5 -76
q0 -177 -122 -177q-36 0 -60 11.5t-37.5 34t-19 55.5t-5.5 76zM258 531q0 44 -6 72.5t-17.5 45t-28 23t-36.5 6.5q-17 0 -33 -6.5t-28 -23t-19.5 -45t-7.5 -72.5t6 -72.5t17.5 -45t28 -23t36.5 -6.5q19 0 35 6.5t27.5 23t18 45t7.5 72.5zM462 708h34l-303 -720h-34zM881 165
q0 44 -6 72.5t-17.5 45t-28 23t-36.5 6.5q-17 0 -33 -6.5t-28 -23t-19.5 -45t-7.5 -72.5t6 -72.5t17.5 -45t28 -23t36.5 -6.5q19 0 35 6.5t27.5 23t18 45t7.5 72.5z" />
    <glyph glyph-name="Scaron" unicode="&#x160;" horiz-adv-x="481" 
d="M77 183q0 -34 11 -63.5t31.5 -51t50.5 -34t69 -12.5q37 0 67.5 12.5t52 34.5t33.5 51.5t12 63.5q0 35 -9 59.5t-26 41.5t-41 29t-54 23l-81 28q-72 24 -108.5 63t-36.5 112q0 43 14 77.5t39.5 58.5t60.5 37t77 13q99 0 145 -52.5t46 -141.5h-42q0 72 -34.5 116t-110.5 44
q-30 0 -57.5 -7.5t-49 -25t-34 -45.5t-12.5 -70q0 -59 29 -90.5t76 -47.5l106 -37q34 -12 61 -27t45.5 -36.5t28.5 -50.5t10 -68q0 -48 -16.5 -85t-44.5 -62.5t-66 -38.5t-80 -13q-62 0 -101.5 19t-62.5 47.5t-31.5 60.5t-8.5 58v47h42v-37zM129 910h42l73 -110l73 110h42
l-94 -140h-42z" />
    <glyph glyph-name="guilsinglleft" unicode="&#x2039;" horiz-adv-x="222" 
d="M54 251v38l114 139v-50l-84 -108l84 -104v-50z" />
    <glyph glyph-name="OE" unicode="&#x152;" horiz-adv-x="778" 
d="M418 539q0 79 -33.5 116t-106.5 37q-52 0 -87.5 -23t-57.5 -66t-31.5 -105.5t-9.5 -140.5t9.5 -140.5t31.5 -105.5t57.5 -66t87.5 -23q73 0 106.5 37t33.5 116v364zM758 38v-38h-340v60h-2q-21 -42 -57.5 -57t-87.5 -15q-61 0 -103 25.5t-68.5 73.5t-38 116t-11.5 154
q0 85 11.5 153.5t38 116.5t68.5 73.5t103 25.5q39 0 66 -9t43.5 -20t25 -22t10.5 -15h2v54h327v-38h-285v-285h264v-38h-264v-315h298z" />
    <glyph glyph-name="Zcaron" unicode="&#x17d;" horiz-adv-x="443" 
d="M17 42l363 634h-342v38h384v-42l-363 -634h367v-38h-409v42zM113 910h42l73 -110l73 110h42l-94 -140h-42z" />
    <glyph glyph-name="quoteleft" unicode="&#x2018;" horiz-adv-x="184" 
d="M67 584q0 29 3.5 49.5t10.5 35.5t18 25.5t26 19.5v-34q-19 -14 -23.5 -37.5t-4.5 -56.5h12v-102h-42v100z" />
    <glyph glyph-name="quoteright" unicode="&#x2019;" horiz-adv-x="184" 
d="M117 614q0 -30 -3.5 -50.5t-10.5 -35t-18 -25t-26 -19.5v34q19 14 23.5 37.5t4.5 56.5h-12v102h42v-100z" />
    <glyph glyph-name="quotedblleft" unicode="&#x201c;" horiz-adv-x="296" 
d="M67 584q0 29 3.5 49.5t10.5 35.5t18 25.5t26 19.5v-34q-19 -14 -23.5 -37.5t-4.5 -56.5h12v-102h-42v100zM179 584q0 29 3.5 49.5t10.5 35.5t18 25.5t26 19.5v-34q-19 -14 -23.5 -37.5t-4.5 -56.5h12v-102h-42v100z" />
    <glyph glyph-name="quotedblright" unicode="&#x201d;" horiz-adv-x="296" 
d="M229 614q0 -30 -3.5 -50.5t-10.5 -35t-18 -25t-26 -19.5v34q19 14 23.5 37.5t4.5 56.5h-12v102h42v-100zM117 614q0 -30 -3.5 -50.5t-10.5 -35t-18 -25t-26 -19.5v34q19 14 23.5 37.5t4.5 56.5h-12v102h42v-100z" />
    <glyph glyph-name="bullet" unicode="&#x2022;" horiz-adv-x="500" 
d="M72 357q0 37 14 69.5t38 56.5t56.5 38t69.5 14t69.5 -14t56.5 -38t38 -56.5t14 -69.5t-14 -69.5t-38 -56.5t-56.5 -38t-69.5 -14t-69.5 14t-56.5 38t-38 56.5t-14 69.5z" />
    <glyph glyph-name="endash" unicode="&#x2013;" horiz-adv-x="500" 
d="M0 289h500v-34h-500v34z" />
    <glyph glyph-name="emdash" unicode="&#x2014;" horiz-adv-x="1000" 
d="M0 289h1000v-34h-1000v34z" />
    <glyph glyph-name="tilde" unicode="&#x2dc;" horiz-adv-x="148" 
d="M196 711q0 -11 -3.5 -26t-11 -28.5t-21 -22.5t-32.5 -9q-18 -1 -32 7t-27 18t-24.5 18t-24.5 8q-12 0 -19.5 -6t-11.5 -14.5t-5.5 -18t-1.5 -16.5h-30q0 11 3.5 25.5t11 28t20.5 22.5t33 9q18 1 32.5 -7t26.5 -18q13 -10 24.5 -18t24.5 -8q12 0 19.5 6t11.5 15t5.5 18.5
t1.5 16.5h30z" />
    <glyph glyph-name="trademark" unicode="&#x2122;" horiz-adv-x="1000" 
d="M848 680h-2l-165 -378h-18l-165 378h-2v-378h-34v412h58l152 -348l154 348h56v-412h-34v378zM204 680h-142v34h318v-34h-142v-378h-34v378z" />
    <glyph glyph-name="scaron" unicode="&#x161;" horiz-adv-x="352" 
d="M275 376v15q0 18 -3 37t-13.5 35.5t-30 27t-51.5 10.5q-41 0 -71 -22.5t-30 -74.5q0 -42 19.5 -65t58.5 -38l80 -30q48 -18 71.5 -51.5t23.5 -87.5q0 -33 -12 -59.5t-32.5 -45.5t-48 -29t-58.5 -10q-54 0 -85 17t-46.5 42.5t-19.5 54t-4 51.5v14h38v-17q0 -28 6 -51.5
t20 -40.5t36 -26.5t55 -9.5q29 0 49.5 9t34 24t19.5 34.5t6 41.5q0 38 -16.5 64t-61.5 43l-77 31q-49 20 -73.5 50t-24.5 81q0 66 40 100.5t103 34.5q43 0 70 -13.5t41.5 -34t19.5 -46t5 -49.5v-16h-38zM64 736h42l73 -110l73 110h42l-94 -140h-42z" />
    <glyph glyph-name="guilsinglright" unicode="&#x203a;" horiz-adv-x="222" 
d="M54 166l84 108l-84 104v50l114 -135v-38l-114 -139v50z" />
    <glyph glyph-name="oe" unicode="&#x153;" horiz-adv-x="685" 
d="M605 298q0 43 -6.5 80.5t-20 64.5t-35 42.5t-52.5 15.5q-32 0 -54 -15.5t-35.5 -42.5t-20 -64.5t-6.5 -80.5h230zM80 262q0 -57 6.5 -101.5t22.5 -75t41 -47t63 -16.5t62 16.5t38 47.5t19 75.5t5 100.5q0 55 -5 99.5t-19 75.5t-38 47.5t-62 16.5q-71 0 -102 -63.5
t-31 -175.5zM375 264v-29q0 -39 4.5 -77t17 -68.5t34.5 -49t57 -18.5q36 0 58.5 18t34.5 42t16.5 49t4.5 40h38q0 -30 -8.5 -62.5t-27 -59t-47.5 -44t-70 -17.5q-30 0 -53 11t-39.5 29t-26.5 42t-13 50h-2q-2 -26 -11.5 -50t-27 -42t-43 -29t-58.5 -11q-52 0 -86 21
t-53.5 57.5t-27.5 86.5t-8 108t9 108t30 87t54.5 58t81.5 21q33 0 57.5 -11t42 -29t27.5 -42t13 -49h2q4 25 14.5 49t27.5 42t40.5 29t53.5 11q84 0 120 -72t36 -199h-272z" />
    <glyph glyph-name="zcaron" unicode="&#x17e;" horiz-adv-x="334" 
d="M15 34l259 455h-245v34h287v-34l-259 -455h262v-34h-304v34zM57 736h42l73 -110l73 110h42l-94 -140h-42z" />
    <glyph glyph-name="Ydieresis" unicode="&#x178;" horiz-adv-x="444" 
d="M201 294l-195 420h46l170 -376l174 376h42l-195 -420v-294h-42v294zM135 891h42v-102h-42v102zM269 891h42v-102h-42v102z" />
    <glyph glyph-name="uni00A0" unicode="&#xa0;" horiz-adv-x="240" 
 />
    <glyph glyph-name="exclamdown" unicode="&#xa1;" horiz-adv-x="222" 
d="M132 542v-96h-42v96h42zM126 360l6 -298v-234h-42v234l6 298h30z" />
    <glyph glyph-name="cent" unicode="&#xa2;" horiz-adv-x="480" 
d="M235 -12q-48 2 -79 24t-49 59t-25 86.5t-7 106.5q0 126 37.5 194.5t122.5 76.5v78h24v-78q45 -2 73 -22.5t44 -47t21.5 -53t5.5 -39.5h-42q0 12 -4.5 32.5t-16 41t-31 36.5t-50.5 18v-479q33 3 53.5 21.5t31.5 42t15 47.5t4 38h42q0 -18 -5.5 -47t-21.5 -58t-44.5 -51.5
t-74.5 -26.5v-91h-24v91zM235 501q-64 -8 -91 -70.5t-27 -168.5q0 -115 26 -174t92 -66v479z" />
    <glyph glyph-name="sterling" unicode="&#xa3;" horiz-adv-x="480" 
d="M28 368h87q-11 18 -23 37t-21.5 40t-16 43t-6.5 46q0 38 14.5 70t40.5 55t60.5 36t75.5 13q53 0 91 -17t62 -45.5t35.5 -66t11.5 -78.5h-42q0 37 -8.5 68.5t-28 54.5t-50 36.5t-73.5 13.5q-29 0 -55.5 -9.5t-47 -27t-32.5 -43t-12 -56.5q0 -22 6.5 -44.5t16.5 -44.5
t22 -42.5t22 -38.5h140v-34h-126q8 -20 13.5 -41t5.5 -49q0 -63 -35.5 -117.5t-86.5 -96.5l2 -2q18 12 39 21.5t44 9.5q18 0 37 -5t39 -13t39.5 -13.5t36.5 -5.5q21 0 41.5 7t38 16.5t31 19.5t21.5 16l19 -28q-32 -28 -69.5 -46.5t-79.5 -18.5q-21 0 -41.5 5.5t-40.5 13.5
t-41.5 13t-45.5 5q-29 0 -52.5 -11.5t-38.5 -22.5l-23 34q23 22 45.5 46t40 51t28 57.5t10.5 64.5q0 48 -19 90h-101v34z" />
    <glyph glyph-name="currency" unicode="&#xa4;" horiz-adv-x="480" 
d="M240 169q36 0 68 14t55.5 38t37.5 56.5t14 70.5q0 37 -14 70t-37.5 57t-55.5 38t-68 14t-68 -14t-55.5 -38t-37.5 -57t-14 -70q0 -38 14 -70.5t37.5 -56.5t55.5 -38t68 -14zM78 210q-24 26 -37.5 61t-13.5 77q0 40 13.5 75.5t37.5 63.5l-49 49l23 23l50 -49
q28 25 63.5 38t74.5 13q42 0 77 -13.5t61 -37.5l50 49l23 -23l-49 -49q51 -59 51 -139q0 -42 -13.5 -77t-37.5 -61l49 -50l-23 -23l-50 49q-28 -25 -63.5 -38t-74.5 -13t-74.5 13t-63.5 38l-50 -49l-23 23z" />
    <glyph glyph-name="yen" unicode="&#xa5;" horiz-adv-x="480" 
d="M219 171h-135v34h135v82h-135v34h118l-178 375h46l170 -367l174 367h42l-178 -375h126v-34h-143v-82h143v-34h-143v-171h-42v171z" />
    <glyph glyph-name="brokenbar" unicode="&#xa6;" horiz-adv-x="222" 
d="M92 726h38v-266h-38v266zM92 254h38v-266h-38v266z" />
    <glyph glyph-name="section" unicode="&#xa7;" horiz-adv-x="481" 
d="M120 20v-15q0 -54 30.5 -88t90.5 -34q57 0 89.5 27.5t32.5 75.5q0 23 -9.5 42t-24.5 35.5t-34.5 30.5t-39.5 28l-142 95q-38 25 -56.5 53.5t-18.5 68.5q0 45 27 82.5t79 62.5q-23 20 -40.5 43t-17.5 62q0 33 13 59t35.5 43t51.5 26t62 9q42 0 71 -13t48 -33.5t27.5 -45.5
t8.5 -48v-6h-42v6q0 19 -6.5 38t-20.5 34t-35 24.5t-51 9.5q-32 0 -54.5 -8.5t-37 -23t-21.5 -33t-7 -38.5q0 -35 22.5 -58t64.5 -51l153 -103q42 -28 58.5 -60t16.5 -71q0 -45 -25.5 -78.5t-77.5 -60.5q34 -28 49.5 -56t15.5 -64q0 -26 -9.5 -50.5t-29.5 -44t-50.5 -31.5
t-72.5 -12q-43 0 -74 13t-51.5 34t-30 47.5t-9.5 54.5v22h42zM313 127q15 8 31 18.5t28.5 24.5t20.5 32t8 42q0 38 -17 63.5t-47 45.5l-166 111q-15 -8 -31.5 -19t-29.5 -26t-21.5 -34.5t-8.5 -44.5q0 -20 8.5 -37t22.5 -31t31.5 -26.5t34.5 -24.5z" />
    <glyph glyph-name="dieresis" unicode="&#xa8;" horiz-adv-x="148" 
d="M-14 717h42v-102h-42v102zM120 717h42v-102h-42v102z" />
    <glyph glyph-name="copyright" unicode="&#xa9;" horiz-adv-x="800" 
d="M69 357q0 -69 26 -129t71 -105t105 -71t129 -26t129 26t105 71t71 105t26 129t-26 129t-71 105t-105 71t-129 26t-129 -26t-105 -71t-71 -105t-26 -129zM31 357q0 76 29 143.5t79 117.5t117 79t144 29q76 0 143.5 -29t117.5 -79t79 -117.5t29 -143.5q0 -77 -29 -144
t-79 -117t-117.5 -79t-143.5 -29q-77 0 -144 29t-117 79t-79 117t-29 144zM560 437q-11 58 -52.5 89.5t-107.5 31.5q-43 0 -75.5 -18t-54 -46.5t-32.5 -64t-11 -71.5q0 -42 12 -79t34.5 -64.5t54.5 -43.5t72 -16q69 0 107.5 35t52.5 92h42q-11 -72 -64 -116.5t-138 -44.5
q-46 0 -85.5 15.5t-68 45.5t-45 74.5t-16.5 101.5q0 55 17 98.5t46.5 73.5t68.5 46t83 16q84 0 137 -38t65 -117h-42z" />
    <glyph glyph-name="ordfeminine" unicode="&#xaa;" horiz-adv-x="276" 
d="M193 567h-2q-8 -6 -19 -9.5t-22 -7.5l-51 -16q-27 -8 -37 -25.5t-10 -41.5q0 -25 14 -42.5t42 -17.5q42 0 63.5 27t21.5 63v70zM28 611q0 16 4 33t15 31t31 23.5t52 9.5q30 0 49 -6.5t29.5 -18.5t14.5 -27.5t4 -33.5v-198q0 -25 15 -25q8 0 16 3v-19q-9 -6 -24 -6
q-19 0 -30 8.5t-11 26.5v15h-2q-11 -20 -33.5 -35t-58.5 -15q-42 0 -61.5 25.5t-19.5 61.5q0 33 16.5 57t53.5 35l63 19q20 6 31 13.5t11 29.5q0 36 -17.5 48t-46.5 12q-24 0 -37 -7.5t-20 -18.5t-8.5 -22.5t-1.5 -18.5h-34z" />
    <glyph glyph-name="guillemotleft" unicode="&#xab;" horiz-adv-x="333" 
d="M52 251v38l114 139v-50l-84 -108l84 -104v-50zM167 251v38l114 139v-50l-84 -108l84 -104v-50z" />
    <glyph glyph-name="logicalnot" unicode="&#xac;" horiz-adv-x="600" 
d="M519 334h-472v34h506v-260h-34v226z" />
    <glyph glyph-name="uni00AD" unicode="&#xad;" horiz-adv-x="315" 
d="M63 289h189v-34h-189v34z" />
    <glyph glyph-name="registered" unicode="&#xae;" horiz-adv-x="800" 
d="M31 357q0 76 29 143.5t79 117.5t117 79t144 29q76 0 143.5 -29t117.5 -79t79 -117.5t29 -143.5q0 -77 -29 -144t-79 -117t-117.5 -79t-143.5 -29q-77 0 -144 29t-117 79t-79 117t-29 144zM69 357q0 -69 26 -129t71 -105t105 -71t129 -26t129 26t105 71t71 105t26 129
t-26 129t-71 105t-105 71t-129 26t-129 -26t-105 -71t-71 -105t-26 -129zM304 372h111q51 0 84.5 18.5t33.5 65.5q0 48 -30 67.5t-78 19.5h-121v-171zM262 577h168q145 0 145 -122q0 -28 -9.5 -48.5t-25 -34.5t-36 -22.5t-42.5 -12.5l130 -198h-45l-130 199h-113v-199h-42
v438z" />
    <glyph glyph-name="macron" unicode="&#xaf;" horiz-adv-x="148" 
d="M-34 681h216v-30h-216v30z" />
    <glyph glyph-name="degree" unicode="&#xb0;" horiz-adv-x="400" 
d="M91 565q0 -23 8.5 -42.5t23.5 -34.5t34.5 -23.5t42.5 -8.5q22 0 42 8.5t35 23.5t23.5 34.5t8.5 42.5q0 22 -8.5 42t-23.5 35t-35 23.5t-42 8.5q-23 0 -42.5 -8.5t-34.5 -23.5t-23.5 -35t-8.5 -42zM57 565q0 30 11 56t30.5 45.5t45.5 30.5t56 11t56 -11t45.5 -30.5
t30.5 -45.5t11 -56t-11 -56t-30.5 -45.5t-45.5 -30.5t-56 -11t-56 11t-45.5 30.5t-30.5 45.5t-11 56z" />
    <glyph glyph-name="plusminus" unicode="&#xb1;" horiz-adv-x="600" 
d="M47 34h506v-34h-506v34zM283 506h34v-192h236v-34h-236v-192h-34v192h-236v34h236v192z" />
    <glyph glyph-name="twosuperior" unicode="&#xb2;" horiz-adv-x="313" 
d="M30 280v15q0 33 15.5 69t59.5 68l68 49q35 26 55.5 51t20.5 59q0 42 -23.5 64.5t-63.5 22.5q-29 0 -47.5 -8.5t-30 -23t-16 -32.5t-4.5 -36h-34q0 55 32 92.5t99 37.5q20 0 41.5 -5t39.5 -17.5t29.5 -33.5t11.5 -53q0 -26 -6 -45.5t-17.5 -35.5t-27.5 -29.5t-36 -28.5
l-75 -55q-37 -27 -47 -52.5t-10 -42.5h219v-30h-253z" />
    <glyph glyph-name="threesuperior" unicode="&#xb3;" horiz-adv-x="313" 
d="M131 517h17q43 0 67 22.5t24 60.5q0 36 -22 57t-61 21q-24 0 -40.5 -7.5t-27 -20t-15.5 -27.5t-5 -30h-34q0 51 32 83t95 32q49 0 80.5 -27t31.5 -79q0 -35 -19 -63t-59 -34v-3q48 -6 70.5 -32.5t22.5 -68.5q0 -57 -34 -92.5t-98 -35.5q-36 0 -60.5 9.5t-40.5 26t-23 38
t-7 45.5h34q0 -15 5.5 -31t17 -29t29.5 -21t42 -8q19 0 37 6t32 18t23 30t9 43q0 42 -26 64.5t-80 22.5h-17v30z" />
    <glyph glyph-name="acute" unicode="&#xb4;" horiz-adv-x="148" 
d="M112 736h48l-93 -140h-33z" />
    <glyph glyph-name="mu" unicode="&#xb5;" horiz-adv-x="407" 
d="M356 0h-38v79h-2q-7 -17 -18.5 -33.5t-28 -29.5t-38 -20.5t-48.5 -7.5q-24 0 -47.5 10.5t-44.5 37.5h-2v-212h-38v699h38v-376q0 -70 27.5 -97.5t76.5 -27.5q30 0 53.5 13t39 35.5t24 52.5t8.5 65v335h38v-523z" />
    <glyph glyph-name="paragraph" unicode="&#xb6;" horiz-adv-x="600" 
d="M271 680q-35 0 -64.5 -10.5t-51.5 -31.5t-34.5 -51t-12.5 -69t12.5 -69t34.5 -51t51.5 -31.5t64.5 -10.5v324zM271 322q-43 0 -80.5 12.5t-65 37.5t-43.5 61.5t-16 84.5t16 84.5t45.5 61.5t70.5 37.5t91 12.5h187v-853h-38v819h-129v-819h-38v461z" />
    <glyph glyph-name="periodcentered" unicode="&#xb7;" horiz-adv-x="240" 
d="M69 330q0 21 15 36t36 15t36 -15t15 -36t-15 -36t-36 -15t-36 15t-15 36z" />
    <glyph glyph-name="cedilla" unicode="&#xb8;" horiz-adv-x="148" 
d="M103 0l-42 -59l2 -2q15 5 38 5q27 0 48 -18t21 -48q0 -12 -5.5 -25t-17.5 -24t-31 -18t-45 -7q-27 0 -48 5t-36 13l9 22q14 -7 36 -11.5t41 -4.5q29 0 46 11.5t17 37.5q0 23 -15.5 33t-38.5 10q-17 0 -30.5 -4.5t-22.5 -9.5l-10 12l54 82h30z" />
    <glyph glyph-name="onesuperior" unicode="&#xb9;" horiz-adv-x="313" 
d="M156 660q-16 -17 -47 -32.5t-63 -17.5v30q18 1 36 7.5t34 16t27.5 21t16.5 23.5h30v-428h-34v380z" />
    <glyph glyph-name="ordmasculine" unicode="&#xba;" horiz-adv-x="313" 
d="M74 543q0 -63 18 -99.5t64 -36.5t64.5 36.5t18.5 99.5t-18.5 99t-64.5 36t-64 -36t-18 -99zM157 377q-36 0 -58.5 12.5t-35.5 35t-18 52.5t-5 66q0 35 5 65.5t18 52.5t35.5 34.5t58.5 12.5q35 0 57.5 -12.5t35.5 -34.5t18 -52.5t5 -65.5q0 -36 -5 -66t-18 -52.5
t-35.5 -35t-57.5 -12.5z" />
    <glyph glyph-name="guillemotright" unicode="&#xbb;" horiz-adv-x="333" 
d="M167 166l84 108l-84 104v50l114 -135v-38l-114 -139v50zM52 166l84 108l-84 104v50l114 -135v-38l-114 -139v50z" />
    <glyph glyph-name="onequarter" unicode="&#xbc;" horiz-adv-x="721" 
d="M139 660q-16 -17 -47 -32.5t-63 -17.5v30q18 1 36 7.5t34 16t27.5 21t16.5 23.5h30v-428h-34v380zM555 728h34l-459 -760h-34zM599 108h-193v35l185 285h42v-290h59v-30h-59v-108h-34v108zM599 380h-2l-157 -242h159v242z" />
    <glyph glyph-name="onehalf" unicode="&#xbd;" horiz-adv-x="721" 
d="M439 0v15q0 33 15.5 69t59.5 68l68 49q35 26 55.5 51t20.5 59q0 42 -23.5 64.5t-63.5 22.5q-29 0 -47.5 -8.5t-30 -23t-16 -32.5t-4.5 -36h-34q0 55 32 92.5t99 37.5q20 0 41.5 -5t39.5 -17.5t29.5 -33.5t11.5 -53q0 -26 -6 -45.5t-17.5 -35.5t-27.5 -29.5t-36 -28.5
l-75 -55q-37 -27 -47 -52.5t-10 -42.5h219v-30h-253zM139 660q-16 -17 -47 -32.5t-63 -17.5v30q18 1 36 7.5t34 16t27.5 21t16.5 23.5h30v-428h-34v380zM544 728h34l-459 -760h-34z" />
    <glyph glyph-name="threequarters" unicode="&#xbe;" horiz-adv-x="721" 
d="M131 517h17q43 0 67 22.5t24 60.5q0 36 -22 57t-61 21q-24 0 -40.5 -7.5t-27 -20t-15.5 -27.5t-5 -30h-34q0 51 32 83t95 32q49 0 80.5 -27t31.5 -79q0 -35 -19 -63t-59 -34v-3q48 -6 70.5 -32.5t22.5 -68.5q0 -57 -34 -92.5t-98 -35.5q-36 0 -60.5 9.5t-40.5 26t-23 38
t-7 45.5h34q0 -15 5.5 -31t17 -29t29.5 -21t42 -8q19 0 37 6t32 18t23 30t9 43q0 42 -26 64.5t-80 22.5h-17v30zM590 728h34l-459 -760h-34zM599 108h-193v35l185 285h42v-290h59v-30h-59v-108h-34v108zM599 380h-2l-157 -242h159v242z" />
    <glyph glyph-name="questiondown" unicode="&#xbf;" 
d="M243 542v-96h-42v96h42zM243 309q0 -42 -12.5 -72t-30.5 -53.5t-40 -43t-40 -42t-30.5 -50t-12.5 -66.5q0 -63 35.5 -97.5t95.5 -34.5q40 0 67.5 15t43.5 39t23 54.5t7 61.5v13h42v-16q0 -33 -9 -68.5t-30.5 -65t-56.5 -48.5t-86 -19q-50 0 -83 15.5t-53.5 39.5t-29 53
t-8.5 56q0 45 12.5 76t30.5 54.5t40 42.5t40 40.5t30.5 48t12.5 65.5v52h42v-50z" />
    <glyph glyph-name="Agrave" unicode="&#xc0;" horiz-adv-x="481" 
d="M375 222h-269l-68 -222h-42l222 714h53l214 -714h-42zM244 672h-2l-126 -416h251zM266 770h-33l-93 140h48z" />
    <glyph glyph-name="Aacute" unicode="&#xc1;" horiz-adv-x="481" 
d="M375 222h-269l-68 -222h-42l222 714h53l214 -714h-42zM244 672h-2l-126 -416h251zM299 910h48l-93 -140h-33z" />
    <glyph glyph-name="Acircumflex" unicode="&#xc2;" horiz-adv-x="481" 
d="M375 222h-269l-68 -222h-42l222 714h53l214 -714h-42zM244 672h-2l-126 -416h251zM222 910h42l94 -140h-42l-73 110l-73 -110h-42z" />
    <glyph glyph-name="Atilde" unicode="&#xc3;" horiz-adv-x="481" 
d="M375 222h-269l-68 -222h-42l222 714h53l214 -714h-42zM244 672h-2l-126 -416h251zM364 885q0 -11 -3.5 -26t-11 -28.5t-21 -22.5t-32.5 -9q-18 -1 -32 7t-27 18t-24.5 18t-24.5 8q-12 0 -19.5 -6t-11.5 -14.5t-5.5 -18t-1.5 -16.5h-30q0 11 3.5 25.5t11 28t20.5 22.5
t33 9q18 1 32.5 -7t26.5 -18q13 -10 24.5 -18t24.5 -8q12 0 19.5 6t11.5 15t5.5 18.5t1.5 16.5h30z" />
    <glyph glyph-name="Adieresis" unicode="&#xc4;" horiz-adv-x="481" 
d="M375 222h-269l-68 -222h-42l222 714h53l214 -714h-42zM244 672h-2l-126 -416h251zM155 891h42v-102h-42v102zM289 891h42v-102h-42v102z" />
    <glyph glyph-name="Aring" unicode="&#xc5;" horiz-adv-x="481" 
d="M375 222h-269l-68 -222h-42l222 714h53l214 -714h-42zM244 672h-2l-126 -416h251zM186 832q0 -25 17 -42.5t42 -17.5t42 17.5t17 42.5t-17 42.5t-42 17.5t-42 -17.5t-17 -42.5zM156 832q0 37 25.5 62.5t63.5 25.5t63.5 -25.5t25.5 -62.5t-25.5 -62.5t-63.5 -25.5
t-63.5 25.5t-25.5 62.5z" />
    <glyph glyph-name="AE" unicode="&#xc6;" horiz-adv-x="704" 
d="M336 222h-202l-93 -222h-45l307 714h374v-38h-299v-285h279v-38h-279v-315h309v-38h-351v222zM336 256v420h-7l-181 -420h188z" />
    <glyph glyph-name="Ccedilla" unicode="&#xc7;" horiz-adv-x="500" 
d="M425 509q0 36 -9.5 69t-29 58.5t-49 40.5t-68.5 15q-53 0 -89.5 -24t-58.5 -67.5t-31.5 -105.5t-9.5 -137q0 -72 8.5 -133.5t29 -106.5t56 -70.5t89.5 -25.5q52 0 85 26t52 62t26.5 72.5t7.5 57.5h42q0 -24 -5 -55t-18 -62t-34 -60t-54 -48q-39 -26 -100 -27l-33 -47
l2 -2q15 5 38 5q27 0 48 -18t21 -48q0 -12 -5.5 -25t-17.5 -24t-31 -18t-45 -7q-27 0 -48 5t-36 13l9 22q14 -7 36 -11.5t41 -4.5q29 0 46 11.5t17 37.5q0 23 -15.5 33t-38.5 10q-17 0 -30.5 -4.5t-22.5 -9.5l-10 12l46 71q-46 5 -80 24q-62 38 -90 125t-28 218
q0 84 12.5 152.5t40 116.5t71 74.5t105.5 26.5q63 0 102 -24t60.5 -58t29.5 -71.5t8 -63.5h-42z" />
    <glyph glyph-name="Egrave" unicode="&#xc8;" 
d="M61 714h341v-38h-299v-285h279v-38h-279v-315h308v-38h-350v714zM263 770h-33l-93 140h48z" />
    <glyph glyph-name="Eacute" unicode="&#xc9;" 
d="M61 714h341v-38h-299v-285h279v-38h-279v-315h308v-38h-350v714zM286 910h48l-93 -140h-33z" />
    <glyph glyph-name="Ecircumflex" unicode="&#xca;" 
d="M61 714h341v-38h-299v-285h279v-38h-279v-315h308v-38h-350v714zM211 910h42l94 -140h-42l-73 110l-73 -110h-42z" />
    <glyph glyph-name="Edieresis" unicode="&#xcb;" 
d="M61 714h341v-38h-299v-285h279v-38h-279v-315h308v-38h-350v714zM145 891h42v-102h-42v102zM279 891h42v-102h-42v102z" />
    <glyph glyph-name="Igrave" unicode="&#xcc;" horiz-adv-x="164" 
d="M61 714h42v-714h-42v714zM104 770h-33l-93 140h48z" />
    <glyph glyph-name="Iacute" unicode="&#xcd;" horiz-adv-x="164" 
d="M61 714h42v-714h-42v714zM139 910h48l-93 -140h-33z" />
    <glyph glyph-name="Icircumflex" unicode="&#xce;" horiz-adv-x="164" 
d="M61 714h42v-714h-42v714zM60 910h42l94 -140h-42l-73 110l-73 -110h-42z" />
    <glyph glyph-name="Idieresis" unicode="&#xcf;" horiz-adv-x="164" 
d="M61 714h42v-714h-42v714zM-6 891h42v-102h-42v102zM128 891h42v-102h-42v102z" />
    <glyph glyph-name="Eth" unicode="&#xd0;" horiz-adv-x="519" 
d="M103 355v-321h121q114 0 164.5 79.5t50.5 243.5q0 82 -10.5 143t-35.5 101t-66.5 59.5t-102.5 19.5h-121v-289h180v-36h-180zM61 355h-60v36h60v323h163q57 0 104 -14.5t81 -54t53 -109t19 -179.5t-21 -179.5t-56.5 -109t-82 -54t-97.5 -14.5h-163v355z" />
    <glyph glyph-name="Ntilde" unicode="&#xd1;" horiz-adv-x="519" 
d="M110 714l311 -648h2v648h42v-714h-55l-312 648h-2v-648h-42v714h56zM387 885q0 -11 -3.5 -26t-11 -28.5t-21 -22.5t-32.5 -9q-18 -1 -32 7t-27 18t-24.5 18t-24.5 8q-12 0 -19.5 -6t-11.5 -14.5t-5.5 -18t-1.5 -16.5h-30q0 11 3.5 25.5t11 28t20.5 22.5t33 9
q18 1 32.5 -7t26.5 -18q13 -10 24.5 -18t24.5 -8q12 0 19.5 6t11.5 15t5.5 18.5t1.5 16.5h30z" />
    <glyph glyph-name="Ograve" unicode="&#xd2;" horiz-adv-x="537" 
d="M269 692q-53 0 -89 -25t-58 -69t-32 -106t-10 -135q0 -74 8.5 -135.5t30 -105.5t58 -69t92.5 -25q100 0 144 81.5t44 253.5q0 72 -9 133.5t-30.5 106.5t-58 70t-90.5 25zM269 726q53 0 95.5 -18.5t72.5 -62t46 -114t16 -174.5q0 -117 -21.5 -189.5t-55.5 -112.5
t-74.5 -53.5t-78.5 -13.5q-51 0 -93.5 18.5t-73 62t-47.5 114t-17 174.5t17.5 174.5t48.5 114t73 62t92 18.5zM301 770h-33l-93 140h48z" />
    <glyph glyph-name="Oacute" unicode="&#xd3;" horiz-adv-x="537" 
d="M269 692q-53 0 -89 -25t-58 -69t-32 -106t-10 -135q0 -74 8.5 -135.5t30 -105.5t58 -69t92.5 -25q100 0 144 81.5t44 253.5q0 72 -9 133.5t-30.5 106.5t-58 70t-90.5 25zM269 726q53 0 95.5 -18.5t72.5 -62t46 -114t16 -174.5q0 -117 -21.5 -189.5t-55.5 -112.5
t-74.5 -53.5t-78.5 -13.5q-51 0 -93.5 18.5t-73 62t-47.5 114t-17 174.5t17.5 174.5t48.5 114t73 62t92 18.5zM327 910h48l-93 -140h-33z" />
    <glyph glyph-name="Ocircumflex" unicode="&#xd4;" horiz-adv-x="537" 
d="M269 692q-53 0 -89 -25t-58 -69t-32 -106t-10 -135q0 -74 8.5 -135.5t30 -105.5t58 -69t92.5 -25q100 0 144 81.5t44 253.5q0 72 -9 133.5t-30.5 106.5t-58 70t-90.5 25zM269 726q53 0 95.5 -18.5t72.5 -62t46 -114t16 -174.5q0 -117 -21.5 -189.5t-55.5 -112.5
t-74.5 -53.5t-78.5 -13.5q-51 0 -93.5 18.5t-73 62t-47.5 114t-17 174.5t17.5 174.5t48.5 114t73 62t92 18.5zM248 910h42l94 -140h-42l-73 110l-73 -110h-42z" />
    <glyph glyph-name="Otilde" unicode="&#xd5;" horiz-adv-x="537" 
d="M269 692q-53 0 -89 -25t-58 -69t-32 -106t-10 -135q0 -74 8.5 -135.5t30 -105.5t58 -69t92.5 -25q100 0 144 81.5t44 253.5q0 72 -9 133.5t-30.5 106.5t-58 70t-90.5 25zM269 726q53 0 95.5 -18.5t72.5 -62t46 -114t16 -174.5q0 -117 -21.5 -189.5t-55.5 -112.5
t-74.5 -53.5t-78.5 -13.5q-51 0 -93.5 18.5t-73 62t-47.5 114t-17 174.5t17.5 174.5t48.5 114t73 62t92 18.5zM393 885q0 -11 -3.5 -26t-11 -28.5t-21 -22.5t-32.5 -9q-18 -1 -32 7t-27 18t-24.5 18t-24.5 8q-12 0 -19.5 -6t-11.5 -14.5t-5.5 -18t-1.5 -16.5h-30
q0 11 3.5 25.5t11 28t20.5 22.5t33 9q18 1 32.5 -7t26.5 -18q13 -10 24.5 -18t24.5 -8q12 0 19.5 6t11.5 15t5.5 18.5t1.5 16.5h30z" />
    <glyph glyph-name="Odieresis" unicode="&#xd6;" horiz-adv-x="537" 
d="M269 692q-53 0 -89 -25t-58 -69t-32 -106t-10 -135q0 -74 8.5 -135.5t30 -105.5t58 -69t92.5 -25q100 0 144 81.5t44 253.5q0 72 -9 133.5t-30.5 106.5t-58 70t-90.5 25zM269 726q53 0 95.5 -18.5t72.5 -62t46 -114t16 -174.5q0 -117 -21.5 -189.5t-55.5 -112.5
t-74.5 -53.5t-78.5 -13.5q-51 0 -93.5 18.5t-73 62t-47.5 114t-17 174.5t17.5 174.5t48.5 114t73 62t92 18.5zM181 891h42v-102h-42v102zM315 891h42v-102h-42v102z" />
    <glyph glyph-name="multiply" unicode="&#xd7;" horiz-adv-x="600" 
d="M103 35l-21 22l197 196l-197 197l21 21l197 -197l197 197l21 -21l-197 -197l197 -196l-21 -22l-197 197z" />
    <glyph glyph-name="Oslash" unicode="&#xd8;" horiz-adv-x="537" 
d="M123 45q-42 42 -63.5 116.5t-21.5 195.5q0 104 17.5 174.5t48.5 114t73 62t92 18.5q34 0 63.5 -7t53.5 -24l28 68l33 -12l-32 -79q42 -42 63 -117t21 -198q0 -117 -21.5 -189.5t-55.5 -112.5t-74.5 -53.5t-78.5 -13.5q-34 0 -63.5 8t-54.5 25l-30 -74l-33 12zM165 56
q40 -34 104 -34q100 0 144 81.5t44 253.5q0 88 -13.5 158.5t-45.5 113.5zM371 658q-40 34 -102 34q-53 0 -89 -25t-58 -69t-32 -106t-10 -135q0 -90 12.5 -159.5t46.5 -114.5z" />
    <glyph glyph-name="Ugrave" unicode="&#xd9;" horiz-adv-x="500" 
d="M94 189q0 -75 36.5 -121t119.5 -46q78 0 117 46t39 121v525h42v-517q0 -60 -17 -100.5t-45 -64.5t-63.5 -34t-72.5 -10t-72.5 8.5t-63.5 32t-45 64t-17 104.5v517h42v-525zM284 770h-33l-93 140h48z" />
    <glyph glyph-name="Uacute" unicode="&#xda;" horiz-adv-x="500" 
d="M94 189q0 -75 36.5 -121t119.5 -46q78 0 117 46t39 121v525h42v-517q0 -60 -17 -100.5t-45 -64.5t-63.5 -34t-72.5 -10t-72.5 8.5t-63.5 32t-45 64t-17 104.5v517h42v-525zM309 910h48l-93 -140h-33z" />
    <glyph glyph-name="Ucircumflex" unicode="&#xdb;" horiz-adv-x="500" 
d="M94 189q0 -75 36.5 -121t119.5 -46q78 0 117 46t39 121v525h42v-517q0 -60 -17 -100.5t-45 -64.5t-63.5 -34t-72.5 -10t-72.5 8.5t-63.5 32t-45 64t-17 104.5v517h42v-525zM229 910h42l94 -140h-42l-73 110l-73 -110h-42z" />
    <glyph glyph-name="Udieresis" unicode="&#xdc;" horiz-adv-x="500" 
d="M94 189q0 -75 36.5 -121t119.5 -46q78 0 117 46t39 121v525h42v-517q0 -60 -17 -100.5t-45 -64.5t-63.5 -34t-72.5 -10t-72.5 8.5t-63.5 32t-45 64t-17 104.5v517h42v-525zM164 891h42v-102h-42v102zM298 891h42v-102h-42v102z" />
    <glyph glyph-name="Yacute" unicode="&#xdd;" horiz-adv-x="444" 
d="M201 294l-195 420h46l170 -376l174 376h42l-195 -420v-294h-42v294zM282 910h48l-93 -140h-33z" />
    <glyph glyph-name="Thorn" unicode="&#xde;" horiz-adv-x="463" 
d="M241 212q32 0 60.5 9t50 28.5t34 51t12.5 75.5q0 78 -39 121t-112 43h-144v-328h138zM61 714h42v-140h143q63 -1 101 -21.5t58.5 -50t27.5 -64t7 -62.5q0 -91 -53 -144.5t-150 -53.5h-134v-178h-42v714z" />
    <glyph glyph-name="germandbls" unicode="&#xdf;" 
d="M51 540q0 85 42 129.5t120 44.5q72 0 111 -43.5t39 -115.5q0 -51 -23.5 -89.5t-77.5 -53.5v-2q60 -8 98 -54.5t38 -136.5q0 -50 -11 -91t-35.5 -70.5t-64.5 -46t-98 -17.5h-22v34h22q85 0 126 44t41 146q0 88 -38.5 130t-120.5 42h-25v34h26q24 0 46 6.5t39 21.5
t27.5 40.5t10.5 64.5q0 52 -27.5 87.5t-84.5 35.5q-27 0 -49 -7.5t-37.5 -24t-24.5 -43.5t-9 -66v-539h-38v540z" />
    <glyph glyph-name="agrave" unicode="&#xe0;" horiz-adv-x="389" 
d="M294 305h-2q-10 -16 -23.5 -21.5t-42.5 -13.5l-77 -21q-46 -13 -64.5 -40t-18.5 -75q0 -51 22.5 -81.5t73.5 -30.5q67 0 99.5 48t32.5 127v108zM332 63q0 -19 6.5 -27t16.5 -8q14 0 24 5v-30q-12 -9 -40 -9q-12 0 -28.5 13t-16.5 44v33h-2q-11 -42 -47 -69t-90 -27
q-35 0 -59.5 11.5t-40.5 31t-23.5 46.5t-7.5 57q0 60 24.5 94.5t81.5 49.5l113 31q34 9 42.5 26.5t8.5 50.5q0 36 -8 58t-21.5 35t-32 17.5t-39.5 4.5q-33 0 -55 -9.5t-35 -27t-18.5 -40.5t-5.5 -50h-38q0 27 6 55.5t22.5 52t45 38.5t74.5 15q43 0 71 -11t44 -30t22 -44
t6 -53v-334zM223 596h-33l-93 140h48z" />
    <glyph glyph-name="aacute" unicode="&#xe1;" horiz-adv-x="389" 
d="M294 305h-2q-10 -16 -23.5 -21.5t-42.5 -13.5l-77 -21q-46 -13 -64.5 -40t-18.5 -75q0 -51 22.5 -81.5t73.5 -30.5q67 0 99.5 48t32.5 127v108zM332 63q0 -19 6.5 -27t16.5 -8q14 0 24 5v-30q-12 -9 -40 -9q-12 0 -28.5 13t-16.5 44v33h-2q-11 -42 -47 -69t-90 -27
q-35 0 -59.5 11.5t-40.5 31t-23.5 46.5t-7.5 57q0 60 24.5 94.5t81.5 49.5l113 31q34 9 42.5 26.5t8.5 50.5q0 36 -8 58t-21.5 35t-32 17.5t-39.5 4.5q-33 0 -55 -9.5t-35 -27t-18.5 -40.5t-5.5 -50h-38q0 27 6 55.5t22.5 52t45 38.5t74.5 15q43 0 71 -11t44 -30t22 -44
t6 -53v-334zM250 736h48l-93 -140h-33z" />
    <glyph glyph-name="acircumflex" unicode="&#xe2;" horiz-adv-x="389" 
d="M294 305h-2q-10 -16 -23.5 -21.5t-42.5 -13.5l-77 -21q-46 -13 -64.5 -40t-18.5 -75q0 -51 22.5 -81.5t73.5 -30.5q67 0 99.5 48t32.5 127v108zM332 63q0 -19 6.5 -27t16.5 -8q14 0 24 5v-30q-12 -9 -40 -9q-12 0 -28.5 13t-16.5 44v33h-2q-11 -42 -47 -69t-90 -27
q-35 0 -59.5 11.5t-40.5 31t-23.5 46.5t-7.5 57q0 60 24.5 94.5t81.5 49.5l113 31q34 9 42.5 26.5t8.5 50.5q0 36 -8 58t-21.5 35t-32 17.5t-39.5 4.5q-33 0 -55 -9.5t-35 -27t-18.5 -40.5t-5.5 -50h-38q0 27 6 55.5t22.5 52t45 38.5t74.5 15q43 0 71 -11t44 -30t22 -44
t6 -53v-334zM171 736h42l94 -140h-42l-73 110l-73 -110h-42z" />
    <glyph glyph-name="atilde" unicode="&#xe3;" horiz-adv-x="389" 
d="M294 305h-2q-10 -16 -23.5 -21.5t-42.5 -13.5l-77 -21q-46 -13 -64.5 -40t-18.5 -75q0 -51 22.5 -81.5t73.5 -30.5q67 0 99.5 48t32.5 127v108zM332 63q0 -19 6.5 -27t16.5 -8q14 0 24 5v-30q-12 -9 -40 -9q-12 0 -28.5 13t-16.5 44v33h-2q-11 -42 -47 -69t-90 -27
q-35 0 -59.5 11.5t-40.5 31t-23.5 46.5t-7.5 57q0 60 24.5 94.5t81.5 49.5l113 31q34 9 42.5 26.5t8.5 50.5q0 36 -8 58t-21.5 35t-32 17.5t-39.5 4.5q-33 0 -55 -9.5t-35 -27t-18.5 -40.5t-5.5 -50h-38q0 27 6 55.5t22.5 52t45 38.5t74.5 15q43 0 71 -11t44 -30t22 -44
t6 -53v-334zM315 711q0 -11 -3.5 -26t-11 -28.5t-21 -22.5t-32.5 -9q-18 -1 -32 7t-27 18t-24.5 18t-24.5 8q-12 0 -19.5 -6t-11.5 -14.5t-5.5 -18t-1.5 -16.5h-30q0 11 3.5 25.5t11 28t20.5 22.5t33 9q18 1 32.5 -7t26.5 -18q13 -10 24.5 -18t24.5 -8q12 0 19.5 6t11.5 15
t5.5 18.5t1.5 16.5h30z" />
    <glyph glyph-name="adieresis" unicode="&#xe4;" horiz-adv-x="389" 
d="M294 305h-2q-10 -16 -23.5 -21.5t-42.5 -13.5l-77 -21q-46 -13 -64.5 -40t-18.5 -75q0 -51 22.5 -81.5t73.5 -30.5q67 0 99.5 48t32.5 127v108zM332 63q0 -19 6.5 -27t16.5 -8q14 0 24 5v-30q-12 -9 -40 -9q-12 0 -28.5 13t-16.5 44v33h-2q-11 -42 -47 -69t-90 -27
q-35 0 -59.5 11.5t-40.5 31t-23.5 46.5t-7.5 57q0 60 24.5 94.5t81.5 49.5l113 31q34 9 42.5 26.5t8.5 50.5q0 36 -8 58t-21.5 35t-32 17.5t-39.5 4.5q-33 0 -55 -9.5t-35 -27t-18.5 -40.5t-5.5 -50h-38q0 27 6 55.5t22.5 52t45 38.5t74.5 15q43 0 71 -11t44 -30t22 -44
t6 -53v-334zM106 717h42v-102h-42v102zM240 717h42v-102h-42v102z" />
    <glyph glyph-name="aring" unicode="&#xe5;" horiz-adv-x="389" 
d="M294 305h-2q-10 -16 -23.5 -21.5t-42.5 -13.5l-77 -21q-46 -13 -64.5 -40t-18.5 -75q0 -51 22.5 -81.5t73.5 -30.5q67 0 99.5 48t32.5 127v108zM332 63q0 -19 6.5 -27t16.5 -8q14 0 24 5v-30q-12 -9 -40 -9q-12 0 -28.5 13t-16.5 44v33h-2q-11 -42 -47 -69t-90 -27
q-35 0 -59.5 11.5t-40.5 31t-23.5 46.5t-7.5 57q0 60 24.5 94.5t81.5 49.5l113 31q34 9 42.5 26.5t8.5 50.5q0 36 -8 58t-21.5 35t-32 17.5t-39.5 4.5q-33 0 -55 -9.5t-35 -27t-18.5 -40.5t-5.5 -50h-38q0 27 6 55.5t22.5 52t45 38.5t74.5 15q43 0 71 -11t44 -30t22 -44
t6 -53v-334zM135 682q0 -25 17 -42.5t42 -17.5t42 17.5t17 42.5t-17 42.5t-42 17.5t-42 -17.5t-17 -42.5zM105 682q0 37 25.5 62.5t63.5 25.5t63.5 -25.5t25.5 -62.5t-25.5 -62.5t-63.5 -25.5t-63.5 25.5t-25.5 62.5z" />
    <glyph glyph-name="ae" unicode="&#xe6;" horiz-adv-x="612" 
d="M546 298q0 43 -6.5 80.5t-20 64.5t-35 42.5t-52.5 15.5q-32 0 -54 -15.5t-35.5 -42.5t-20 -64.5t-6.5 -80.5h230zM66 131q0 -49 22.5 -79t73.5 -30q55 0 85.5 44t30.5 116v107h-2q-17 -12 -61 -23l-66 -17q-45 -12 -64 -41t-19 -77zM41 374q0 26 6 54.5t22 52t44.5 39
t73.5 15.5q31 0 53 -8.5t36.5 -22t22.5 -29t11 -29.5h2q4 11 12 26.5t21.5 29.5t33 23.5t46.5 9.5q46 0 77.5 -18.5t50.5 -53.5t27 -85.5t8 -113.5h-272v-29q0 -39 4.5 -77t17 -68.5t34.5 -49t57 -18.5q36 0 58.5 18t34.5 42t16.5 49t4.5 40h38q0 -30 -8.5 -62.5t-27 -59
t-47.5 -44t-70 -17.5q-30 0 -52.5 11.5t-39 29t-26.5 39t-14 42.5h-2q-5 -21 -15 -43t-26.5 -39.5t-40.5 -28.5t-57 -11q-35 0 -59.5 11.5t-40.5 31t-23.5 46.5t-7.5 57q0 57 24.5 92t78.5 50l93 24q35 7 46.5 21t11.5 52v26q0 31 -7.5 51t-20 31.5t-29 15.5t-35.5 4
q-37 0 -58.5 -14.5t-32 -35t-13.5 -42t-3 -35.5h-38z" />
    <glyph glyph-name="ccedilla" unicode="&#xe7;" horiz-adv-x="389" 
d="M369 171q0 -14 -3.5 -35t-12.5 -44.5t-24.5 -45.5t-39.5 -37q-28 -19 -74 -21l-33 -47l2 -2q15 5 38 5q27 0 48 -18t21 -48q0 -12 -5.5 -25t-17.5 -24t-31 -18t-45 -7q-27 0 -48 5t-36 13l9 22q14 -7 36 -11.5t41 -4.5q29 0 46 11.5t17 37.5q0 23 -15.5 33t-38.5 10
q-17 0 -30.5 -4.5t-22.5 -9.5l-10 12l46 71q-39 5 -63 20q-49 32 -67 99t-18 156q0 130 42 200.5t134 70.5q48 0 77.5 -20t46 -47t22.5 -54t6 -41h-42q0 12 -4.5 33.5t-17 42.5t-34 36.5t-55.5 15.5q-73 0 -103 -62.5t-30 -176.5q0 -124 30 -182t103 -58q36 0 58.5 18
t34.5 42t16.5 49t4.5 40h42z" />
    <glyph glyph-name="egrave" unicode="&#xe8;" horiz-adv-x="407" 
d="M80 264q0 -32 2 -73.5t13.5 -79t36.5 -63.5t71 -26q41 0 66.5 18t39 42t18 49t4.5 40h38q0 -30 -8.5 -62.5t-28 -59t-50.5 -44t-75 -17.5q-51 0 -83.5 20t-51.5 57.5t-26.5 90.5t-7.5 120q0 120 43 189.5t132 69.5q46 0 77.5 -18.5t50.5 -53.5t27 -85.5t8 -113.5h-296z
M334 298q0 36 -4 72t-17 65t-37.5 47.5t-64.5 18.5q-44 0 -69.5 -22t-39.5 -54t-18 -67t-4 -60h254zM237 596h-33l-93 140h48z" />
    <glyph glyph-name="eacute" unicode="&#xe9;" horiz-adv-x="407" 
d="M80 264q0 -32 2 -73.5t13.5 -79t36.5 -63.5t71 -26q41 0 66.5 18t39 42t18 49t4.5 40h38q0 -30 -8.5 -62.5t-28 -59t-50.5 -44t-75 -17.5q-51 0 -83.5 20t-51.5 57.5t-26.5 90.5t-7.5 120q0 120 43 189.5t132 69.5q46 0 77.5 -18.5t50.5 -53.5t27 -85.5t8 -113.5h-296z
M334 298q0 36 -4 72t-17 65t-37.5 47.5t-64.5 18.5q-44 0 -69.5 -22t-39.5 -54t-18 -67t-4 -60h254zM272 736h48l-93 -140h-33z" />
    <glyph glyph-name="ecircumflex" unicode="&#xea;" horiz-adv-x="407" 
d="M80 264q0 -32 2 -73.5t13.5 -79t36.5 -63.5t71 -26q41 0 66.5 18t39 42t18 49t4.5 40h38q0 -30 -8.5 -62.5t-28 -59t-50.5 -44t-75 -17.5q-51 0 -83.5 20t-51.5 57.5t-26.5 90.5t-7.5 120q0 120 43 189.5t132 69.5q46 0 77.5 -18.5t50.5 -53.5t27 -85.5t8 -113.5h-296z
M334 298q0 36 -4 72t-17 65t-37.5 47.5t-64.5 18.5q-44 0 -69.5 -22t-39.5 -54t-18 -67t-4 -60h254zM192 736h42l94 -140h-42l-73 110l-73 -110h-42z" />
    <glyph glyph-name="edieresis" unicode="&#xeb;" horiz-adv-x="407" 
d="M80 264q0 -32 2 -73.5t13.5 -79t36.5 -63.5t71 -26q41 0 66.5 18t39 42t18 49t4.5 40h38q0 -30 -8.5 -62.5t-28 -59t-50.5 -44t-75 -17.5q-51 0 -83.5 20t-51.5 57.5t-26.5 90.5t-7.5 120q0 120 43 189.5t132 69.5q46 0 77.5 -18.5t50.5 -53.5t27 -85.5t8 -113.5h-296z
M334 298q0 36 -4 72t-17 65t-37.5 47.5t-64.5 18.5q-44 0 -69.5 -22t-39.5 -54t-18 -67t-4 -60h254zM124 717h42v-102h-42v102zM258 717h42v-102h-42v102z" />
    <glyph glyph-name="igrave" unicode="&#xec;" horiz-adv-x="148" 
d="M55 523h38v-523h-38v523zM94 596h-33l-93 140h48z" />
    <glyph glyph-name="iacute" unicode="&#xed;" horiz-adv-x="148" 
d="M55 523h38v-523h-38v523zM132 736h48l-93 -140h-33z" />
    <glyph glyph-name="icircumflex" unicode="&#xee;" horiz-adv-x="148" 
d="M55 523h38v-523h-38v523zM53 736h42l94 -140h-42l-73 110l-73 -110h-42z" />
    <glyph glyph-name="idieresis" unicode="&#xef;" horiz-adv-x="148" 
d="M55 523h38v-523h-38v523zM-14 717h42v-102h-42v102zM120 717h42v-102h-42v102z" />
    <glyph glyph-name="eth" unicode="&#xf0;" 
d="M190 689q-16 16 -38.5 31.5t-38.5 23.5l36 22q17 -8 37.5 -23t39.5 -33l80 48l26 -26l-81 -48q26 -28 50.5 -65.5t44 -88.5t31 -117.5t11.5 -151.5q0 -58 -7.5 -108t-27 -86.5t-53.5 -57.5t-86 -21q-53 0 -87.5 21t-54 57.5t-27 86.5t-7.5 108t7.5 108t27 87t54 58
t87.5 21q30 0 54 -9t42 -24l2 2q-5 19 -15.5 41.5t-24 44t-28 41t-28.5 32.5l-79 -47l-26 26zM80 262q0 -57 6.5 -101.5t22.5 -75t41 -47t63 -16.5q37 0 62.5 16.5t41.5 47t22.5 75t6.5 101.5q0 56 -6.5 100.5t-22.5 75t-41.5 47t-62.5 16.5q-38 0 -63 -16.5t-41 -47
t-22.5 -75t-6.5 -100.5z" />
    <glyph glyph-name="ntilde" unicode="&#xf1;" horiz-adv-x="407" 
d="M51 523h38v-79h2q7 17 18.5 33.5t28 29t38 20.5t48.5 8q28 0 52 -8t42 -25.5t28 -44t10 -63.5v-394h-38v376q0 70 -27.5 97.5t-76.5 27.5q-30 0 -53.5 -13t-39 -35.5t-24 -53t-8.5 -64.5v-335h-38v523zM324 711q0 -11 -3.5 -26t-11 -28.5t-21 -22.5t-32.5 -9
q-18 -1 -32 7t-27 18t-24.5 18t-24.5 8q-12 0 -19.5 -6t-11.5 -14.5t-5.5 -18t-1.5 -16.5h-30q0 11 3.5 25.5t11 28t20.5 22.5t33 9q18 1 32.5 -7t26.5 -18q13 -10 24.5 -18t24.5 -8q12 0 19.5 6t11.5 15t5.5 18.5t1.5 16.5h30z" />
    <glyph glyph-name="ograve" unicode="&#xf2;" 
d="M346 261q0 57 -6.5 101.5t-22.5 75t-41.5 47t-62.5 16.5q-38 0 -63 -16.5t-41 -47t-22.5 -75t-6.5 -101.5q0 -56 6.5 -100.5t22.5 -75.5t41 -47t63 -16q37 0 62.5 16t41.5 47t22.5 75.5t6.5 100.5zM388 262q0 -57 -7.5 -106.5t-27.5 -87t-54.5 -59t-88.5 -21.5
q-52 0 -85 21.5t-52.5 59t-27 87t-7.5 106.5q0 56 7.5 106t27.5 87t54.5 58.5t88.5 21.5q52 0 85 -21.5t52.5 -58.5t27 -87t7.5 -106zM245 596h-33l-93 140h48z" />
    <glyph glyph-name="oacute" unicode="&#xf3;" 
d="M346 261q0 57 -6.5 101.5t-22.5 75t-41.5 47t-62.5 16.5q-38 0 -63 -16.5t-41 -47t-22.5 -75t-6.5 -101.5q0 -56 6.5 -100.5t22.5 -75.5t41 -47t63 -16q37 0 62.5 16t41.5 47t22.5 75.5t6.5 100.5zM388 262q0 -57 -7.5 -106.5t-27.5 -87t-54.5 -59t-88.5 -21.5
q-52 0 -85 21.5t-52.5 59t-27 87t-7.5 106.5q0 56 7.5 106t27.5 87t54.5 58.5t88.5 21.5q52 0 85 -21.5t52.5 -58.5t27 -87t7.5 -106zM274 736h48l-93 -140h-33z" />
    <glyph glyph-name="ocircumflex" unicode="&#xf4;" 
d="M346 261q0 57 -6.5 101.5t-22.5 75t-41.5 47t-62.5 16.5q-38 0 -63 -16.5t-41 -47t-22.5 -75t-6.5 -101.5q0 -56 6.5 -100.5t22.5 -75.5t41 -47t63 -16q37 0 62.5 16t41.5 47t22.5 75.5t6.5 100.5zM388 262q0 -57 -7.5 -106.5t-27.5 -87t-54.5 -59t-88.5 -21.5
q-52 0 -85 21.5t-52.5 59t-27 87t-7.5 106.5q0 56 7.5 106t27.5 87t54.5 58.5t88.5 21.5q52 0 85 -21.5t52.5 -58.5t27 -87t7.5 -106zM194 736h42l94 -140h-42l-73 110l-73 -110h-42z" />
    <glyph glyph-name="otilde" unicode="&#xf5;" 
d="M346 261q0 57 -6.5 101.5t-22.5 75t-41.5 47t-62.5 16.5q-38 0 -63 -16.5t-41 -47t-22.5 -75t-6.5 -101.5q0 -56 6.5 -100.5t22.5 -75.5t41 -47t63 -16q37 0 62.5 16t41.5 47t22.5 75.5t6.5 100.5zM388 262q0 -57 -7.5 -106.5t-27.5 -87t-54.5 -59t-88.5 -21.5
q-52 0 -85 21.5t-52.5 59t-27 87t-7.5 106.5q0 56 7.5 106t27.5 87t54.5 58.5t88.5 21.5q52 0 85 -21.5t52.5 -58.5t27 -87t7.5 -106zM337 711q0 -11 -3.5 -26t-11 -28.5t-21 -22.5t-32.5 -9q-18 -1 -32 7t-27 18t-24.5 18t-24.5 8q-12 0 -19.5 -6t-11.5 -14.5t-5.5 -18
t-1.5 -16.5h-30q0 11 3.5 25.5t11 28t20.5 22.5t33 9q18 1 32.5 -7t26.5 -18q13 -10 24.5 -18t24.5 -8q12 0 19.5 6t11.5 15t5.5 18.5t1.5 16.5h30z" />
    <glyph glyph-name="odieresis" unicode="&#xf6;" 
d="M346 261q0 57 -6.5 101.5t-22.5 75t-41.5 47t-62.5 16.5q-38 0 -63 -16.5t-41 -47t-22.5 -75t-6.5 -101.5q0 -56 6.5 -100.5t22.5 -75.5t41 -47t63 -16q37 0 62.5 16t41.5 47t22.5 75.5t6.5 100.5zM388 262q0 -57 -7.5 -106.5t-27.5 -87t-54.5 -59t-88.5 -21.5
q-52 0 -85 21.5t-52.5 59t-27 87t-7.5 106.5q0 56 7.5 106t27.5 87t54.5 58.5t88.5 21.5q52 0 85 -21.5t52.5 -58.5t27 -87t7.5 -106zM127 717h42v-102h-42v102zM261 717h42v-102h-42v102z" />
    <glyph glyph-name="divide" unicode="&#xf7;" horiz-adv-x="600" 
d="M249 51q0 21 15 36t36 15t36 -15t15 -36t-15 -36t-36 -15t-36 15t-15 36zM249 455q0 21 15 36t36 15t36 -15t15 -36t-15 -36t-36 -15t-36 15t-15 36zM47 236v34h506v-34h-506z" />
    <glyph glyph-name="oslash" unicode="&#xf8;" 
d="M101 29q-37 36 -50 97t-13 136q0 56 7.5 106t27.5 87t54.5 58.5t88.5 21.5q52 0 84 -22l25 60l28 -10l-28 -69q37 -36 50 -96.5t13 -135.5q0 -57 -7.5 -106.5t-27.5 -87t-54.5 -59t-88.5 -21.5q-50 0 -84 22l-26 -63l-28 10zM285 477q-29 24 -72 24q-38 0 -63 -16.5
t-41 -47t-22.5 -75t-6.5 -101.5q0 -63 8.5 -111t29.5 -79zM141 46q27 -24 72 -24q37 0 62.5 16t41.5 47t22.5 75.5t6.5 100.5q0 64 -8.5 112t-29.5 79z" />
    <glyph glyph-name="ugrave" unicode="&#xf9;" horiz-adv-x="407" 
d="M356 0h-38v79h-2q-7 -17 -18.5 -33.5t-28 -29.5t-38 -20.5t-48.5 -7.5q-28 0 -52 8t-42 25.5t-28 44t-10 63.5v394h38v-376q0 -70 27.5 -97.5t76.5 -27.5q30 0 53.5 13t39 35.5t24 52.5t8.5 65v335h38v-523zM236 596h-33l-93 140h48z" />
    <glyph glyph-name="uacute" unicode="&#xfa;" horiz-adv-x="407" 
d="M356 0h-38v79h-2q-7 -17 -18.5 -33.5t-28 -29.5t-38 -20.5t-48.5 -7.5q-28 0 -52 8t-42 25.5t-28 44t-10 63.5v394h38v-376q0 -70 27.5 -97.5t76.5 -27.5q30 0 53.5 13t39 35.5t24 52.5t8.5 65v335h38v-523zM263 736h48l-93 -140h-33z" />
    <glyph glyph-name="ucircumflex" unicode="&#xfb;" horiz-adv-x="407" 
d="M356 0h-38v79h-2q-7 -17 -18.5 -33.5t-28 -29.5t-38 -20.5t-48.5 -7.5q-28 0 -52 8t-42 25.5t-28 44t-10 63.5v394h38v-376q0 -70 27.5 -97.5t76.5 -27.5q30 0 53.5 13t39 35.5t24 52.5t8.5 65v335h38v-523zM183 736h42l94 -140h-42l-73 110l-73 -110h-42z" />
    <glyph glyph-name="udieresis" unicode="&#xfc;" horiz-adv-x="407" 
d="M356 0h-38v79h-2q-7 -17 -18.5 -33.5t-28 -29.5t-38 -20.5t-48.5 -7.5q-28 0 -52 8t-42 25.5t-28 44t-10 63.5v394h38v-376q0 -70 27.5 -97.5t76.5 -27.5q30 0 53.5 13t39 35.5t24 52.5t8.5 65v335h38v-523zM116 717h42v-102h-42v102zM250 717h42v-102h-42v102z" />
    <glyph glyph-name="yacute" unicode="&#xfd;" horiz-adv-x="352" 
d="M301 523h42l-143 -529l-19 -72q-15 -54 -42.5 -76t-73.5 -22q-10 0 -19.5 0.5t-19.5 1.5v34q11 -1 17.5 -1.5t15.5 -0.5q18 0 31.5 3t23.5 12t18 25t15 42l16 55l-154 528h42l132 -469h2zM243 736h48l-93 -140h-33z" />
    <glyph glyph-name="thorn" unicode="&#xfe;" 
d="M91 263q0 -115 29 -178t99 -63q39 0 63.5 19t38.5 51.5t19.5 76.5t5.5 94q0 126 -33.5 182t-86.5 56q-72 0 -103.5 -58.5t-31.5 -179.5zM53 714h38v-283h2q7 21 17.5 40t26 33t38 22.5t52.5 8.5q46 0 77 -21t50 -57.5t26.5 -86.5t7.5 -107q0 -61 -8.5 -111.5t-27.5 -87
t-50 -56.5t-77 -20q-55 0 -88.5 29.5t-43.5 83.5h-2v-277h-38v890z" />
    <glyph glyph-name="ydieresis" unicode="&#xff;" horiz-adv-x="352" 
d="M301 523h42l-143 -529l-19 -72q-15 -54 -42.5 -76t-73.5 -22q-10 0 -19.5 0.5t-19.5 1.5v34q11 -1 17.5 -1.5t15.5 -0.5q18 0 31.5 3t23.5 12t18 25t15 42l16 55l-154 528h42l132 -469h2zM95 717h42v-102h-42v102zM229 717h42v-102h-42v102z" />
    <glyph glyph-name="commaaccent" horiz-adv-x="240" 
d="M94 -50h47v-85q0 -31 -14 -47t-38 -22v20q12 5 19 15t7 32h-21v87z" />
    <glyph glyph-name="dotlessj" horiz-adv-x="148" 
d="M-38 -142q7 -1 14 -1.5t14 -0.5q12 0 23.5 2.5t20.5 10t15 22t6 39.5v593h38v-589q0 -32 -7.5 -53.5t-20 -34.5t-30 -18.5t-37.5 -5.5q-9 0 -18 0.5t-18 1.5v34z" />
    <glyph glyph-name="dotaccent.cap" horiz-adv-x="148" 
d="M53 891h42v-102h-42v102z" />
    <glyph glyph-name="breve.cap" horiz-adv-x="148" 
d="M186 898q0 -16 -4.5 -36t-17.5 -38q-13 -17 -34.5 -29.5t-55.5 -12.5q-33 0 -55 12t-34.5 30t-17.5 38t-5 36h30q0 -36 21 -60q11 -12 26 -19t35 -7q42 0 62 25.5t20 60.5h30z" />
    <glyph glyph-name="circumflex.cap" horiz-adv-x="148" 
d="M53 910h42l94 -140h-42l-73 110l-73 -110h-42z" />
    <glyph glyph-name="ring.cap" horiz-adv-x="148" 
d="M15 832q0 -25 17 -42.5t42 -17.5t42 17.5t17 42.5t-17 42.5t-42 17.5t-42 -17.5t-17 -42.5zM-15 832q0 37 25.5 62.5t63.5 25.5t63.5 -25.5t25.5 -62.5t-25.5 -62.5t-63.5 -25.5t-63.5 25.5t-25.5 62.5z" />
    <glyph glyph-name="tilde.cap" horiz-adv-x="148" 
d="M196 885q0 -11 -3.5 -26t-11 -28.5t-21 -22.5t-32.5 -9q-18 -1 -32 7t-27 18t-24.5 18t-24.5 8q-12 0 -19.5 -6t-11.5 -14.5t-5.5 -18t-1.5 -16.5h-30q0 11 3.5 25.5t11 28t20.5 22.5t33 9q18 1 32.5 -7t26.5 -18q13 -10 24.5 -18t24.5 -8q12 0 19.5 6t11.5 15t5.5 18.5
t1.5 16.5h30z" />
    <glyph glyph-name="hungarumlaut.cap" horiz-adv-x="148" 
d="M176 910h48l-93 -140h-33zM42 910h48l-93 -140h-33z" />
    <glyph glyph-name="macron.cap" horiz-adv-x="148" 
d="M-34 855h216v-30h-216v30z" />
    <glyph glyph-name="commaaccent.alt" horiz-adv-x="240" 
d="M138 627h-47v85q0 31 14 47t38 22v-20q-12 -5 -19 -15t-7 -32h21v-87z" />
    <glyph glyph-name="grave.cap" horiz-adv-x="148" 
d="M116 770h-33l-93 140h48z" />
    <glyph glyph-name="acute.cap" horiz-adv-x="148" 
d="M112 910h48l-93 -140h-33z" />
    <glyph glyph-name="caron.cap" horiz-adv-x="148" 
d="M-41 910h42l73 -110l73 110h42l-94 -140h-42z" />
    <glyph glyph-name="dieresis.cap" horiz-adv-x="148" 
d="M-14 891h42v-102h-42v102zM120 891h42v-102h-42v102z" />
    <glyph glyph-name="caron.alt" horiz-adv-x="148" 
d="M88 714h47l-47 -140h-28z" />
    <glyph glyph-name="Amacron" unicode="&#x100;" horiz-adv-x="481" 
d="M375 222h-269l-68 -222h-42l222 714h53l214 -714h-42zM244 672h-2l-126 -416h251zM136 855h216v-30h-216v30z" />
    <glyph glyph-name="amacron" unicode="&#x101;" horiz-adv-x="389" 
d="M294 305h-2q-10 -16 -23.5 -21.5t-42.5 -13.5l-77 -21q-46 -13 -64.5 -40t-18.5 -75q0 -51 22.5 -81.5t73.5 -30.5q67 0 99.5 48t32.5 127v108zM332 63q0 -19 6.5 -27t16.5 -8q14 0 24 5v-30q-12 -9 -40 -9q-12 0 -28.5 13t-16.5 44v33h-2q-11 -42 -47 -69t-90 -27
q-35 0 -59.5 11.5t-40.5 31t-23.5 46.5t-7.5 57q0 60 24.5 94.5t81.5 49.5l113 31q34 9 42.5 26.5t8.5 50.5q0 36 -8 58t-21.5 35t-32 17.5t-39.5 4.5q-33 0 -55 -9.5t-35 -27t-18.5 -40.5t-5.5 -50h-38q0 27 6 55.5t22.5 52t45 38.5t74.5 15q43 0 71 -11t44 -30t22 -44
t6 -53v-334zM89 681h216v-30h-216v30z" />
    <glyph glyph-name="Abreve" unicode="&#x102;" horiz-adv-x="481" 
d="M375 222h-269l-68 -222h-42l222 714h53l214 -714h-42zM244 672h-2l-126 -416h251zM355 898q0 -16 -4.5 -36t-17.5 -38q-13 -17 -34.5 -29.5t-55.5 -12.5q-33 0 -55 12t-34.5 30t-17.5 38t-5 36h30q0 -36 21 -60q11 -12 26 -19t35 -7q42 0 62 25.5t20 60.5h30z" />
    <glyph glyph-name="abreve" unicode="&#x103;" horiz-adv-x="389" 
d="M294 305h-2q-10 -16 -23.5 -21.5t-42.5 -13.5l-77 -21q-46 -13 -64.5 -40t-18.5 -75q0 -51 22.5 -81.5t73.5 -30.5q67 0 99.5 48t32.5 127v108zM332 63q0 -19 6.5 -27t16.5 -8q14 0 24 5v-30q-12 -9 -40 -9q-12 0 -28.5 13t-16.5 44v33h-2q-11 -42 -47 -69t-90 -27
q-35 0 -59.5 11.5t-40.5 31t-23.5 46.5t-7.5 57q0 60 24.5 94.5t81.5 49.5l113 31q34 9 42.5 26.5t8.5 50.5q0 36 -8 58t-21.5 35t-32 17.5t-39.5 4.5q-33 0 -55 -9.5t-35 -27t-18.5 -40.5t-5.5 -50h-38q0 27 6 55.5t22.5 52t45 38.5t74.5 15q43 0 71 -11t44 -30t22 -44
t6 -53v-334zM305 724q0 -16 -4.5 -36t-17.5 -38q-13 -17 -34.5 -29.5t-55.5 -12.5q-33 0 -55 12t-34.5 30t-17.5 38t-5 36h30q0 -36 21 -60q11 -12 26 -19t35 -7q42 0 62 25.5t20 60.5h30z" />
    <glyph glyph-name="Aogonek" unicode="&#x104;" horiz-adv-x="481" 
d="M471 0q-45 -35 -65 -62t-20 -55q0 -26 13.5 -40.5t37.5 -14.5q27 0 46 16l10 -22q-26 -18 -64 -18q-34 0 -55.5 17.5t-21.5 55.5q0 32 24.5 64.5t66.5 58.5l-68 222h-269l-68 -222h-42l222 714h53l214 -714h-14zM244 672h-2l-126 -416h251z" />
    <glyph glyph-name="aogonek" unicode="&#x105;" horiz-adv-x="389" 
d="M332 63q0 -19 6.5 -27t16.5 -8q14 0 24 5v-30q-9 -6 -29 -8q-39 -32 -57 -57q-20 -28 -20 -55q0 -26 13.5 -40.5t37.5 -14.5q27 0 46 16l10 -22q-26 -18 -64 -18q-34 0 -55.5 17.5t-21.5 55.5q0 33 25 65q11 16 26.5 29.5t35.5 26.5q-9 2 -16 9q-16 13 -16 44v33h-2
q-11 -42 -47 -69t-90 -27q-35 0 -59.5 11.5t-40.5 31t-23.5 46.5t-7.5 57q0 60 24.5 94.5t81.5 49.5l113 31q34 9 42.5 26.5t8.5 50.5q0 36 -8 58t-21.5 35t-32 17.5t-39.5 4.5q-33 0 -55 -9.5t-35 -27t-18.5 -40.5t-5.5 -50h-38q0 27 6 55.5t22.5 52t45 38.5t74.5 15
q43 0 71 -11t44 -30t22 -44t6 -53v-334zM294 305h-2q-10 -16 -23.5 -21.5t-42.5 -13.5l-77 -21q-46 -13 -64.5 -40t-18.5 -75q0 -51 22.5 -81.5t73.5 -30.5q67 0 99.5 48t32.5 127v108z" />
    <glyph glyph-name="Cacute" unicode="&#x106;" horiz-adv-x="500" 
d="M425 509q0 36 -9.5 69t-29 58.5t-49 40.5t-68.5 15q-53 0 -89.5 -24t-58.5 -67.5t-31.5 -105.5t-9.5 -137q0 -72 8.5 -133.5t29 -106.5t56 -70.5t89.5 -25.5q52 0 85 26t52 62t26.5 72.5t7.5 57.5h42q0 -32 -9.5 -75t-34 -82.5t-67 -67t-109.5 -27.5q-58 0 -99.5 25
t-67.5 72.5t-38.5 115.5t-12.5 155q0 84 12.5 152.5t40 116.5t71 74.5t105.5 26.5q63 0 102 -24t60.5 -58t29.5 -71.5t8 -63.5h-42zM328 910h48l-93 -140h-33z" />
    <glyph glyph-name="cacute" unicode="&#x107;" horiz-adv-x="389" 
d="M369 171q0 -18 -6.5 -49t-24 -61t-49 -51.5t-82.5 -21.5t-83.5 21t-51.5 58t-26.5 87.5t-7.5 109.5q0 130 42 200.5t134 70.5q48 0 77.5 -20t46 -47t22.5 -54t6 -41h-42q0 12 -4.5 33.5t-17 42.5t-34 36.5t-55.5 15.5q-73 0 -103 -62.5t-30 -176.5q0 -124 30 -182
t103 -58q36 0 58.5 18t34.5 42t16.5 49t4.5 40h42zM275 736h48l-93 -140h-33z" />
    <glyph glyph-name="Ccircumflex" unicode="&#x108;" horiz-adv-x="500" 
d="M425 509q0 36 -9.5 69t-29 58.5t-49 40.5t-68.5 15q-53 0 -89.5 -24t-58.5 -67.5t-31.5 -105.5t-9.5 -137q0 -72 8.5 -133.5t29 -106.5t56 -70.5t89.5 -25.5q52 0 85 26t52 62t26.5 72.5t7.5 57.5h42q0 -32 -9.5 -75t-34 -82.5t-67 -67t-109.5 -27.5q-58 0 -99.5 25
t-67.5 72.5t-38.5 115.5t-12.5 155q0 84 12.5 152.5t40 116.5t71 74.5t105.5 26.5q63 0 102 -24t60.5 -58t29.5 -71.5t8 -63.5h-42zM246 910h42l94 -140h-42l-73 110l-73 -110h-42z" />
    <glyph glyph-name="ccircumflex" unicode="&#x109;" horiz-adv-x="389" 
d="M369 171q0 -18 -6.5 -49t-24 -61t-49 -51.5t-82.5 -21.5t-83.5 21t-51.5 58t-26.5 87.5t-7.5 109.5q0 130 42 200.5t134 70.5q48 0 77.5 -20t46 -47t22.5 -54t6 -41h-42q0 12 -4.5 33.5t-17 42.5t-34 36.5t-55.5 15.5q-73 0 -103 -62.5t-30 -176.5q0 -124 30 -182
t103 -58q36 0 58.5 18t34.5 42t16.5 49t4.5 40h42zM193 736h42l94 -140h-42l-73 110l-73 -110h-42z" />
    <glyph glyph-name="Cdotaccent" unicode="&#x10a;" horiz-adv-x="500" 
d="M425 509q0 36 -9.5 69t-29 58.5t-49 40.5t-68.5 15q-53 0 -89.5 -24t-58.5 -67.5t-31.5 -105.5t-9.5 -137q0 -72 8.5 -133.5t29 -106.5t56 -70.5t89.5 -25.5q52 0 85 26t52 62t26.5 72.5t7.5 57.5h42q0 -32 -9.5 -75t-34 -82.5t-67 -67t-109.5 -27.5q-58 0 -99.5 25
t-67.5 72.5t-38.5 115.5t-12.5 155q0 84 12.5 152.5t40 116.5t71 74.5t105.5 26.5q63 0 102 -24t60.5 -58t29.5 -71.5t8 -63.5h-42zM245 891h42v-102h-42v102z" />
    <glyph glyph-name="cdotaccent" unicode="&#x10b;" horiz-adv-x="389" 
d="M369 171q0 -18 -6.5 -49t-24 -61t-49 -51.5t-82.5 -21.5t-83.5 21t-51.5 58t-26.5 87.5t-7.5 109.5q0 130 42 200.5t134 70.5q48 0 77.5 -20t46 -47t22.5 -54t6 -41h-42q0 12 -4.5 33.5t-17 42.5t-34 36.5t-55.5 15.5q-73 0 -103 -62.5t-30 -176.5q0 -124 30 -182
t103 -58q36 0 58.5 18t34.5 42t16.5 49t4.5 40h42zM191 717h42v-102h-42v102z" />
    <glyph glyph-name="Ccaron" unicode="&#x10c;" horiz-adv-x="500" 
d="M425 509q0 36 -9.5 69t-29 58.5t-49 40.5t-68.5 15q-53 0 -89.5 -24t-58.5 -67.5t-31.5 -105.5t-9.5 -137q0 -72 8.5 -133.5t29 -106.5t56 -70.5t89.5 -25.5q52 0 85 26t52 62t26.5 72.5t7.5 57.5h42q0 -32 -9.5 -75t-34 -82.5t-67 -67t-109.5 -27.5q-58 0 -99.5 25
t-67.5 72.5t-38.5 115.5t-12.5 155q0 84 12.5 152.5t40 116.5t71 74.5t105.5 26.5q63 0 102 -24t60.5 -58t29.5 -71.5t8 -63.5h-42zM150 910h42l73 -110l73 110h42l-94 -140h-42z" />
    <glyph glyph-name="ccaron" unicode="&#x10d;" horiz-adv-x="389" 
d="M369 171q0 -18 -6.5 -49t-24 -61t-49 -51.5t-82.5 -21.5t-83.5 21t-51.5 58t-26.5 87.5t-7.5 109.5q0 130 42 200.5t134 70.5q48 0 77.5 -20t46 -47t22.5 -54t6 -41h-42q0 12 -4.5 33.5t-17 42.5t-34 36.5t-55.5 15.5q-73 0 -103 -62.5t-30 -176.5q0 -124 30 -182
t103 -58q36 0 58.5 18t34.5 42t16.5 49t4.5 40h42zM98 736h42l73 -110l73 110h42l-94 -140h-42z" />
    <glyph glyph-name="Dcaron" unicode="&#x10e;" horiz-adv-x="519" 
d="M61 714h163q57 0 104 -14.5t81 -54t53 -109t19 -179.5t-21 -179.5t-56.5 -109t-82 -54t-97.5 -14.5h-163v714zM224 34q114 0 164.5 79.5t50.5 243.5q0 82 -10.5 143t-35.5 101t-66.5 59.5t-102.5 19.5h-121v-646h121zM114 910h42l73 -110l73 110h42l-94 -140h-42z" />
    <glyph glyph-name="dcaron" unicode="&#x10f;" horiz-adv-x="466" 
d="M80 263q0 -50 5.5 -94t19.5 -76.5t38.5 -51.5t63.5 -19q70 0 99 63t29 178q0 129 -35 183.5t-95 54.5q-69 0 -97 -58.5t-28 -179.5zM335 101h-2q-10 -54 -43.5 -83.5t-88.5 -29.5q-46 0 -77 20t-50 56.5t-27.5 87t-8.5 111.5q0 60 7.5 110t26.5 86t51 56t80 20
q54 0 85 -31t45 -73h2v283h38v-714h-38v101zM449 714h47l-47 -140h-28z" />
    <glyph glyph-name="Dcroat" unicode="&#x110;" horiz-adv-x="519" 
d="M103 355v-321h121q114 0 164.5 79.5t50.5 243.5q0 82 -10.5 143t-35.5 101t-66.5 59.5t-102.5 19.5h-121v-289h180v-36h-180zM61 355h-60v36h60v323h163q57 0 104 -14.5t81 -54t53 -109t19 -179.5t-21 -179.5t-56.5 -109t-82 -54t-97.5 -14.5h-163v355z" />
    <glyph glyph-name="dcroat" unicode="&#x111;" horiz-adv-x="448" 
d="M335 101h-2q-10 -54 -43.5 -83.5t-88.5 -29.5q-46 0 -77 20t-50 56.5t-27.5 87t-8.5 111.5q0 60 7.5 110t26.5 86t51 56t80 20q54 0 85 -31t45 -73h2v175h-126v30h126v78h38v-78h75v-30h-75v-606h-38v101zM80 263q0 -50 5.5 -94t19.5 -76.5t38.5 -51.5t63.5 -19
q70 0 99 63t29 178q0 129 -35 183.5t-95 54.5q-69 0 -97 -58.5t-28 -179.5z" />
    <glyph glyph-name="Emacron" unicode="&#x112;" 
d="M61 714h341v-38h-299v-285h279v-38h-279v-315h308v-38h-350v714zM123 855h216v-30h-216v30z" />
    <glyph glyph-name="emacron" unicode="&#x113;" horiz-adv-x="407" 
d="M80 264q0 -32 2 -73.5t13.5 -79t36.5 -63.5t71 -26q41 0 66.5 18t39 42t18 49t4.5 40h38q0 -30 -8.5 -62.5t-28 -59t-50.5 -44t-75 -17.5q-51 0 -83.5 20t-51.5 57.5t-26.5 90.5t-7.5 120q0 120 43 189.5t132 69.5q46 0 77.5 -18.5t50.5 -53.5t27 -85.5t8 -113.5h-296z
M334 298q0 36 -4 72t-17 65t-37.5 47.5t-64.5 18.5q-44 0 -69.5 -22t-39.5 -54t-18 -67t-4 -60h254zM106 681h216v-30h-216v30z" />
    <glyph glyph-name="Ebreve" unicode="&#x114;" 
d="M61 714h341v-38h-299v-285h279v-38h-279v-315h308v-38h-350v714zM342 898q0 -16 -4.5 -36t-17.5 -38q-13 -17 -34.5 -29.5t-55.5 -12.5q-33 0 -55 12t-34.5 30t-17.5 38t-5 36h30q0 -36 21 -60q11 -12 26 -19t35 -7q42 0 62 25.5t20 60.5h30z" />
    <glyph glyph-name="ebreve" unicode="&#x115;" horiz-adv-x="407" 
d="M80 264q0 -32 2 -73.5t13.5 -79t36.5 -63.5t71 -26q41 0 66.5 18t39 42t18 49t4.5 40h38q0 -30 -8.5 -62.5t-28 -59t-50.5 -44t-75 -17.5q-51 0 -83.5 20t-51.5 57.5t-26.5 90.5t-7.5 120q0 120 43 189.5t132 69.5q46 0 77.5 -18.5t50.5 -53.5t27 -85.5t8 -113.5h-296z
M334 298q0 36 -4 72t-17 65t-37.5 47.5t-64.5 18.5q-44 0 -69.5 -22t-39.5 -54t-18 -67t-4 -60h254zM327 724q0 -16 -4.5 -36t-17.5 -38q-13 -17 -34.5 -29.5t-55.5 -12.5q-33 0 -55 12t-34.5 30t-17.5 38t-5 36h30q0 -36 21 -60q11 -12 26 -19t35 -7q42 0 62 25.5t20 60.5
h30z" />
    <glyph glyph-name="Edotaccent" unicode="&#x116;" 
d="M61 714h341v-38h-299v-285h279v-38h-279v-315h308v-38h-350v714zM212 891h42v-102h-42v102z" />
    <glyph glyph-name="edotaccent" unicode="&#x117;" horiz-adv-x="407" 
d="M80 264q0 -32 2 -73.5t13.5 -79t36.5 -63.5t71 -26q41 0 66.5 18t39 42t18 49t4.5 40h38q0 -30 -8.5 -62.5t-28 -59t-50.5 -44t-75 -17.5q-51 0 -83.5 20t-51.5 57.5t-26.5 90.5t-7.5 120q0 120 43 189.5t132 69.5q46 0 77.5 -18.5t50.5 -53.5t27 -85.5t8 -113.5h-296z
M334 298q0 36 -4 72t-17 65t-37.5 47.5t-64.5 18.5q-44 0 -69.5 -22t-39.5 -54t-18 -67t-4 -60h254zM189 717h42v-102h-42v102z" />
    <glyph glyph-name="Eogonek" unicode="&#x118;" 
d="M390 0q-45 -35 -65 -62t-20 -55q0 -26 13.5 -40.5t37.5 -14.5q27 0 46 16l10 -22q-26 -18 -64 -18q-34 0 -55.5 17.5t-21.5 55.5q0 32 24.5 64.5t66.5 58.5h-301v714h341v-38h-299v-285h279v-38h-279v-315h308v-38h-21z" />
    <glyph glyph-name="eogonek" unicode="&#x119;" horiz-adv-x="407" 
d="M80 264q0 -32 2 -73.5t13.5 -79t36.5 -63.5t71 -26q41 0 66.5 18t39 42t18 49t4.5 40h38q0 -47 -20.5 -93t-66.5 -73q-21 -10 -47 -15q-35 -29 -52 -52q-20 -28 -20 -55q0 -26 13.5 -40.5t37.5 -14.5q27 0 46 16l10 -22q-26 -18 -64 -18q-34 0 -55.5 17.5t-21.5 55.5
q0 33 25 65q19 24 48 46q-49 2 -79 20q-49 31 -67 99t-18 169q0 120 43 189.5t132 69.5q46 0 77.5 -18.5t50.5 -53.5t27 -85.5t8 -113.5h-296zM334 298q0 36 -4 72t-17 65t-37.5 47.5t-64.5 18.5q-44 0 -69.5 -22t-39.5 -54t-18 -67t-4 -60h254z" />
    <glyph glyph-name="Ecaron" unicode="&#x11a;" 
d="M61 714h341v-38h-299v-285h279v-38h-279v-315h308v-38h-350v714zM117 910h42l73 -110l73 110h42l-94 -140h-42z" />
    <glyph glyph-name="ecaron" unicode="&#x11b;" horiz-adv-x="407" 
d="M80 264q0 -32 2 -73.5t13.5 -79t36.5 -63.5t71 -26q41 0 66.5 18t39 42t18 49t4.5 40h38q0 -30 -8.5 -62.5t-28 -59t-50.5 -44t-75 -17.5q-51 0 -83.5 20t-51.5 57.5t-26.5 90.5t-7.5 120q0 120 43 189.5t132 69.5q46 0 77.5 -18.5t50.5 -53.5t27 -85.5t8 -113.5h-296z
M334 298q0 36 -4 72t-17 65t-37.5 47.5t-64.5 18.5q-44 0 -69.5 -22t-39.5 -54t-18 -67t-4 -60h254zM95 736h42l73 -110l73 110h42l-94 -140h-42z" />
    <glyph glyph-name="Gcircumflex" unicode="&#x11c;" horiz-adv-x="519" 
d="M447 144h-2q-17 -73 -64.5 -114.5t-123.5 -41.5q-59 0 -100.5 25t-67.5 72.5t-38.5 115.5t-12.5 155q0 84 12.5 152.5t40 116.5t71 74.5t105.5 26.5q63 0 102 -24t60.5 -58t29.5 -71.5t8 -63.5h-42q0 36 -9.5 69t-29 58.5t-49 40.5t-68.5 15q-53 0 -89.5 -24t-58.5 -67.5
t-31.5 -105.5t-9.5 -137q0 -72 8.5 -133.5t29 -106.5t56 -70.5t89.5 -25.5q51 0 84.5 22.5t54 59t29 82.5t8.5 93v44h-196v34h238v-357h-34v144zM247 910h42l94 -140h-42l-73 110l-73 -110h-42z" />
    <glyph glyph-name="gcircumflex" unicode="&#x11d;" 
d="M373 29q0 -48 -8 -87.5t-27.5 -67.5t-51.5 -43t-81 -15q-50 0 -78.5 16.5t-42.5 38.5t-17.5 43.5t-3.5 31.5h38q0 -42 25.5 -69t82.5 -27q67 0 96.5 39t29.5 121v96h-3q-6 -17 -15 -36t-24.5 -34.5t-39 -25.5t-58.5 -10q-47 0 -77 21t-48 57t-25 84t-7 102t6.5 103
t24.5 86.5t50 59.5t84 22q51 0 83 -26.5t47 -72.5h2v87h38v-494zM80 264q0 -50 6 -92.5t20.5 -73t39 -47.5t61.5 -17q36 0 60.5 17t39.5 48.5t21.5 75.5t6.5 97q0 229 -123 229q-32 0 -56.5 -12t-41 -40t-25.5 -73t-9 -112zM203 736h42l94 -140h-42l-73 110l-73 -110h-42z
" />
    <glyph glyph-name="Gbreve" unicode="&#x11e;" horiz-adv-x="519" 
d="M447 144h-2q-17 -73 -64.5 -114.5t-123.5 -41.5q-59 0 -100.5 25t-67.5 72.5t-38.5 115.5t-12.5 155q0 84 12.5 152.5t40 116.5t71 74.5t105.5 26.5q63 0 102 -24t60.5 -58t29.5 -71.5t8 -63.5h-42q0 36 -9.5 69t-29 58.5t-49 40.5t-68.5 15q-53 0 -89.5 -24t-58.5 -67.5
t-31.5 -105.5t-9.5 -137q0 -72 8.5 -133.5t29 -106.5t56 -70.5t89.5 -25.5q51 0 84.5 22.5t54 59t29 82.5t8.5 93v44h-196v34h238v-357h-34v144zM381 898q0 -16 -4.5 -36t-17.5 -38q-13 -17 -34.5 -29.5t-55.5 -12.5q-33 0 -55 12t-34.5 30t-17.5 38t-5 36h30q0 -36 21 -60
q11 -12 26 -19t35 -7q42 0 62 25.5t20 60.5h30z" />
    <glyph glyph-name="gbreve" unicode="&#x11f;" 
d="M373 29q0 -48 -8 -87.5t-27.5 -67.5t-51.5 -43t-81 -15q-50 0 -78.5 16.5t-42.5 38.5t-17.5 43.5t-3.5 31.5h38q0 -42 25.5 -69t82.5 -27q67 0 96.5 39t29.5 121v96h-3q-6 -17 -15 -36t-24.5 -34.5t-39 -25.5t-58.5 -10q-47 0 -77 21t-48 57t-25 84t-7 102t6.5 103
t24.5 86.5t50 59.5t84 22q51 0 83 -26.5t47 -72.5h2v87h38v-494zM80 264q0 -50 6 -92.5t20.5 -73t39 -47.5t61.5 -17q36 0 60.5 17t39.5 48.5t21.5 75.5t6.5 97q0 229 -123 229q-32 0 -56.5 -12t-41 -40t-25.5 -73t-9 -112zM335 724q0 -16 -4.5 -36t-17.5 -38
q-13 -17 -34.5 -29.5t-55.5 -12.5q-33 0 -55 12t-34.5 30t-17.5 38t-5 36h30q0 -36 21 -60q11 -12 26 -19t35 -7q42 0 62 25.5t20 60.5h30z" />
    <glyph glyph-name="Gdotaccent" unicode="&#x120;" horiz-adv-x="519" 
d="M447 144h-2q-17 -73 -64.5 -114.5t-123.5 -41.5q-59 0 -100.5 25t-67.5 72.5t-38.5 115.5t-12.5 155q0 84 12.5 152.5t40 116.5t71 74.5t105.5 26.5q63 0 102 -24t60.5 -58t29.5 -71.5t8 -63.5h-42q0 36 -9.5 69t-29 58.5t-49 40.5t-68.5 15q-53 0 -89.5 -24t-58.5 -67.5
t-31.5 -105.5t-9.5 -137q0 -72 8.5 -133.5t29 -106.5t56 -70.5t89.5 -25.5q51 0 84.5 22.5t54 59t29 82.5t8.5 93v44h-196v34h238v-357h-34v144zM245 891h42v-102h-42v102z" />
    <glyph glyph-name="gdotaccent" unicode="&#x121;" 
d="M373 29q0 -48 -8 -87.5t-27.5 -67.5t-51.5 -43t-81 -15q-50 0 -78.5 16.5t-42.5 38.5t-17.5 43.5t-3.5 31.5h38q0 -42 25.5 -69t82.5 -27q67 0 96.5 39t29.5 121v96h-3q-6 -17 -15 -36t-24.5 -34.5t-39 -25.5t-58.5 -10q-47 0 -77 21t-48 57t-25 84t-7 102t6.5 103
t24.5 86.5t50 59.5t84 22q51 0 83 -26.5t47 -72.5h2v87h38v-494zM80 264q0 -50 6 -92.5t20.5 -73t39 -47.5t61.5 -17q36 0 60.5 17t39.5 48.5t21.5 75.5t6.5 97q0 229 -123 229q-32 0 -56.5 -12t-41 -40t-25.5 -73t-9 -112zM196 717h42v-102h-42v102z" />
    <glyph glyph-name="Gcommaaccent" unicode="&#x122;" horiz-adv-x="519" 
d="M447 144h-2q-17 -73 -64.5 -114.5t-123.5 -41.5q-59 0 -100.5 25t-67.5 72.5t-38.5 115.5t-12.5 155q0 84 12.5 152.5t40 116.5t71 74.5t105.5 26.5q63 0 102 -24t60.5 -58t29.5 -71.5t8 -63.5h-42q0 36 -9.5 69t-29 58.5t-49 40.5t-68.5 15q-53 0 -89.5 -24t-58.5 -67.5
t-31.5 -105.5t-9.5 -137q0 -72 8.5 -133.5t29 -106.5t56 -70.5t89.5 -25.5q51 0 84.5 22.5t54 59t29 82.5t8.5 93v44h-196v34h238v-357h-34v144zM242 -50h47v-85q0 -31 -14 -47t-38 -22v20q12 5 19 15t7 32h-21v87z" />
    <glyph glyph-name="gcommaaccent" unicode="&#x123;" 
d="M373 29q0 -48 -8 -87.5t-27.5 -67.5t-51.5 -43t-81 -15q-50 0 -78.5 16.5t-42.5 38.5t-17.5 43.5t-3.5 31.5h38q0 -42 25.5 -69t82.5 -27q67 0 96.5 39t29.5 121v96h-3q-6 -17 -15 -36t-24.5 -34.5t-39 -25.5t-58.5 -10q-47 0 -77 21t-48 57t-25 84t-7 102t6.5 103
t24.5 86.5t50 59.5t84 22q51 0 83 -26.5t47 -72.5h2v87h38v-494zM80 264q0 -50 6 -92.5t20.5 -73t39 -47.5t61.5 -17q36 0 60.5 17t39.5 48.5t21.5 75.5t6.5 97q0 229 -123 229q-32 0 -56.5 -12t-41 -40t-25.5 -73t-9 -112zM237 627h-47v85q0 31 14 47t38 22v-20
q-12 -5 -19 -15t-7 -32h21v-87z" />
    <glyph glyph-name="Hcircumflex" unicode="&#x124;" horiz-adv-x="519" 
d="M61 714h42v-313h313v313h42v-714h-42v363h-313v-363h-42v714zM237 910h42l94 -140h-42l-73 110l-73 -110h-42z" />
    <glyph glyph-name="hcircumflex" unicode="&#x125;" horiz-adv-x="407" 
d="M51 714h38v-270h2q7 17 18.5 33.5t28 29t38 20.5t48.5 8q28 0 52 -8t42 -25.5t28 -44t10 -63.5v-394h-38v376q0 70 -27.5 97.5t-76.5 27.5q-30 0 -53.5 -13t-39 -35.5t-24 -53t-8.5 -64.5v-335h-38v714zM181 910h42l94 -140h-42l-73 110l-73 -110h-42z" />
    <glyph glyph-name="Hbar" unicode="&#x126;" horiz-adv-x="519" 
d="M61 714h42v-191h313v191h42v-714h-42v363h-313v-363h-42v714zM416 401v92h-313v-92h313z" />
    <glyph glyph-name="hbar" unicode="&#x127;" 
d="M0 636h70v78h38v-78h121v-30h-121v-162h2q7 17 18.5 33.5t28 29t38 20.5t48.5 8q28 0 52 -8t42 -25.5t28 -44t10 -63.5v-394h-38v376q0 70 -27.5 97.5t-76.5 27.5q-30 0 -53.5 -13t-39 -35.5t-24 -53t-8.5 -64.5v-335h-38v606h-70v30z" />
    <glyph glyph-name="Itilde" unicode="&#x128;" horiz-adv-x="164" 
d="M61 714h42v-714h-42v714zM204 885q0 -11 -3.5 -26t-11 -28.5t-21 -22.5t-32.5 -9q-18 -1 -32 7t-27 18t-24.5 18t-24.5 8q-12 0 -19.5 -6t-11.5 -14.5t-5.5 -18t-1.5 -16.5h-30q0 11 3.5 25.5t11 28t20.5 22.5t33 9q18 1 32.5 -7t26.5 -18q13 -10 24.5 -18t24.5 -8
q12 0 19.5 6t11.5 15t5.5 18.5t1.5 16.5h30z" />
    <glyph glyph-name="itilde" unicode="&#x129;" horiz-adv-x="148" 
d="M55 523h38v-523h-38v523zM196 711q0 -11 -3.5 -26t-11 -28.5t-21 -22.5t-32.5 -9q-18 -1 -32 7t-27 18t-24.5 18t-24.5 8q-12 0 -19.5 -6t-11.5 -14.5t-5.5 -18t-1.5 -16.5h-30q0 11 3.5 25.5t11 28t20.5 22.5t33 9q18 1 32.5 -7t26.5 -18q13 -10 24.5 -18t24.5 -8
q12 0 19.5 6t11.5 15t5.5 18.5t1.5 16.5h30z" />
    <glyph glyph-name="Imacron" unicode="&#x12a;" horiz-adv-x="164" 
d="M61 714h42v-714h-42v714zM-26 855h216v-30h-216v30z" />
    <glyph glyph-name="imacron" unicode="&#x12b;" horiz-adv-x="148" 
d="M55 523h38v-523h-38v523zM-34 681h216v-30h-216v30z" />
    <glyph glyph-name="Iogonek" unicode="&#x12e;" horiz-adv-x="164" 
d="M103 0q-42 -35 -59.5 -62t-17.5 -55q0 -55 46 -55q24 0 41 16l9 -22q-23 -18 -57 -18q-31 0 -50.5 17.5t-19.5 55.5q0 32 22.5 64.5t59.5 58.5h-16v714h42v-714z" />
    <glyph glyph-name="iogonek" unicode="&#x12f;" horiz-adv-x="148" 
d="M93 0q-42 -35 -59.5 -62t-17.5 -55q0 -55 46 -55q24 0 41 16l9 -22q-23 -18 -57 -18q-31 0 -50.5 17.5t-19.5 55.5q0 32 22.5 64.5t59.5 58.5h-12v523h38v-523zM55 714h38v-102h-38v102z" />
    <glyph glyph-name="Idotaccent" unicode="&#x130;" horiz-adv-x="164" 
d="M61 714h42v-714h-42v714zM61 891h42v-102h-42v102z" />
    <glyph glyph-name="dotlessi" unicode="&#x131;" horiz-adv-x="148" 
d="M55 523h38v-523h-38v523z" />
    <glyph glyph-name="Jcircumflex" unicode="&#x134;" horiz-adv-x="407" 
d="M66 187q0 -85 29.5 -125t86.5 -40q23 0 45 6.5t39 22.5t27.5 43.5t10.5 68.5v551h42v-551q0 -89 -45 -132t-116 -43q-48 0 -79 15.5t-49 42.5t-25.5 64.5t-7.5 82.5v16h42v-22zM302 910h42l94 -140h-42l-73 110l-73 -110h-42z" />
    <glyph glyph-name="jcircumflex" unicode="&#x135;" horiz-adv-x="148" 
d="M-38 -142q7 -1 14 -1.5t14 -0.5q12 0 23.5 2.5t20.5 10t15 22t6 39.5v593h38v-589q0 -32 -7.5 -53.5t-20 -34.5t-30 -18.5t-37.5 -5.5q-9 0 -18 0.5t-18 1.5v34zM51 736h42l94 -140h-42l-73 110l-73 -110h-42z" />
    <glyph glyph-name="Kcommaaccent" unicode="&#x136;" horiz-adv-x="463" 
d="M61 714h42v-397h2l295 397h46l-224 -301l246 -413h-48l-225 378l-92 -122v-256h-42v714zM216 -50h47v-85q0 -31 -14 -47t-38 -22v20q12 5 19 15t7 32h-21v87z" />
    <glyph glyph-name="kcommaaccent" unicode="&#x137;" horiz-adv-x="389" 
d="M51 714h38v-469h2l226 278h48l-162 -194l191 -329h-48l-170 295l-87 -103v-192h-38v714zM179 -50h47v-85q0 -31 -14 -47t-38 -22v20q12 5 19 15t7 32h-21v87z" />
    <glyph glyph-name="Lacute" unicode="&#x139;" 
d="M61 714h42v-676h299v-38h-341v714zM143 910h48l-93 -140h-33z" />
    <glyph glyph-name="lacute" unicode="&#x13a;" horiz-adv-x="148" 
d="M55 714h38v-714h-38v714zM134 910h48l-93 -140h-33z" />
    <glyph glyph-name="Lcommaaccent" unicode="&#x13b;" 
d="M61 714h42v-676h299v-38h-341v714zM195 -50h47v-85q0 -31 -14 -47t-38 -22v20q12 5 19 15t7 32h-21v87z" />
    <glyph glyph-name="lcommaaccent" unicode="&#x13c;" horiz-adv-x="148" 
d="M55 714h38v-714h-38v714zM51 -50h47v-85q0 -31 -14 -47t-38 -22v20q12 5 19 15t7 32h-21v87z" />
    <glyph glyph-name="Lcaron" unicode="&#x13d;" 
d="M61 714h42v-676h299v-38h-341v714zM213 714h47l-47 -140h-28z" />
    <glyph glyph-name="lcaron" unicode="&#x13e;" horiz-adv-x="185" 
d="M55 714h38v-714h-38v714zM168 714h47l-47 -140h-28z" />
    <glyph glyph-name="Ldot" unicode="&#x13f;" 
d="M61 714h42v-676h299v-38h-341v714zM206 524h42v-102h-42v102z" />
    <glyph glyph-name="ldot" unicode="&#x140;" horiz-adv-x="227" 
d="M55 714h38v-714h-38v714zM151 524h42v-102h-42v102z" />
    <glyph glyph-name="Lslash" unicode="&#x141;" 
d="M61 301l-71 -55v46l71 55v367h42v-335l187 144v-46l-187 -144v-295h299v-38h-341v301z" />
    <glyph glyph-name="lslash" unicode="&#x142;" horiz-adv-x="148" 
d="M55 324h-2l-53 -66v52l55 66v338h38v-298h2l53 66v-52l-55 -66v-364h-38v324z" />
    <glyph glyph-name="Nacute" unicode="&#x143;" horiz-adv-x="519" 
d="M110 714l311 -648h2v648h42v-714h-55l-312 648h-2v-648h-42v714h56zM315 910h48l-93 -140h-33z" />
    <glyph glyph-name="nacute" unicode="&#x144;" horiz-adv-x="407" 
d="M51 523h38v-79h2q7 17 18.5 33.5t28 29t38 20.5t48.5 8q28 0 52 -8t42 -25.5t28 -44t10 -63.5v-394h-38v376q0 70 -27.5 97.5t-76.5 27.5q-30 0 -53.5 -13t-39 -35.5t-24 -53t-8.5 -64.5v-335h-38v523zM259 736h48l-93 -140h-33z" />
    <glyph glyph-name="Ncommaaccent" unicode="&#x145;" horiz-adv-x="519" 
d="M110 714l311 -648h2v648h42v-714h-55l-312 648h-2v-648h-42v714h56zM230 -50h47v-85q0 -31 -14 -47t-38 -22v20q12 5 19 15t7 32h-21v87z" />
    <glyph glyph-name="ncommaaccent" unicode="&#x146;" horiz-adv-x="407" 
d="M51 523h38v-79h2q7 17 18.5 33.5t28 29t38 20.5t48.5 8q28 0 52 -8t42 -25.5t28 -44t10 -63.5v-394h-38v376q0 70 -27.5 97.5t-76.5 27.5q-30 0 -53.5 -13t-39 -35.5t-24 -53t-8.5 -64.5v-335h-38v523zM180 -50h47v-85q0 -31 -14 -47t-38 -22v20q12 5 19 15t7 32h-21v87z
" />
    <glyph glyph-name="Ncaron" unicode="&#x147;" horiz-adv-x="519" 
d="M110 714l311 -648h2v648h42v-714h-55l-312 648h-2v-648h-42v714h56zM144 910h42l73 -110l73 110h42l-94 -140h-42z" />
    <glyph glyph-name="ncaron" unicode="&#x148;" horiz-adv-x="407" 
d="M51 523h38v-79h2q7 17 18.5 33.5t28 29t38 20.5t48.5 8q28 0 52 -8t42 -25.5t28 -44t10 -63.5v-394h-38v376q0 70 -27.5 97.5t-76.5 27.5q-30 0 -53.5 -13t-39 -35.5t-24 -53t-8.5 -64.5v-335h-38v523zM86 736h42l73 -110l73 110h42l-94 -140h-42z" />
    <glyph glyph-name="Omacron" unicode="&#x14c;" horiz-adv-x="537" 
d="M269 692q-53 0 -89 -25t-58 -69t-32 -106t-10 -135q0 -74 8.5 -135.5t30 -105.5t58 -69t92.5 -25q100 0 144 81.5t44 253.5q0 72 -9 133.5t-30.5 106.5t-58 70t-90.5 25zM269 726q53 0 95.5 -18.5t72.5 -62t46 -114t16 -174.5q0 -117 -21.5 -189.5t-55.5 -112.5
t-74.5 -53.5t-78.5 -13.5q-51 0 -93.5 18.5t-73 62t-47.5 114t-17 174.5t17.5 174.5t48.5 114t73 62t92 18.5zM161 855h216v-30h-216v30z" />
    <glyph glyph-name="omacron" unicode="&#x14d;" 
d="M346 261q0 57 -6.5 101.5t-22.5 75t-41.5 47t-62.5 16.5q-38 0 -63 -16.5t-41 -47t-22.5 -75t-6.5 -101.5q0 -56 6.5 -100.5t22.5 -75.5t41 -47t63 -16q37 0 62.5 16t41.5 47t22.5 75.5t6.5 100.5zM388 262q0 -57 -7.5 -106.5t-27.5 -87t-54.5 -59t-88.5 -21.5
q-52 0 -85 21.5t-52.5 59t-27 87t-7.5 106.5q0 56 7.5 106t27.5 87t54.5 58.5t88.5 21.5q52 0 85 -21.5t52.5 -58.5t27 -87t7.5 -106zM106 681h216v-30h-216v30z" />
    <glyph glyph-name="Obreve" unicode="&#x14e;" horiz-adv-x="537" 
d="M269 692q-53 0 -89 -25t-58 -69t-32 -106t-10 -135q0 -74 8.5 -135.5t30 -105.5t58 -69t92.5 -25q100 0 144 81.5t44 253.5q0 72 -9 133.5t-30.5 106.5t-58 70t-90.5 25zM269 726q53 0 95.5 -18.5t72.5 -62t46 -114t16 -174.5q0 -117 -21.5 -189.5t-55.5 -112.5
t-74.5 -53.5t-78.5 -13.5q-51 0 -93.5 18.5t-73 62t-47.5 114t-17 174.5t17.5 174.5t48.5 114t73 62t92 18.5zM380 898q0 -16 -4.5 -36t-17.5 -38q-13 -17 -34.5 -29.5t-55.5 -12.5q-33 0 -55 12t-34.5 30t-17.5 38t-5 36h30q0 -36 21 -60q11 -12 26 -19t35 -7q42 0 62 25.5
t20 60.5h30z" />
    <glyph glyph-name="obreve" unicode="&#x14f;" 
d="M346 261q0 57 -6.5 101.5t-22.5 75t-41.5 47t-62.5 16.5q-38 0 -63 -16.5t-41 -47t-22.5 -75t-6.5 -101.5q0 -56 6.5 -100.5t22.5 -75.5t41 -47t63 -16q37 0 62.5 16t41.5 47t22.5 75.5t6.5 100.5zM388 262q0 -57 -7.5 -106.5t-27.5 -87t-54.5 -59t-88.5 -21.5
q-52 0 -85 21.5t-52.5 59t-27 87t-7.5 106.5q0 56 7.5 106t27.5 87t54.5 58.5t88.5 21.5q52 0 85 -21.5t52.5 -58.5t27 -87t7.5 -106zM325 724q0 -16 -4.5 -36t-17.5 -38q-13 -17 -34.5 -29.5t-55.5 -12.5q-33 0 -55 12t-34.5 30t-17.5 38t-5 36h30q0 -36 21 -60
q11 -12 26 -19t35 -7q42 0 62 25.5t20 60.5h30z" />
    <glyph glyph-name="Ohungarumlaut" unicode="&#x150;" horiz-adv-x="537" 
d="M269 692q-53 0 -89 -25t-58 -69t-32 -106t-10 -135q0 -74 8.5 -135.5t30 -105.5t58 -69t92.5 -25q100 0 144 81.5t44 253.5q0 72 -9 133.5t-30.5 106.5t-58 70t-90.5 25zM269 726q53 0 95.5 -18.5t72.5 -62t46 -114t16 -174.5q0 -117 -21.5 -189.5t-55.5 -112.5
t-74.5 -53.5t-78.5 -13.5q-51 0 -93.5 18.5t-73 62t-47.5 114t-17 174.5t17.5 174.5t48.5 114t73 62t92 18.5zM402 910h48l-93 -140h-33zM268 910h48l-93 -140h-33z" />
    <glyph glyph-name="ohungarumlaut" unicode="&#x151;" 
d="M346 261q0 57 -6.5 101.5t-22.5 75t-41.5 47t-62.5 16.5q-38 0 -63 -16.5t-41 -47t-22.5 -75t-6.5 -101.5q0 -56 6.5 -100.5t22.5 -75.5t41 -47t63 -16q37 0 62.5 16t41.5 47t22.5 75.5t6.5 100.5zM388 262q0 -57 -7.5 -106.5t-27.5 -87t-54.5 -59t-88.5 -21.5
q-52 0 -85 21.5t-52.5 59t-27 87t-7.5 106.5q0 56 7.5 106t27.5 87t54.5 58.5t88.5 21.5q52 0 85 -21.5t52.5 -58.5t27 -87t7.5 -106zM347 736h48l-93 -140h-33zM213 736h48l-93 -140h-33z" />
    <glyph glyph-name="Racute" unicode="&#x154;" horiz-adv-x="500" 
d="M237 365q30 0 60 6t54 24t39 49.5t15 82.5q0 72 -37.5 112.5t-103.5 40.5h-161v-315h134zM61 714h209q37 0 69.5 -11t56.5 -34t37.5 -58t13.5 -84q0 -71 -36.5 -120t-106.5 -57v-2q44 -3 71 -17t42 -37.5t20 -54.5t5 -68v-75q0 -31 5 -52.5t19 -43.5h-48q-8 16 -13 40.5
t-5 56.5v73q0 38 -6 68t-22 50.5t-44 31.5t-71 11h-154v-331h-42v714zM282 910h48l-93 -140h-33z" />
    <glyph glyph-name="racute" unicode="&#x155;" horiz-adv-x="241" 
d="M51 523h38v-91h2q14 45 46.5 74t84.5 29h22v-34h-22q-33 0 -58 -14.5t-41.5 -38t-25 -54t-8.5 -62.5v-332h-38v523zM137 736h48l-93 -140h-33z" />
    <glyph glyph-name="Rcommaaccent" unicode="&#x156;" horiz-adv-x="500" 
d="M237 365q30 0 60 6t54 24t39 49.5t15 82.5q0 72 -37.5 112.5t-103.5 40.5h-161v-315h134zM61 714h209q37 0 69.5 -11t56.5 -34t37.5 -58t13.5 -84q0 -71 -36.5 -120t-106.5 -57v-2q44 -3 71 -17t42 -37.5t20 -54.5t5 -68v-75q0 -31 5 -52.5t19 -43.5h-48q-8 16 -13 40.5
t-5 56.5v73q0 38 -6 68t-22 50.5t-44 31.5t-71 11h-154v-331h-42v714zM223 -50h47v-85q0 -31 -14 -47t-38 -22v20q12 5 19 15t7 32h-21v87z" />
    <glyph glyph-name="rcommaaccent" unicode="&#x157;" horiz-adv-x="241" 
d="M51 523h38v-91h2q14 45 46.5 74t84.5 29h22v-34h-22q-33 0 -58 -14.5t-41.5 -38t-25 -54t-8.5 -62.5v-332h-38v523zM49 -50h47v-85q0 -31 -14 -47t-38 -22v20q12 5 19 15t7 32h-21v87z" />
    <glyph glyph-name="Rcaron" unicode="&#x158;" horiz-adv-x="500" 
d="M237 365q30 0 60 6t54 24t39 49.5t15 82.5q0 72 -37.5 112.5t-103.5 40.5h-161v-315h134zM61 714h209q37 0 69.5 -11t56.5 -34t37.5 -58t13.5 -84q0 -71 -36.5 -120t-106.5 -57v-2q44 -3 71 -17t42 -37.5t20 -54.5t5 -68v-75q0 -31 5 -52.5t19 -43.5h-48q-8 16 -13 40.5
t-5 56.5v73q0 38 -6 68t-22 50.5t-44 31.5t-71 11h-154v-331h-42v714zM111 910h42l73 -110l73 110h42l-94 -140h-42z" />
    <glyph glyph-name="rcaron" unicode="&#x159;" horiz-adv-x="241" 
d="M51 523h38v-91h2q14 45 46.5 74t84.5 29h22v-34h-22q-33 0 -58 -14.5t-41.5 -38t-25 -54t-8.5 -62.5v-332h-38v523zM30 736h42l73 -110l73 110h42l-94 -140h-42z" />
    <glyph glyph-name="Sacute" unicode="&#x15a;" horiz-adv-x="481" 
d="M77 183q0 -34 11 -63.5t31.5 -51t50.5 -34t69 -12.5q37 0 67.5 12.5t52 34.5t33.5 51.5t12 63.5q0 35 -9 59.5t-26 41.5t-41 29t-54 23l-81 28q-72 24 -108.5 63t-36.5 112q0 43 14 77.5t39.5 58.5t60.5 37t77 13q99 0 145 -52.5t46 -141.5h-42q0 72 -34.5 116t-110.5 44
q-30 0 -57.5 -7.5t-49 -25t-34 -45.5t-12.5 -70q0 -59 29 -90.5t76 -47.5l106 -37q34 -12 61 -27t45.5 -36.5t28.5 -50.5t10 -68q0 -48 -16.5 -85t-44.5 -62.5t-66 -38.5t-80 -13q-62 0 -101.5 19t-62.5 47.5t-31.5 60.5t-8.5 58v47h42v-37zM297 910h48l-93 -140h-33z" />
    <glyph glyph-name="sacute" unicode="&#x15b;" horiz-adv-x="352" 
d="M275 376v15q0 18 -3 37t-13.5 35.5t-30 27t-51.5 10.5q-41 0 -71 -22.5t-30 -74.5q0 -42 19.5 -65t58.5 -38l80 -30q48 -18 71.5 -51.5t23.5 -87.5q0 -33 -12 -59.5t-32.5 -45.5t-48 -29t-58.5 -10q-54 0 -85 17t-46.5 42.5t-19.5 54t-4 51.5v14h38v-17q0 -28 6 -51.5
t20 -40.5t36 -26.5t55 -9.5q29 0 49.5 9t34 24t19.5 34.5t6 41.5q0 38 -16.5 64t-61.5 43l-77 31q-49 20 -73.5 50t-24.5 81q0 66 40 100.5t103 34.5q43 0 70 -13.5t41.5 -34t19.5 -46t5 -49.5v-16h-38zM237 736h48l-93 -140h-33z" />
    <glyph glyph-name="Scircumflex" unicode="&#x15c;" horiz-adv-x="481" 
d="M77 183q0 -34 11 -63.5t31.5 -51t50.5 -34t69 -12.5q37 0 67.5 12.5t52 34.5t33.5 51.5t12 63.5q0 35 -9 59.5t-26 41.5t-41 29t-54 23l-81 28q-72 24 -108.5 63t-36.5 112q0 43 14 77.5t39.5 58.5t60.5 37t77 13q99 0 145 -52.5t46 -141.5h-42q0 72 -34.5 116t-110.5 44
q-30 0 -57.5 -7.5t-49 -25t-34 -45.5t-12.5 -70q0 -59 29 -90.5t76 -47.5l106 -37q34 -12 61 -27t45.5 -36.5t28.5 -50.5t10 -68q0 -48 -16.5 -85t-44.5 -62.5t-66 -38.5t-80 -13q-62 0 -101.5 19t-62.5 47.5t-31.5 60.5t-8.5 58v47h42v-37zM224 910h42l94 -140h-42l-73 110
l-73 -110h-42z" />
    <glyph glyph-name="scircumflex" unicode="&#x15d;" horiz-adv-x="352" 
d="M275 376v15q0 18 -3 37t-13.5 35.5t-30 27t-51.5 10.5q-41 0 -71 -22.5t-30 -74.5q0 -42 19.5 -65t58.5 -38l80 -30q48 -18 71.5 -51.5t23.5 -87.5q0 -33 -12 -59.5t-32.5 -45.5t-48 -29t-58.5 -10q-54 0 -85 17t-46.5 42.5t-19.5 54t-4 51.5v14h38v-17q0 -28 6 -51.5
t20 -40.5t36 -26.5t55 -9.5q29 0 49.5 9t34 24t19.5 34.5t6 41.5q0 38 -16.5 64t-61.5 43l-77 31q-49 20 -73.5 50t-24.5 81q0 66 40 100.5t103 34.5q43 0 70 -13.5t41.5 -34t19.5 -46t5 -49.5v-16h-38zM158 736h42l94 -140h-42l-73 110l-73 -110h-42z" />
    <glyph glyph-name="Scedilla" unicode="&#x15e;" horiz-adv-x="481" 
d="M77 183q0 -34 11 -63.5t31.5 -51t50.5 -34t69 -12.5q37 0 67.5 12.5t52 34.5t33.5 51.5t12 63.5q0 35 -9 59.5t-26 41.5t-41 29t-54 23l-81 28q-72 24 -108.5 63t-36.5 112q0 43 14 77.5t39.5 58.5t60.5 37t77 13q99 0 145 -52.5t46 -141.5h-42q0 72 -34.5 116t-110.5 44
q-30 0 -57.5 -7.5t-49 -25t-34 -45.5t-12.5 -70q0 -59 29 -90.5t76 -47.5l106 -37q34 -12 61 -27t45.5 -36.5t28.5 -50.5t10 -68q0 -48 -16.5 -85t-45 -62.5t-65.5 -38.5t-79 -13l-33 -47l2 -2q15 5 38 5q27 0 48 -18t21 -48q0 -12 -5.5 -25t-17.5 -24t-31 -18t-45 -7
q-27 0 -48 5t-36 13l9 22q14 -7 36 -11.5t41 -4.5q29 0 46 11.5t17 37.5q0 23 -15.5 33t-38.5 10q-17 0 -30.5 -4.5t-22.5 -9.5l-10 12l46 71q-42 4 -74 18q-30 15 -49.5 35t-31.5 42.5t-16.5 45.5t-4.5 43v47h42v-37z" />
    <glyph glyph-name="scedilla" unicode="&#x15f;" horiz-adv-x="352" 
d="M275 376v15q0 18 -3 37t-13.5 35.5t-30 27t-51.5 10.5q-41 0 -71 -22.5t-30 -74.5q0 -42 19.5 -65t58.5 -38l80 -30q48 -18 71.5 -51.5t23.5 -87.5q0 -33 -12 -59.5t-32.5 -45.5t-48 -29t-58.5 -10h-1l-33 -47l2 -2q15 5 38 5q27 0 48 -18t21 -48q0 -12 -5.5 -25
t-17.5 -24t-31 -18t-45 -7q-27 0 -48 5t-36 13l9 22q14 -7 36 -11.5t41 -4.5q29 0 46 11.5t17 37.5q0 23 -15.5 33t-38.5 10q-17 0 -30.5 -4.5t-22.5 -9.5l-10 12l47 72q-33 3 -56 15q-24 13 -37.5 31t-21 38t-9.5 40.5t-2 38.5v14h38v-17q0 -28 6 -51.5t20 -40.5t36 -26.5
t55 -9.5q29 0 49.5 9t34 24t19.5 34.5t6 41.5q0 38 -16.5 64t-61.5 43l-77 31q-49 20 -73.5 50t-24.5 81q0 66 40 100.5t103 34.5q43 0 70 -13.5t41.5 -34t19.5 -46t5 -49.5v-16h-38z" />
    <glyph glyph-name="Tcommaaccent" unicode="&#x162;" 
d="M192 676h-190v38h422v-38h-190v-676h-42v676zM190 -50h47v-85q0 -31 -14 -47t-38 -22v20q12 5 19 15t7 32h-21v87z" />
    <glyph glyph-name="tcommaaccent" unicode="&#x163;" horiz-adv-x="204" 
d="M8 523h71v155h38v-155h87v-34h-87v-403q0 -38 14.5 -48t31.5 -10q12 0 23 1t24 5v-34q-29 -6 -54 -6q-42 0 -59.5 22.5t-17.5 65.5v407h-71v34zM116 -50h47v-85q0 -31 -14 -47t-38 -22v20q12 5 19 15t7 32h-21v87z" />
    <glyph glyph-name="Tcaron" unicode="&#x164;" 
d="M192 676h-190v38h422v-38h-190v-676h-42v676zM99 910h42l73 -110l73 110h42l-94 -140h-42z" />
    <glyph glyph-name="tcaron" unicode="&#x165;" horiz-adv-x="261" 
d="M220 714h47l-47 -140h-28zM8 523h71v155h38v-155h87v-34h-87v-403q0 -38 14.5 -48t31.5 -10q12 0 23 1t24 5v-34q-29 -6 -54 -6q-42 0 -59.5 22.5t-17.5 65.5v407h-71v34z" />
    <glyph glyph-name="Tbar" unicode="&#x166;" 
d="M65 484h127v192h-190v38h422v-38h-190v-192h127v-30h-127v-454h-42v454h-127v30z" />
    <glyph glyph-name="tbar" unicode="&#x167;" horiz-adv-x="204" 
d="M0 346h79v143h-71v34h71v155h38v-155h87v-34h-87v-143h95v-30h-95v-230q0 -38 14.5 -48t31.5 -10q12 0 23 1t24 5v-34q-29 -6 -54 -6q-42 0 -59.5 22.5t-17.5 65.5v234h-79v30z" />
    <glyph glyph-name="Utilde" unicode="&#x168;" horiz-adv-x="500" 
d="M94 189q0 -75 36.5 -121t119.5 -46q78 0 117 46t39 121v525h42v-517q0 -60 -17 -100.5t-45 -64.5t-63.5 -34t-72.5 -10t-72.5 8.5t-63.5 32t-45 64t-17 104.5v517h42v-525zM374 885q0 -11 -3.5 -26t-11 -28.5t-21 -22.5t-32.5 -9q-18 -1 -32 7t-27 18t-24.5 18t-24.5 8
q-12 0 -19.5 -6t-11.5 -14.5t-5.5 -18t-1.5 -16.5h-30q0 11 3.5 25.5t11 28t20.5 22.5t33 9q18 1 32.5 -7t26.5 -18q13 -10 24.5 -18t24.5 -8q12 0 19.5 6t11.5 15t5.5 18.5t1.5 16.5h30z" />
    <glyph glyph-name="utilde" unicode="&#x169;" horiz-adv-x="407" 
d="M356 0h-38v79h-2q-7 -17 -18.5 -33.5t-28 -29.5t-38 -20.5t-48.5 -7.5q-28 0 -52 8t-42 25.5t-28 44t-10 63.5v394h38v-376q0 -70 27.5 -97.5t76.5 -27.5q30 0 53.5 13t39 35.5t24 52.5t8.5 65v335h38v-523zM328 711q0 -11 -3.5 -26t-11 -28.5t-21 -22.5t-32.5 -9
q-18 -1 -32 7t-27 18t-24.5 18t-24.5 8q-12 0 -19.5 -6t-11.5 -14.5t-5.5 -18t-1.5 -16.5h-30q0 11 3.5 25.5t11 28t20.5 22.5t33 9q18 1 32.5 -7t26.5 -18q13 -10 24.5 -18t24.5 -8q12 0 19.5 6t11.5 15t5.5 18.5t1.5 16.5h30z" />
    <glyph glyph-name="Umacron" unicode="&#x16a;" horiz-adv-x="500" 
d="M94 189q0 -75 36.5 -121t119.5 -46q78 0 117 46t39 121v525h42v-517q0 -60 -17 -100.5t-45 -64.5t-63.5 -34t-72.5 -10t-72.5 8.5t-63.5 32t-45 64t-17 104.5v517h42v-525zM143 855h216v-30h-216v30z" />
    <glyph glyph-name="umacron" unicode="&#x16b;" horiz-adv-x="407" 
d="M356 0h-38v79h-2q-7 -17 -18.5 -33.5t-28 -29.5t-38 -20.5t-48.5 -7.5q-28 0 -52 8t-42 25.5t-28 44t-10 63.5v394h38v-376q0 -70 27.5 -97.5t76.5 -27.5q30 0 53.5 13t39 35.5t24 52.5t8.5 65v335h38v-523zM98 681h216v-30h-216v30z" />
    <glyph glyph-name="Ubreve" unicode="&#x16c;" horiz-adv-x="500" 
d="M94 189q0 -75 36.5 -121t119.5 -46q78 0 117 46t39 121v525h42v-517q0 -60 -17 -100.5t-45 -64.5t-63.5 -34t-72.5 -10t-72.5 8.5t-63.5 32t-45 64t-17 104.5v517h42v-525zM361 898q0 -16 -4.5 -36t-17.5 -38q-13 -17 -34.5 -29.5t-55.5 -12.5q-33 0 -55 12t-34.5 30
t-17.5 38t-5 36h30q0 -36 21 -60q11 -12 26 -19t35 -7q42 0 62 25.5t20 60.5h30z" />
    <glyph glyph-name="ubreve" unicode="&#x16d;" horiz-adv-x="407" 
d="M356 0h-38v79h-2q-7 -17 -18.5 -33.5t-28 -29.5t-38 -20.5t-48.5 -7.5q-28 0 -52 8t-42 25.5t-28 44t-10 63.5v394h38v-376q0 -70 27.5 -97.5t76.5 -27.5q30 0 53.5 13t39 35.5t24 52.5t8.5 65v335h38v-523zM315 724q0 -16 -4.5 -36t-17.5 -38q-13 -17 -34.5 -29.5
t-55.5 -12.5q-33 0 -55 12t-34.5 30t-17.5 38t-5 36h30q0 -36 21 -60q11 -12 26 -19t35 -7q42 0 62 25.5t20 60.5h30z" />
    <glyph glyph-name="Uring" unicode="&#x16e;" horiz-adv-x="500" 
d="M94 189q0 -75 36.5 -121t119.5 -46q78 0 117 46t39 121v525h42v-517q0 -60 -17 -100.5t-45 -64.5t-63.5 -34t-72.5 -10t-72.5 8.5t-63.5 32t-45 64t-17 104.5v517h42v-525zM190 832q0 -25 17 -42.5t42 -17.5t42 17.5t17 42.5t-17 42.5t-42 17.5t-42 -17.5t-17 -42.5z
M160 832q0 37 25.5 62.5t63.5 25.5t63.5 -25.5t25.5 -62.5t-25.5 -62.5t-63.5 -25.5t-63.5 25.5t-25.5 62.5z" />
    <glyph glyph-name="uring" unicode="&#x16f;" horiz-adv-x="407" 
d="M356 0h-38v79h-2q-7 -17 -18.5 -33.5t-28 -29.5t-38 -20.5t-48.5 -7.5q-28 0 -52 8t-42 25.5t-28 44t-10 63.5v394h38v-376q0 -70 27.5 -97.5t76.5 -27.5q30 0 53.5 13t39 35.5t24 52.5t8.5 65v335h38v-523zM144 682q0 -25 17 -42.5t42 -17.5t42 17.5t17 42.5t-17 42.5
t-42 17.5t-42 -17.5t-17 -42.5zM114 682q0 37 25.5 62.5t63.5 25.5t63.5 -25.5t25.5 -62.5t-25.5 -62.5t-63.5 -25.5t-63.5 25.5t-25.5 62.5z" />
    <glyph glyph-name="Uhungarumlaut" unicode="&#x170;" horiz-adv-x="500" 
d="M94 189q0 -75 36.5 -121t119.5 -46q78 0 117 46t39 121v525h42v-517q0 -60 -17 -100.5t-45 -64.5t-63.5 -34t-72.5 -10t-72.5 8.5t-63.5 32t-45 64t-17 104.5v517h42v-525zM380 910h48l-93 -140h-33zM246 910h48l-93 -140h-33z" />
    <glyph glyph-name="uhungarumlaut" unicode="&#x171;" horiz-adv-x="407" 
d="M356 0h-38v79h-2q-7 -17 -18.5 -33.5t-28 -29.5t-38 -20.5t-48.5 -7.5q-28 0 -52 8t-42 25.5t-28 44t-10 63.5v394h38v-376q0 -70 27.5 -97.5t76.5 -27.5q30 0 53.5 13t39 35.5t24 52.5t8.5 65v335h38v-523zM333 736h48l-93 -140h-33zM199 736h48l-93 -140h-33z" />
    <glyph glyph-name="Uogonek" unicode="&#x172;" horiz-adv-x="500" 
d="M94 189q0 -75 36.5 -121t119.5 -46q78 0 117 46t39 121v525h42v-517q0 -45 -9.5 -79t-26.5 -58t-40 -39.5t-50 -22.5q-10 -2 -19 -4t-19 -4q-35 -29 -52 -52q-20 -28 -20 -55q0 -26 13.5 -40.5t37.5 -14.5q27 0 46 16l10 -22q-26 -18 -64 -18q-34 0 -55.5 17.5
t-21.5 55.5q0 33 25 65q19 24 48 46h-1q-37 0 -72.5 8.5t-63.5 32t-45 64t-17 104.5v517h42v-525z" />
    <glyph glyph-name="uogonek" unicode="&#x173;" horiz-adv-x="407" 
d="M346 0q-45 -35 -65 -62t-20 -55q0 -26 13.5 -40.5t37.5 -14.5q27 0 46 16l10 -22q-26 -18 -64 -18q-34 0 -55.5 17.5t-21.5 55.5q0 32 24.5 64.5t66.5 58.5v79h-2q-7 -17 -18.5 -33.5t-28 -29.5t-38 -20.5t-48.5 -7.5q-28 0 -52 8t-42 25.5t-28 44t-10 63.5v394h38v-376
q0 -70 27.5 -97.5t76.5 -27.5q30 0 53.5 13t39 35.5t24 52.5t8.5 65v335h38v-523h-10z" />
    <glyph glyph-name="Wcircumflex" unicode="&#x174;" horiz-adv-x="704" 
d="M353 654h-2l-135 -654h-50l-155 714h42l137 -654h2l134 654h51l135 -654h2l137 654h42l-156 -714h-52zM331 910h42l94 -140h-42l-73 110l-73 -110h-42z" />
    <glyph glyph-name="wcircumflex" unicode="&#x175;" horiz-adv-x="537" 
d="M271 469h-2l-103 -469h-48l-112 523h42l93 -469h2l103 469h48l99 -469h2l94 469h42l-113 -523h-48zM248 736h42l94 -140h-42l-73 110l-73 -110h-42z" />
    <glyph glyph-name="Ycircumflex" unicode="&#x176;" horiz-adv-x="444" 
d="M201 294l-195 420h46l170 -376l174 376h42l-195 -420v-294h-42v294zM203 910h42l94 -140h-42l-73 110l-73 -110h-42z" />
    <glyph glyph-name="ycircumflex" unicode="&#x177;" horiz-adv-x="352" 
d="M301 523h42l-143 -529l-19 -72q-15 -54 -42.5 -76t-73.5 -22q-10 0 -19.5 0.5t-19.5 1.5v34q11 -1 17.5 -1.5t15.5 -0.5q18 0 31.5 3t23.5 12t18 25t15 42l16 55l-154 528h42l132 -469h2zM163 736h42l94 -140h-42l-73 110l-73 -110h-42z" />
    <glyph glyph-name="Zacute" unicode="&#x179;" horiz-adv-x="443" 
d="M17 42l363 634h-342v38h384v-42l-363 -634h367v-38h-409v42zM285 910h48l-93 -140h-33z" />
    <glyph glyph-name="zacute" unicode="&#x17a;" horiz-adv-x="334" 
d="M15 34l259 455h-245v34h287v-34l-259 -455h262v-34h-304v34zM229 736h48l-93 -140h-33z" />
    <glyph glyph-name="Zdotaccent" unicode="&#x17b;" horiz-adv-x="443" 
d="M17 42l363 634h-342v38h384v-42l-363 -634h367v-38h-409v42zM206 891h42v-102h-42v102z" />
    <glyph glyph-name="zdotaccent" unicode="&#x17c;" horiz-adv-x="334" 
d="M15 34l259 455h-245v34h287v-34l-259 -455h262v-34h-304v34zM149 717h42v-102h-42v102z" />
    <glyph glyph-name="Scommaaccent" unicode="&#x218;" horiz-adv-x="481" 
d="M77 183q0 -34 11 -63.5t31.5 -51t50.5 -34t69 -12.5q37 0 67.5 12.5t52 34.5t33.5 51.5t12 63.5q0 35 -9 59.5t-26 41.5t-41 29t-54 23l-81 28q-72 24 -108.5 63t-36.5 112q0 43 14 77.5t39.5 58.5t60.5 37t77 13q99 0 145 -52.5t46 -141.5h-42q0 72 -34.5 116t-110.5 44
q-30 0 -57.5 -7.5t-49 -25t-34 -45.5t-12.5 -70q0 -59 29 -90.5t76 -47.5l106 -37q34 -12 61 -27t45.5 -36.5t28.5 -50.5t10 -68q0 -48 -16.5 -85t-44.5 -62.5t-66 -38.5t-80 -13q-62 0 -101.5 19t-62.5 47.5t-31.5 60.5t-8.5 58v47h42v-37zM213 -50h47v-85q0 -31 -14 -47
t-38 -22v20q12 5 19 15t7 32h-21v87z" />
    <glyph glyph-name="scommaaccent" unicode="&#x219;" horiz-adv-x="352" 
d="M275 376v15q0 18 -3 37t-13.5 35.5t-30 27t-51.5 10.5q-41 0 -71 -22.5t-30 -74.5q0 -42 19.5 -65t58.5 -38l80 -30q48 -18 71.5 -51.5t23.5 -87.5q0 -33 -12 -59.5t-32.5 -45.5t-48 -29t-58.5 -10q-54 0 -85 17t-46.5 42.5t-19.5 54t-4 51.5v14h38v-17q0 -28 6 -51.5
t20 -40.5t36 -26.5t55 -9.5q29 0 49.5 9t34 24t19.5 34.5t6 41.5q0 38 -16.5 64t-61.5 43l-77 31q-49 20 -73.5 50t-24.5 81q0 66 40 100.5t103 34.5q43 0 70 -13.5t41.5 -34t19.5 -46t5 -49.5v-16h-38zM152 -50h47v-85q0 -31 -14 -47t-38 -22v20q12 5 19 15t7 32h-21v87z
" />
    <glyph glyph-name="uni021A" unicode="&#x21a;" 
d="M192 676h-190v38h422v-38h-190v-676h-42v676zM190 -50h47v-85q0 -31 -14 -47t-38 -22v20q12 5 19 15t7 32h-21v87z" />
    <glyph glyph-name="uni021B" unicode="&#x21b;" horiz-adv-x="204" 
d="M8 523h71v155h38v-155h87v-34h-87v-403q0 -38 14.5 -48t31.5 -10q12 0 23 1t24 5v-34q-29 -6 -54 -6q-42 0 -59.5 22.5t-17.5 65.5v407h-71v34zM116 -50h47v-85q0 -31 -14 -47t-38 -22v20q12 5 19 15t7 32h-21v87z" />
    <glyph glyph-name="caron" unicode="&#x2c7;" horiz-adv-x="148" 
d="M-41 736h42l73 -110l73 110h42l-94 -140h-42z" />
    <glyph glyph-name="uni02C9" unicode="&#x2c9;" horiz-adv-x="148" 
d="M-34 681h216v-30h-216v30z" />
    <glyph glyph-name="breve" unicode="&#x2d8;" horiz-adv-x="148" 
d="M186 724q0 -16 -4.5 -36t-17.5 -38q-13 -17 -34.5 -29.5t-55.5 -12.5q-33 0 -55 12t-34.5 30t-17.5 38t-5 36h30q0 -36 21 -60q11 -12 26 -19t35 -7q42 0 62 25.5t20 60.5h30z" />
    <glyph glyph-name="dotaccent" unicode="&#x2d9;" horiz-adv-x="148" 
d="M53 717h42v-102h-42v102z" />
    <glyph glyph-name="ring" unicode="&#x2da;" horiz-adv-x="148" 
d="M15 682q0 -25 17 -42.5t42 -17.5t42 17.5t17 42.5t-17 42.5t-42 17.5t-42 -17.5t-17 -42.5zM-15 682q0 37 25.5 62.5t63.5 25.5t63.5 -25.5t25.5 -62.5t-25.5 -62.5t-63.5 -25.5t-63.5 25.5t-25.5 62.5z" />
    <glyph glyph-name="ogonek" unicode="&#x2db;" horiz-adv-x="148" 
d="M144 0q-45 -35 -65 -62t-20 -55q0 -26 13.5 -40.5t37.5 -14.5q27 0 46 16l10 -22q-26 -18 -64 -18q-34 0 -55.5 17.5t-21.5 55.5q0 32 24.5 64.5t66.5 58.5h28z" />
    <glyph glyph-name="hungarumlaut" unicode="&#x2dd;" horiz-adv-x="148" 
d="M176 736h48l-93 -140h-33zM42 736h48l-93 -140h-33z" />
    <glyph glyph-name="uni0394" unicode="&#x394;" horiz-adv-x="639" 
d="M317 667l-252 -632h507zM14 0l287 712h34l291 -712h-612z" />
    <glyph glyph-name="uni03A9" unicode="&#x3a9;" horiz-adv-x="731" 
d="M441 0v166q48 8 84 30.5t60.5 55.5t37 74.5t12.5 88.5q0 57 -21 107t-58 86.5t-87 57.5t-107 21t-106.5 -21.5t-86 -58t-57.5 -86t-21 -106.5q0 -45 12.5 -87.5t37.5 -76t61.5 -56.5t83.5 -29v-166h-232v33h200v105q-48 13 -85.5 39.5t-62.5 63.5t-38 81.5t-13 93.5
q0 64 24 120t66 97t98 64.5t120 23.5t120 -23.5t98 -64.5t66 -96.5t24 -119.5q0 -101 -49.5 -175t-148.5 -104v-105h198v-33h-230z" />
    <glyph glyph-name="uni03BC" unicode="&#x3bc;" horiz-adv-x="407" 
d="M356 0h-38v79h-2q-7 -17 -18.5 -33.5t-28 -29.5t-38 -20.5t-48.5 -7.5q-24 0 -47.5 10.5t-44.5 37.5h-2v-212h-38v699h38v-376q0 -70 27.5 -97.5t76.5 -27.5q30 0 53.5 13t39 35.5t24 52.5t8.5 65v335h38v-523z" />
    <glyph glyph-name="pi" unicode="&#x3c0;" horiz-adv-x="556" 
d="M525 10q-13 -6 -25 -10.5t-26 -4.5q-25 0 -38.5 9t-19.5 23.5t-7 33t-1 37.5v334h-286v-432h-36v432h-70v32h504v-32h-76v-337v-23q0 -18 7 -31t31 -13q23 0 43 13v-31z" />
    <glyph glyph-name="fraction" unicode="&#x2044;" horiz-adv-x="167" 
d="M296 728h34l-459 -760h-34z" />
    <glyph glyph-name="afii61289" unicode="&#x2113;" horiz-adv-x="500" 
d="M396 35q-49 -49 -110 -49q-22 0 -42 6.5t-35 20.5t-24 36.5t-9 55.5v148l-60 -68h-2l-15 19l77 83v269q0 83 31.5 124t74.5 41q39 0 64.5 -30.5t25.5 -87.5q0 -72 -42 -154t-119 -170v-168q0 -29 7.5 -48t19.5 -29.5t26 -14.5t28 -4q22 0 44.5 9t43.5 30h2l14 -19v0z
M342 599q0 44 -17.5 69.5t-42.5 25.5q-27 0 -49 -31.5t-22 -102.5v-246q62 74 96.5 148t34.5 137z" />
    <glyph glyph-name="Omega" unicode="&#x2126;" horiz-adv-x="731" 
d="M441 0v166q48 8 84 30.5t60.5 55.5t37 74.5t12.5 88.5q0 57 -21 107t-58 86.5t-87 57.5t-107 21t-106.5 -21.5t-86 -58t-57.5 -86t-21 -106.5q0 -45 12.5 -87.5t37.5 -76t61.5 -56.5t83.5 -29v-166h-232v33h200v105q-48 13 -85.5 39.5t-62.5 63.5t-38 81.5t-13 93.5
q0 64 24 120t66 97t98 64.5t120 23.5t120 -23.5t98 -64.5t66 -96.5t24 -119.5q0 -101 -49.5 -175t-148.5 -104v-105h198v-33h-230z" />
    <glyph glyph-name="estimated" unicode="&#x212e;" horiz-adv-x="600" 
d="M157 259v-181q59 -59 145 -59q63 0 109 28.5t84 91.5l35 -21q-23 -36 -46.5 -61.5t-51 -42t-59.5 -24t-71 -7.5q-59 0 -106.5 21.5t-81.5 59t-52 87.5t-18 108t18 108.5t52 87.5t81.5 58.5t106.5 21.5q58 0 105.5 -20.5t81.5 -57t53 -87t19 -111.5h-404zM448 295v145
q-63 60 -147 60t-144 -60v-145h291z" />
    <glyph glyph-name="partialdiff" unicode="&#x2202;" horiz-adv-x="463" 
d="M384 284q-31 42 -73.5 73.5t-97.5 31.5q-38 0 -66 -15.5t-46.5 -41t-28 -57.5t-9.5 -66q0 -32 9.5 -65.5t28 -61.5t46 -45.5t64.5 -17.5q48 0 80 27.5t51.5 68t29 86.5t12.5 83zM424 369q0 -34 -3 -75.5t-11.5 -84t-23.5 -82.5t-39 -71t-57.5 -49.5t-79.5 -18.5
q-44 0 -78 20t-57.5 51.5t-35.5 71t-12 79.5q0 42 12 80t35.5 67t58 46.5t79.5 17.5q54 0 99 -27t77 -70q0 15 0.5 30.5t0.5 30.5q0 30 -3.5 63.5t-12 67.5t-22.5 65t-35 55t-50 38t-66 14q-35 0 -61.5 -12.5t-53.5 -32.5l-20 26q30 24 62.5 38t71.5 14q68 0 111.5 -35
t69 -88t35 -114.5t9.5 -114.5z" />
    <glyph glyph-name="Delta" unicode="&#x2206;" horiz-adv-x="639" 
d="M317 667l-252 -632h507zM14 0l287 712h34l291 -712h-612z" />
    <glyph glyph-name="product" unicode="&#x220f;" horiz-adv-x="704" 
d="M585 -214v965h-466v-965h-36v1000h538v-1000h-36z" />
    <glyph glyph-name="summation" unicode="&#x2211;" horiz-adv-x="593" 
d="M35 -214v32l338 471l-324 464v33h497v-35h-451l322 -462l-338 -468h479v-35h-523z" />
    <glyph glyph-name="minus" unicode="&#x2212;" horiz-adv-x="600" 
d="M47 236v34h506v-34h-506z" />
    <glyph glyph-name="uni2215" unicode="&#x2215;" horiz-adv-x="167" 
d="M296 728h34l-459 -760h-34z" />
    <glyph glyph-name="uni2219" unicode="&#x2219;" horiz-adv-x="240" 
d="M69 330q0 21 15 36t36 15t36 -15t15 -36t-15 -36t-36 -15t-36 15t-15 36z" />
    <glyph glyph-name="radical" unicode="&#x221a;" horiz-adv-x="463" 
d="M252 -217h-32l-178 366l-44 -21l-13 27l73 36l173 -359l203 950h33z" />
    <glyph glyph-name="infinity" unicode="&#x221e;" horiz-adv-x="722" 
d="M338 243q-17 14 -37 31.5t-41.5 32.5t-44.5 25.5t-47 10.5q-42 0 -65 -29.5t-23 -68.5q0 -43 24 -70.5t69 -27.5q24 0 46.5 9t43.5 23.5t40 31.5t35 32zM642 245q0 42 -24 70t-67 28q-22 0 -45 -10.5t-45 -25.5t-42 -32.5l-36 -31.5q17 -15 36 -32t40 -31.5t43.5 -24
t46.5 -9.5q45 0 69 27t24 72zM675 246q0 -57 -33 -95t-93 -38q-29 0 -54.5 10.5t-48.5 26t-44 35t-41 37.5q-21 -18 -42 -37t-43.5 -35t-47.5 -26t-55 -10q-29 0 -52 10t-39.5 27t-25.5 41t-9 52q0 27 9 51t25 42t38.5 28.5t50.5 10.5t54 -11t50 -27.5t45.5 -36t41.5 -36.5
q19 17 40.5 36.5t45.5 36t49.5 27.5t52.5 11q28 0 51.5 -10t40 -27t25.5 -41t9 -52z" />
    <glyph glyph-name="integral" unicode="&#x222b;" horiz-adv-x="534" 
d="M374 750q0 -12 -8 -19t-19 -7t-17 5t-10 10.5t-7 10.5t-9 5q-15 0 -24 -21.5t-13 -51.5t-5 -63t-1 -55v-24l1 -476q0 -19 0.5 -46.5t-1 -58.5t-6.5 -61.5t-16 -55t-30.5 -40t-48.5 -15.5q-16 0 -28.5 8.5t-12.5 25.5q0 10 8 17.5t18 7.5q7 0 12 -4t9.5 -9t9 -9t9.5 -4
q14 0 22 20.5t12.5 49.5t5.5 59.5t1 51.5v23v491q0 18 -1 45.5t0.5 57.5t6 60t15.5 54t29.5 39t48.5 15q17 0 33 -8t16 -28z" />
    <glyph glyph-name="approxequal" unicode="&#x2248;" horiz-adv-x="593" 
d="M547 220q-5 -22 -14 -43t-23 -37t-33.5 -26t-44.5 -10q-31 0 -68.5 12t-76 26t-75 26t-63.5 12q-35 0 -58.5 -25.5t-29.5 -57.5h-29q5 22 14 43t23 37t33.5 26t45.5 10q31 0 68.5 -12t76 -26t74.5 -26t63 -12q36 0 59 25.5t31 57.5h27zM547 383q-5 -23 -14 -43.5
t-23 -36.5t-33.5 -25.5t-44.5 -9.5q-32 0 -69.5 12t-76 26t-74 26t-63.5 12q-35 0 -58 -26t-30 -58h-29q5 22 14 43t23 37t33.5 26t45.5 10q31 0 68 -11.5t74.5 -26t73.5 -26t66 -11.5q36 0 59 25t31 57h27z" />
    <glyph glyph-name="notequal" unicode="&#x2260;" horiz-adv-x="593" 
d="M255 133l-75 -141l-29 15l67 126h-166v33h184l80 150h-264v33h282l76 143l29 -15l-68 -128h170v-33h-188l-81 -150h269v-33h-286z" />
    <glyph glyph-name="lessequal" unicode="&#x2264;" horiz-adv-x="593" 
d="M52 -14v33h489v-33h-489zM52 260v36l489 200v-37l-445 -181l445 -180v-37z" />
    <glyph glyph-name="greaterequal" unicode="&#x2265;" horiz-adv-x="593" 
d="M52 -14v33h489v-33h-489zM52 61v37l446 180l-446 181v37l489 -200v-36z" />
    <glyph glyph-name="lozenge" unicode="&#x25ca;" horiz-adv-x="593" 
d="M296 702l-148 -346l148 -346l148 346zM311 -35h-30l-169 391l169 391h30l170 -391z" />
    <glyph glyph-name="uniF8FF" unicode="&#xf8ff;" horiz-adv-x="512" 
d="M222 117v67h56v-67h-56zM225 234l-2 17q0 55 13 81t46 59q32 31 41 47.5t9 35.5q0 36 -22.5 60.5t-53.5 24.5t-53.5 -22t-28.5 -73l-50 8q7 71 44 104t91 33q53 0 88.5 -36t35.5 -95q0 -32 -12.5 -58.5t-50.5 -61.5q-37 -33 -43 -52t-6 -72h-46zM462 50v617h-412v-617
h412zM512 718v-718h-512v718h512z" />
    </font>
</defs>
</svg>
